<svg id="svg5" xmlns="http://www.w3.org/2000/svg" viewBox="0 0 110.41 110.41"><defs><style>.cls-1{fill:#fff;}.cls-1,.cls-2{stroke:#fff;stroke-linejoin:round;stroke-width:0.42px;}</style></defs><path class="cls-1" d="M104,72.29h0C105,48.12,99.81,20.76,75.25,12.07L73,8.28c-24.57-8.69-45.27-.9-59.53,22L5.37,72.84c-2.41,6.82-3.06,6.63,3.77,9L43.76,101A47.2,47.2,0,0,0,104,72.29Z"/><g id="g12022"><g id="g11338"><path id="path11340" d="M30.92,53.56a1.28,1.28,0,0,1-1-.71,2.86,2.86,0,0,1-.3-.78,2.56,2.56,0,0,0-.52-1.49A4.61,4.61,0,0,1,28,50a1.53,1.53,0,0,1-.59-1.2,1.76,1.76,0,0,1,.07-.4,1.22,1.22,0,0,0-.07-.38c-.1-.3-.21-.57-.29-.89a.89.89,0,0,1,0-.75,2.3,2.3,0,0,1,.4-.43,1.76,1.76,0,0,0,.31-.61,3.17,3.17,0,0,0,.17-.69c0-.32-.06-.65,0-1a3.38,3.38,0,0,1,.21-.86,1.18,1.18,0,0,0,0-.25c0-.11,0-.24-.06-.34a2.08,2.08,0,0,1-.15-.44,1.6,1.6,0,0,1,.09-.66,1.66,1.66,0,0,1,.25-.56,1.33,1.33,0,0,1,.34-.26A2.42,2.42,0,0,0,29,40a5.48,5.48,0,0,1,.59-.59.38.38,0,0,1,.49,0,.38.38,0,0,1,.12.48,2.59,2.59,0,0,1-.48.72,3.37,3.37,0,0,1-.68.57,1.46,1.46,0,0,0-.23.61,1.85,1.85,0,0,1,.3.82,2.74,2.74,0,0,1-.23,1.07,1.94,1.94,0,0,0,0,.34,5,5,0,0,1,0,.95,4.8,4.8,0,0,1-.24.88,2,2,0,0,1-.29.59,3,3,0,0,1-.44.44c.1.49.36.93.42,1.43a1.68,1.68,0,0,1,0,.63.43.43,0,0,0,.19.4,2.26,2.26,0,0,0,.54.32,2.12,2.12,0,0,1,.57.27,3.6,3.6,0,0,1,.57.76,3.77,3.77,0,0,1,.36,1.41,2,2,0,0,0,.1.32.65.65,0,0,0,.21.33,1,1,0,0,1,.47.49.11.11,0,0,1,0,.15c-.07,0-.11.1-.17.14A.75.75,0,0,1,30.92,53.56Z"/></g><g id="g11342"><path id="path11344" d="M28.45,42.76c-.13,0-.13-.19-.15-.29a2.05,2.05,0,0,1-.06-.49c0-.17.06-.31.08-.48l.07-.32c.08-.21.19-.42.29-.63s.4-.46.59-.69a2.1,2.1,0,0,0,.32-.59,1.59,1.59,0,0,1,.5-.68,3.34,3.34,0,0,0,.4-.35c.13-.26.27-.49.4-.72s.13-.23.19-.34a2,2,0,0,1,.61-.52,2.75,2.75,0,0,0,.25-.38,1.33,1.33,0,0,1,.61-.4,3.26,3.26,0,0,1,.68-.25,3,3,0,0,0,.88-.53,1.66,1.66,0,0,0,.23-.23c.09-.17.17-.34.26-.49s.19-.29.27-.46a2,2,0,0,1,.38-.86,4.16,4.16,0,0,1,.48-.46,4,4,0,0,1,.55-.43,7,7,0,0,0,.69-.31,5.75,5.75,0,0,0,.74-.74,1.78,1.78,0,0,1,.74-.55c.25-.1.57-.06.63.26a.47.47,0,0,1-.32.57c-.33.12-.4.31-.61.56a3.63,3.63,0,0,1-.92.82,7.37,7.37,0,0,0-.7.3c-.19.13-.4.32-.57.46a1.12,1.12,0,0,0-.21.23,1.32,1.32,0,0,0-.1.3,5.54,5.54,0,0,1-.49,1,1.48,1.48,0,0,1-.25.44l-.31.32a5.74,5.74,0,0,1-.76.53,4.63,4.63,0,0,1-.59.21,3.15,3.15,0,0,0-.65.29,3.07,3.07,0,0,1-.38.51c-.07.06-.15.1-.23.16a1.64,1.64,0,0,0-.24.21c-.1.13-.16.3-.25.43s-.17.27-.25.42A1.69,1.69,0,0,1,31,39c-.19.21-.44.36-.63.55a2,2,0,0,0-.23.4,1.41,1.41,0,0,1-.34.46c-.11.13-.25.21-.36.32A2.88,2.88,0,0,0,29,41l-.19.21a2,2,0,0,0-.34.55,1.76,1.76,0,0,0-.1.3,2.06,2.06,0,0,0,0,.35,1.17,1.17,0,0,0,0,.26,0,0,0,0,0,0,0C28.51,42.68,28.49,42.76,28.45,42.76Z"/></g><g id="g11346"><path id="path11348" d="M40.12,31.74a2.17,2.17,0,0,1-.63-.19,4,4,0,0,0-.84-.31,1.35,1.35,0,0,0-.69.16.9.9,0,0,0-.26.17.93.93,0,0,0,.23,0s0,.05,0,.05a.63.63,0,0,1-.23,0s0,0,0,0,0,0,0-.06l.25-.34a2.06,2.06,0,0,1,.3-.29,1.33,1.33,0,0,1,.46-.23,1.16,1.16,0,0,1,.76,0,4.08,4.08,0,0,1,.76.27.83.83,0,0,0,.31,0c.3,0,.59,0,.91-.06a3.33,3.33,0,0,1,1.09-.13c.82.11.49-.18,1.22-.33a3.42,3.42,0,0,1,1.06-.11c.27,0,.54,0,.82,0h.59c.19,0,.48,0,.48.21,0,.44-.67.38-1,.38s-.65,0-1,0a2.87,2.87,0,0,0-1.13.15c-.11.06-.17.17-.3.23a1.3,1.3,0,0,1-.57.17,5.82,5.82,0,0,1-.59,0c-.25,0-.5.15-.75.19A8.52,8.52,0,0,1,40.12,31.74Z"/></g><g id="g11350"><path id="path11352" d="M55.28,36a2,2,0,0,1-1.07-.4,2.4,2.4,0,0,0-.38-.23,2.16,2.16,0,0,1-1.56-.87.94.94,0,0,0-.38-.21c-.08,0-.16,0-.23,0a1.87,1.87,0,0,1-.78,0,1,1,0,0,1-.54-.4.58.58,0,0,0-.17-.21,3.41,3.41,0,0,1-.46-.1c-.36-.13-.62-.42-.47-.8a1.26,1.26,0,0,1,.34-.42,1.66,1.66,0,0,1,.23-.23.63.63,0,0,0-.08-.34,1.47,1.47,0,0,0-.07-.17c-.12-.31.09-.55.4-.63v0a.21.21,0,0,1,0-.11.37.37,0,0,0-.15,0,1,1,0,0,1-.35.06,4.1,4.1,0,0,1-1-.12,2.52,2.52,0,0,1-.94.34c-.26,0-.49-.09-.72-.09A5.24,5.24,0,0,1,45,31a2.55,2.55,0,0,0-.55,0,4.91,4.91,0,0,0-.5.1,2.62,2.62,0,0,1-.78.32c-.17,0-.36,0-.55.06s-.35.06-.46.06a5,5,0,0,1-2.11.19c-.18,0-.37-.08-.56-.14l-.28-.13a.87.87,0,0,0-.14-.08.41.41,0,0,0-.15,0,1.61,1.61,0,0,0-.91.21,4.63,4.63,0,0,1-.92.52.42.42,0,0,0-.15.07s0,0,0,.06-.07.06-.09,0,.28-.27.36-.36a1.43,1.43,0,0,0,.32-.27,1.31,1.31,0,0,1,.27-.36,2.49,2.49,0,0,1,.65-.42,1.72,1.72,0,0,1,1.14-.08,1.48,1.48,0,0,1,.27.1c.23.06.49.11.72.15a6.68,6.68,0,0,0,1.39-.21c.29,0,.59-.11.88-.13a1.75,1.75,0,0,0,.32,0c.15-.06.27-.15.42-.21a3.45,3.45,0,0,1,.84-.21,4.83,4.83,0,0,1,.76,0,5.74,5.74,0,0,0,.82.1c.25,0,.5,0,.74,0a2.49,2.49,0,0,1,.9.13l.32-.06a1.57,1.57,0,0,1,.4-.13,2,2,0,0,1,.86.15,2.55,2.55,0,0,0,.4,0c.13,0,.23-.07.36,0a1.11,1.11,0,0,1,.52.18c.28.3.38.72,0,1a1.08,1.08,0,0,1,.15.76.84.84,0,0,1-.25.44l-.25.26a2.31,2.31,0,0,1,.67.23,1.76,1.76,0,0,1,.34.33c.21.22.5,0,.75,0a1.38,1.38,0,0,1,.93.25,1.11,1.11,0,0,1,.42.44,1.29,1.29,0,0,0,.86.36c.49.08.8.52,1.29.63l0,0c0-.09,0-.15,0-.23a1.79,1.79,0,0,1,.28-.55,1.47,1.47,0,0,1,1-.51,1.68,1.68,0,0,1,1.06-.1,5.85,5.85,0,0,1,.59,0,.34.34,0,0,1,.12.57.94.94,0,0,1-.71.23c-.17,0-.36,0-.53,0s-.42.13-.65.17a.15.15,0,0,0-.11.08c0,.06-.06.11-.08.17s0,.17,0,.25a.87.87,0,0,1-.36.53A1.1,1.1,0,0,1,55.28,36Z"/></g><g id="g11354"><path id="path11356" d="M66.27,38.8c-.36-.51-.52-.89-.17-1.46a3.47,3.47,0,0,1,.34-.54,2.32,2.32,0,0,0-.06-.66,1.83,1.83,0,0,0-.19-.54c-.11-.15-.25-.32-.44-.25a.66.66,0,0,1-.28,0,4.57,4.57,0,0,0-.65,0,1.61,1.61,0,0,1-.69,0l-.53-.14c-.13,0-.27.06-.4.08l-.48.15a2.64,2.64,0,0,1-.55,0,3.36,3.36,0,0,1-.89-.08,5.1,5.1,0,0,1-.67-.32,2.92,2.92,0,0,0-.36-.17l-.33,0-.87,0a1.89,1.89,0,0,1-.44-.11c-.29-.1-.59-.23-.88-.36a1.21,1.21,0,0,0-.59-.08.64.64,0,0,0-.44.17c-.24.21-.55.31-.8.5,0,.07,0,.11-.11.13s-.15,0-.13-.06.15-.17.21-.26a3.49,3.49,0,0,0,.36-.42,2.38,2.38,0,0,1,.32-.38,1.68,1.68,0,0,1,1.13-.33,6.88,6.88,0,0,1,1.46.4,3.7,3.7,0,0,0,.67,0l.78.06a7.58,7.58,0,0,1,1.09.49,3.46,3.46,0,0,0,.78.06,1.37,1.37,0,0,0,.51-.13,1.76,1.76,0,0,1,1.49,0,1.34,1.34,0,0,0,.4,0h.34a3.62,3.62,0,0,1,.48,0,.91.91,0,0,1,.4,0A1.35,1.35,0,0,1,67,35a2.8,2.8,0,0,1,.38,1.07,2,2,0,0,1,0,.59,1,1,0,0,1-.26.57,1,1,0,0,0-.1.21c0,.13-.21.25-.13.4s.3.53.17.78A.49.49,0,0,1,66.27,38.8Z"/></g><g id="g11358"><path id="path11360" d="M75,50.76a1.69,1.69,0,0,1-1-.65,4,4,0,0,1-.38-.7c-.07-.14-.17-.29-.25-.44s-.28-.44-.43-.67a2.78,2.78,0,0,0-.27-.21,5.51,5.51,0,0,0-.59-.4l-.44-.3a2.62,2.62,0,0,1-.91-.71,2.88,2.88,0,0,1-.54-1c0-.1,0-.23-.05-.33a.91.91,0,0,0-.35-.57,3.59,3.59,0,0,1-1.08-1.58c-.08-.17-.14-.34-.21-.5a6.65,6.65,0,0,0-.23-.76,4.77,4.77,0,0,0-.71-.78,2.07,2.07,0,0,1-.45-.93,3.26,3.26,0,0,1-.25-.61c-.06-.19-.06-.4-.13-.57s-.1-.16-.14-.25a1.49,1.49,0,0,1-.28-.44,1,1,0,0,1,.07-.61c0-.15,0-.3.06-.46a6,6,0,0,1,.27-.68.74.74,0,0,0,.09-.33.58.58,0,0,0-.11-.34.18.18,0,0,1-.06-.17c0-.06.15,0,.08.06a1,1,0,0,1,.15,1,2,2,0,0,0-.08.74c0,.19.06.38.06.55a.17.17,0,0,0,.06.12,3.31,3.31,0,0,1,.45.47,1.67,1.67,0,0,1,.31.75,1.5,1.5,0,0,0,.19.38,5,5,0,0,1,.3.76c0,.11.16.19.25.27s.4.45.59.68a2.45,2.45,0,0,1,.35,1c0,.14.11.31.17.46a4.44,4.44,0,0,0,.4.82,1.73,1.73,0,0,0,.21.25l.24.21a2.15,2.15,0,0,1,.61.85,1.36,1.36,0,0,1,.08.56.6.6,0,0,0,.06.19,3.25,3.25,0,0,0,.36.55,3.12,3.12,0,0,0,.72.48l.69.45a2.24,2.24,0,0,1,.34.27,1.36,1.36,0,0,1,.36.32c.08.1.14.23.23.33l.5.8a6.19,6.19,0,0,0,.32.63c.08.09.17.15.25.24.25,0,.51,0,.76-.05h.34a2.14,2.14,0,0,0,.44-.16,1.24,1.24,0,0,1,.5-.07,1.46,1.46,0,0,0,.51,0,3.6,3.6,0,0,1,.63-.15,2.78,2.78,0,0,0,.38-.12c.46-.15.59-.3,1.13-.21.24,0,.51.14.57.4a.3.3,0,0,1-.17.33,1.19,1.19,0,0,1-.56.07,1.57,1.57,0,0,1-.28.1,5.16,5.16,0,0,1-1,.28,4.71,4.71,0,0,1-.54.12,4.35,4.35,0,0,1-.51,0,.6.6,0,0,0-.19,0c-.12,0-.25.11-.38.15a1.36,1.36,0,0,1-.63.06A2.12,2.12,0,0,1,75,50.76Z"/></g><g id="g11362"><path id="path11364" d="M78.76,54.44c-.34-.24-.17-.59,0-.89a7.27,7.27,0,0,1,.65-1.07A1,1,0,0,0,79.5,52a3.15,3.15,0,0,1,.25-1.1c.13-.29.4-.78.29-1.09a.85.85,0,0,1-.69-.23c0,.06-.11,0-.13,0s0-.1,0-.14a.63.63,0,0,0,.17-.15.63.63,0,0,1,.26-.19.78.78,0,0,1,1.07.38,2.07,2.07,0,0,1-.23,2c-.19.46-.11,1-.38,1.47a8.13,8.13,0,0,0-.57.87,2.55,2.55,0,0,1-.36.56A.31.31,0,0,1,78.76,54.44Z"/></g><g id="g11366"><path id="path11368" d="M71.12,64.55a.93.93,0,0,1-.19-.89c0-.14,0-.29,0-.44a2.62,2.62,0,0,1,.5-1.53,4.82,4.82,0,0,1,.38-.51c.19-.21.4-.4.61-.59a1,1,0,0,0,.21-.29c.23-.57.34-1,.93-1.35l.54-.32a3.32,3.32,0,0,0,.91-.54c.38-.42.67-.89,1-1.33.19-.23.44-.44.65-.67s.28-.32.42-.47A9.17,9.17,0,0,1,78,55a7.38,7.38,0,0,0,.53-.63c.08-.15.13-.32.19-.46a2.27,2.27,0,0,1,.57-.76c.15-.15.38-.21.52-.36a1.46,1.46,0,0,0,.32-1c-.11-.06,0-.29.11-.17a.41.41,0,0,1,0,.21,2.91,2.91,0,0,1-.07.78,1.63,1.63,0,0,1-.46.84,1.79,1.79,0,0,0-.31.53c-.07.21-.11.44-.19.65a2.53,2.53,0,0,1-.47.7,3,3,0,0,1-.63.61,1.89,1.89,0,0,0-.31.25c-.28.29-.55.61-.85.91a2.45,2.45,0,0,0-.42.48c-.17.25-.33.48-.52.72a3.85,3.85,0,0,1-.61.67c-.24.17-.49.29-.74.44s-.27.15-.42.21a2.69,2.69,0,0,0-.55.38c-.15.27-.23.59-.4.86a1.7,1.7,0,0,1-.34.42c-.21.21-.44.4-.63.61a5.42,5.42,0,0,0-.42.64,5.59,5.59,0,0,0-.12.82,2.32,2.32,0,0,1-.07.52.58.58,0,0,1,.11.38C71.82,64.53,71.4,64.82,71.12,64.55Z"/></g><g id="g11370"><path id="path11372" d="M65.62,78.9a.26.26,0,0,1-.08-.3,1.16,1.16,0,0,1,.29-.5,1.77,1.77,0,0,1,.51-.4c.14-.09.29-.15.44-.23a8.57,8.57,0,0,0,.69-.66.53.53,0,0,0,.07-.37c0-.09,0-.17,0-.24s-.07-.31-.09-.4-.1-.4-.17-.59A1.67,1.67,0,0,1,68,73.3c.19-.17.38-.36.59-.53a8.09,8.09,0,0,1,.69-.44c.11-.08.21-.19.32-.27A1.83,1.83,0,0,1,70,71.8c.19-.1.36-.21.53-.31s.38-.34.59-.51a2.8,2.8,0,0,0,.86-.92,2.1,2.1,0,0,0,.15-.61,1.85,1.85,0,0,0,0-.47,3.66,3.66,0,0,1-.17-.71,1.94,1.94,0,0,1,0-.34,2.12,2.12,0,0,0,0-.5c-.09-.13-.19-.26-.26-.38a1.38,1.38,0,0,1-.23-.53l-.06-.38c0-.1-.11-.21-.15-.31a1.87,1.87,0,0,1-.08-.32,2.57,2.57,0,0,1,0-.74c0-.1,0-.19,0-.29a6.42,6.42,0,0,1,.19-1,4.8,4.8,0,0,1,.15-.63,1.41,1.41,0,0,1,.28-.51c.14-.14.29-.31.42-.46a2.41,2.41,0,0,0,.44-.8s0-.06,0-.08,0,0,0,0a.29.29,0,0,1,0,.14,2.18,2.18,0,0,1-.08.4,2.29,2.29,0,0,1-.15.42c-.08.21-.11.45-.19.66s-.08.19-.13.29a7.61,7.61,0,0,0-.08.95c0,.21-.08.4-.11.61a3.87,3.87,0,0,0,0,.48v.36a2,2,0,0,0,.16.49,3.12,3.12,0,0,1,.17.65c.11.19.28.38.38.57a1.51,1.51,0,0,1,.15.69c0,.13,0,.25,0,.38a2.61,2.61,0,0,0,.08.42A2.44,2.44,0,0,1,73,69.68a2.31,2.31,0,0,1-.59,1.45,2.88,2.88,0,0,1-.7.65c-.21.17-.4.36-.61.53a7.17,7.17,0,0,1-.75.46,2.46,2.46,0,0,0-.4.3,3.33,3.33,0,0,1-.57.38,3.25,3.25,0,0,0-.61.5l-.42.38a.68.68,0,0,0-.26.53c0,.12.07.25.09.38a3.62,3.62,0,0,1,.21,1.38A1.54,1.54,0,0,1,67.7,78a2,2,0,0,1-.65.44,2.13,2.13,0,0,1-.33.11c-.15.06-.32.1-.47.17S65.87,79.09,65.62,78.9Z"/></g><g id="g11374"><path id="path11376" d="M56,85.69a2.51,2.51,0,0,1-.91-.19,2.67,2.67,0,0,1-.44-.38,1.37,1.37,0,0,1-.4-1.32c0-.15.13-.3.17-.45a.85.85,0,0,0,0-.23c-.11-.31-.23-.8.15-1s.42.17.52.38a1.39,1.39,0,0,1,.19.72,1.35,1.35,0,0,1-.1.5.69.69,0,0,0-.11.36.9.9,0,0,0,.25.38l.19.17a1.87,1.87,0,0,0,.32.08A2.59,2.59,0,0,0,57,84.53a1.85,1.85,0,0,1,.57-.06,3.53,3.53,0,0,0,.65,0c.38-.08.74-.21,1.09-.31s.78-.15,1.16-.26a3.93,3.93,0,0,1,.44-.1,3.47,3.47,0,0,0,.57-.19,9.14,9.14,0,0,0,1-.89l.51-.61c.14-.17.29-.35.42-.54a1.54,1.54,0,0,1,.25-.36c.21-.23.48-.4.69-.63a5,5,0,0,0,.55-1.08c.15-.25.28-.5.42-.75a2.37,2.37,0,0,1,.87-.91c.37-.21.73-.4,1.11-.57a1.38,1.38,0,0,0,.4-.31,2,2,0,0,0,.25-.4.4.4,0,0,0,0-.28,1,1,0,0,0-.15-.29s-.06-.13,0-.13a0,0,0,0,1,0,.06c.13.17.3.34.27.55a.84.84,0,0,1-.08.3,3.27,3.27,0,0,1-.32.57,3.46,3.46,0,0,1-.82.65c-.14.08-.27.19-.42.29a1.85,1.85,0,0,0-.4.34,5.46,5.46,0,0,0-.31.71,4.56,4.56,0,0,1-.26.59,3.87,3.87,0,0,1-.63,1.27c-.23.27-.52.46-.78.71a7.27,7.27,0,0,1-.69.91,7.38,7.38,0,0,1-.8.9,4.71,4.71,0,0,1-1,.82,6.11,6.11,0,0,1-.86.26c-.38.1-.78.17-1.16.25s-.93.29-1.39.38a2.78,2.78,0,0,1-.91,0,2.83,2.83,0,0,0-.65.17A4.41,4.41,0,0,1,56,85.69Z"/></g><g id="g11378"><path id="path11380" d="M34.27,55.81a3.94,3.94,0,0,1-.76-.34c-.35-.21-.65-.48-1-.72a3.74,3.74,0,0,0-.42-.27,2.11,2.11,0,0,1-.48-.32,2.51,2.51,0,0,1-.38-.48,5.22,5.22,0,0,1-.48-.34,1,1,0,0,1-.3-.23,1.37,1.37,0,0,1-.23-.25s-.06-.08,0-.13a0,0,0,0,1,.06,0,.54.54,0,0,0,.42.21.11.11,0,0,0,.07,0,.43.43,0,0,1,.44,0,3.08,3.08,0,0,1,.69.32,4.73,4.73,0,0,1,.34.4c.15.1.32.17.46.27l.68.44a4.19,4.19,0,0,0,.59.42,3.75,3.75,0,0,0,.44.24.92.92,0,0,0,.33,0,3.8,3.8,0,0,0,.49-.26c.27-.14.55-.29.84-.42a2.44,2.44,0,0,1,1.39,0c.38.09.76.21,1.14.26a3.49,3.49,0,0,0,.44-.05,2.92,2.92,0,0,0,.76-.19c.29-.14.61-.27.9-.4l1-.31c.31-.06.67-.21,1,0a.36.36,0,0,1,0,.65c-.17.06-.34.08-.53.15a4.91,4.91,0,0,0-.8.25c-.25.08-.48.21-.74.32l-.25.12a4.49,4.49,0,0,1-1.24.3,5.37,5.37,0,0,1-1.58-.21,1.84,1.84,0,0,0-.9-.11,1,1,0,0,0-.34.15c-.32.15-.61.34-.95.48A1.64,1.64,0,0,1,34.27,55.81Z"/></g><g id="g11382"><path id="path11384" d="M45.46,56.13a2.12,2.12,0,0,1-.84-.44,2.25,2.25,0,0,1-.46-.86c-.06-.3,0-.32-.34-.4a2.63,2.63,0,0,0-.55-.09,5,5,0,0,0-.54,0c-.21,0-.4.09-.61.13a3.42,3.42,0,0,1-.44,0h-.4a3.86,3.86,0,0,0-.68,0c0,.09-.17,0-.15,0s.07,0,.09-.06.25-.15.38-.19l.31-.21a7.93,7.93,0,0,1,.82-.34,3,3,0,0,1,.68-.13,2.42,2.42,0,0,1,.71,0,2.38,2.38,0,0,1,1.37.52,1.35,1.35,0,0,1,.32.74,1.54,1.54,0,0,0,.23.44.53.53,0,0,0,.34.13c.37,0,.73-.19,1.11-.19s1.07.17,1.12.69a.35.35,0,0,1-.4.32c-.19,0-.32-.15-.49-.17a1.7,1.7,0,0,0-.46.06A3.82,3.82,0,0,1,45.46,56.13Z"/></g><g id="g11386"><path id="path11388" d="M51,67.77a8.11,8.11,0,0,1-.36-.93,2.26,2.26,0,0,1-.29-.77,3.21,3.21,0,0,1,0-.76,1.27,1.27,0,0,0-.13-.74c-.29-.55-.57-1.11-.86-1.68a3.09,3.09,0,0,0-.74-1,8.91,8.91,0,0,1-.84-.78,3.22,3.22,0,0,1-.86-1.81A1.4,1.4,0,0,1,47,58.7c.15-.34.32-.67.45-1a1.9,1.9,0,0,0,.1-.57,3.91,3.91,0,0,0-.31-.93,1.71,1.71,0,0,1-.13-.23c0-.08-.13-.21,0-.29h0s0,0,0,0,0,0,0,0,0,0,0,0,.38.1.53.19a1.22,1.22,0,0,1,.46.52,1.77,1.77,0,0,1,.27,1,4.77,4.77,0,0,1-.48,1.54,1.35,1.35,0,0,0-.17.46,1.54,1.54,0,0,0,0,.3,4.08,4.08,0,0,0,.19.42c.11.15.19.29.32.44s.48.46.73.7a6.46,6.46,0,0,1,.68.71,5,5,0,0,1,.46.78c.17.32.32.63.48.95a5.71,5.71,0,0,1,.49,1.07,3,3,0,0,1,0,.95.81.81,0,0,0,0,.31,1.56,1.56,0,0,0,.21.55,3.09,3.09,0,0,1,.25.78,1.2,1.2,0,0,1,0,.53A.4.4,0,0,1,51,67.77Z"/></g><g id="g11390"><path id="path11392" d="M54.31,82.89a.77.77,0,0,1-.11-.31c0-.13-.12-.26-.17-.38a7.11,7.11,0,0,0-.44-.87,6.92,6.92,0,0,1-.52-.69,6.5,6.5,0,0,1-.3-.8c-.21-.44-.55-.8-.76-1.24a5.84,5.84,0,0,1-.4-.84,9,9,0,0,1-.17-.93c0-.27-.1-.55-.14-.82a5.06,5.06,0,0,1-.17-.72,1.16,1.16,0,0,0-.17-.42c-.23-.31-.48-.59-.72-.9a4.49,4.49,0,0,1-.63-1.08,4.28,4.28,0,0,1-.25-1.32,8,8,0,0,1,0-1.2,4.36,4.36,0,0,1,.76-1.77,3.69,3.69,0,0,0,.57-.88,2.32,2.32,0,0,0,0-.83,1.83,1.83,0,0,1,0-.33,1.46,1.46,0,0,1,0-.42,1.82,1.82,0,0,1,.13-.28s0-.06.06,0,0,0,0,.09a.38.38,0,0,0,0,.31,3.9,3.9,0,0,0,.29.28,1.9,1.9,0,0,1,.32.71,1.75,1.75,0,0,1-.26,1.33,7,7,0,0,0-.9,1.53,3,3,0,0,0-.15.61v.47a4.54,4.54,0,0,0,.06.9,6.15,6.15,0,0,0,1.42,2.28,1.87,1.87,0,0,1,.27.65,3.1,3.1,0,0,0,.08.42c.13.44.17.9.28,1.37a3.73,3.73,0,0,0,.19.88c.16.3.29.59.48.89a4.8,4.8,0,0,1,.65,1.2,2.72,2.72,0,0,0,.13.37,1.28,1.28,0,0,0,.17.26,2.85,2.85,0,0,1,.54.76,4.6,4.6,0,0,1,.4.8,1.44,1.44,0,0,1,.22.71.46.46,0,0,1-.34.48A.62.62,0,0,1,54.31,82.89Z"/></g><g id="g11394"><path id="path11396" d="M74.53,79.16a1.24,1.24,0,0,1-.58-.27,1.57,1.57,0,0,1-.38-.3,2,2,0,0,1-.28-1.39,3.94,3.94,0,0,0-.19-.77,2.59,2.59,0,0,1,.45-1.65c.08-.16.23-.29.31-.46a1.24,1.24,0,0,0-.1-.82,2.71,2.71,0,0,1,.16-1.73c0-.1.11-.19.17-.29a1.94,1.94,0,0,1,.72-.7,2.3,2.3,0,0,1,.42-.16l.53-.26c.19-.08.42-.12.58-.21a7.35,7.35,0,0,0,1-.82,1.94,1.94,0,0,0,.21-.27,1.5,1.5,0,0,1,.19-.38,2.06,2.06,0,0,1,.29-.3.92.92,0,0,1,.59-.58.93.93,0,0,1,.91.12,1.61,1.61,0,0,1,.65.78,2.57,2.57,0,0,1,0,1.73,2.11,2.11,0,0,1-.42.67.91.91,0,0,0-.17.17,1.46,1.46,0,0,0,0,.17c0,.27,0,.54,0,.8a2.34,2.34,0,0,1-.26.61,6.92,6.92,0,0,1-.54.9l0,0h0c-.21.28-.4.57-.59.86a8.32,8.32,0,0,0-.63,1.18,4.5,4.5,0,0,1-.74,1.9,3.6,3.6,0,0,1-.63.54s-.06.07-.11.09C75.69,78.78,75.27,79.27,74.53,79.16Zm.38-.92a.56.56,0,0,0,.36-.15,8.07,8.07,0,0,1,.7-.59,1.5,1.5,0,0,0,.71-.93,5.69,5.69,0,0,1,.36-1.3,6.32,6.32,0,0,1,.36-.74,8.51,8.51,0,0,1,.54-.92l.32-.45a7,7,0,0,0,.55-1c0-.61-.09-1.2.44-1.66a1.19,1.19,0,0,0,.27-.33,1.32,1.32,0,0,0,.09-.43,1,1,0,0,0-.57-1s-.08,0-.13,0l-.21.07a.61.61,0,0,1-.21.12c-.08.15-.08.3-.15.47a2.72,2.72,0,0,1-.16.35,3.58,3.58,0,0,1-.93.93c-.17.13-.32.25-.48.36a1.62,1.62,0,0,1-.47.21,3.91,3.91,0,0,0-.67.27c-.19.11-.4.15-.57.25s-.13.15-.19.21a1.2,1.2,0,0,0-.21.34,1.46,1.46,0,0,0,0,1,2.16,2.16,0,0,1,0,1.33,2.9,2.9,0,0,1-.44.71A2.7,2.7,0,0,0,74,76a.57.57,0,0,0,0,.26,4.42,4.42,0,0,1,.17.65,3.24,3.24,0,0,1,0,.44c0,.21-.09.55.14.7l.38.23A1.3,1.3,0,0,1,74.91,78.24Z"/></g></g><path d="M2,78.87c1.59-1,3.2-1.91,4.8-2.86a3.69,3.69,0,0,1,5.05,1.77,5.5,5.5,0,0,1-1.18,6.71m6.18,5.3c-1.62-2-3.15-4-4.67-6.13C8.35,77.88,6,70.87,6.56,63.92c.21-1.6,2.09-1.07,2.11.34a33.87,33.87,0,0,0,3.05,13.49,35.68,35.68,0,0,0,2.61,5.81,31,31,0,0,0,2.21,4.52,8.21,8.21,0,0,1,.52.89c.13.23.38.67.09.88A.3.3,0,0,1,16.81,89.79ZM11.73,83a19,19,0,0,1-4.57-7.52c-.48-1.34-3.09-8.35-.8-8.54a1.11,1.11,0,0,1,.93,1.11C7,72.3,8.7,80,12.19,82.62c.32-.06.47.48.15.57A.69.69,0,0,1,11.73,83ZM9.14,81.89a12.93,12.93,0,0,1-1.67-3.32,28.09,28.09,0,0,1-2.14-7.5.86.86,0,0,1,1.6-.44c.33.53.69,1.28.27,1.87a22.68,22.68,0,0,0,1.92,8.42c.14-.31.54,0,.48.23S9.6,82.14,9.14,81.89ZM7.73,79.36c-.21-.07-.27-.3-.36-.47a18.87,18.87,0,0,1-.69-2.33,47.1,47.1,0,0,1-.95-5.94c-.06-.52-.12-1-.19-1.56a.32.32,0,0,1,.23-.37c.22,0,.34.18.36.37a13.91,13.91,0,0,0,.09,1.44,46.7,46.7,0,0,0,1,6.23v0h0c.14.58.31,1.15.48,1.68l.13.31C8.32,78.64,8.17,79.5,7.73,79.36ZM5.52,81c-.87-1.33-1.75-7.28-.15-8.14,1.1-.3,1.54,1,1.67,1.89A1.35,1.35,0,0,1,7.92,76c0,1.31,0,2.63,0,3.94,0,1.64-2,1.48-2.15,0-.15-1.28-.38-2.53-.59-3.79a8.06,8.06,0,0,0,.72,4.4C6.09,80.91,5.81,81.42,5.52,81Zm15.61,12.3A15.41,15.41,0,0,1,16.82,89c-3.43-4.35-6.61-9.09-8.32-14.42-2.31-6.5-1.93-13.51-1.3-20.27,0-.27.06-.54.08-.82s0-.92.36-1,.46.49.17.59a2,2,0,0,0,0,.76c1.05,4.95,1.66,10,3.31,14.78a67.07,67.07,0,0,0,3.36,7.32c2.34,5.14,6,9.45,9,14.15C24.63,91.66,23.2,94.48,21.13,93.28Zm-12.65-11a16.09,16.09,0,0,1,5.72.59c3,.55,5.14,2.86,7.54,4.59,3.66,2.17,7.37,4.25,11,6.55,3.45,1.55,6.58,3.74,10.1,5.19,4.84,2,10.06,2.49,15.24,2.74,2.1.3,5.47,0,5.81,2.84-.21,3.6-4.93,3.16-7.47,3-2-.19-4-.23-6-.57a25.07,25.07,0,0,1-5.71-2.14,40.82,40.82,0,0,1-10.5-5C31.7,98.4,29,97.18,26.92,95A48,48,0,0,0,21,90.93c-2.35-1.58-4-4-6.44-5.51a16.77,16.77,0,0,0-9.91-1.67M.25,81.94c.45-3,1-5.81,1.39-8.63C2.31,67.12,3.7,61.06,4.84,55,5.56,49.48,6.4,44,8.52,38.89a69.85,69.85,0,0,1,8.09-16.56A45.28,45.28,0,0,1,29.93,9.49c2-1.06,3.81-2.38,5.79-3.39,1.41-.68,3-1,4.36-1.69a31.2,31.2,0,0,1,7-1.85c1.85-.25,2.84,2,2.18,3.56a2.11,2.11,0,0,1-1,1.22,20.81,20.81,0,0,1-4.16,1.41c-2.15.55-4,1.7-6.13,2.46-1.51.78-2.84,1.88-4.29,2.74A52.44,52.44,0,0,0,21.24,24.18a58.78,58.78,0,0,0-10.76,23c-.61,3.41-.73,6.9-1.2,10.33C8.92,60.17,8.5,62.8,8,65.43a2.26,2.26,0,0,0-.27.36,11.18,11.18,0,0,0-1.43,2.95c-.19.65-.36,1.3-.51,2a3.2,3.2,0,0,0-.29,2.67,2.83,2.83,0,0,0,.63,1.07A4.11,4.11,0,0,0,6,75a37.41,37.41,0,0,1-2.65,6.42M6.3,60.36c.74,0,.74,1.35,0,1.35S5.59,60.36,6.3,60.36ZM45.88,107a63.87,63.87,0,0,1-11-3.55c-2.93-1.23-6-2.11-8.51-4.17-2.61-1.88-4.23-4.7-6.14-7.2-1.14-1.56-2.34-3.07-3.5-4.63s-2.16-3.18-3.22-4.8a2.85,2.85,0,0,0,.4,0q1.17.12,2.34.15h.13a3,3,0,0,0,2-.65,49.28,49.28,0,0,0,5.39,5.89c2.15,2,4,4.38,6.53,6A52.17,52.17,0,0,0,35.9,97a63.78,63.78,0,0,0,8.63,3.48c2.55.65,5.14,1,7.73,1.47s2.67,5.14,0,5.66a9.21,9.21,0,0,1-1.56.13A20.65,20.65,0,0,1,45.88,107ZM6,63.12c-.26-.76-1.12-2.27,0-2.57.42,0,.59.44.57.8,0,.17-.11.36,0,.53.59,1.13,1.18,2.25,1.75,3.41a2.75,2.75,0,0,0-.44.52c-.23.34-.44.72-.65,1.08C6.79,65.62,6.41,64.36,6,63.12Zm48.55,45.5a27.57,27.57,0,0,1-4-1.64c-1.81-.78-3.68-.9-5.45-1.73a2.72,2.72,0,0,1-1.5-1.6,2.83,2.83,0,0,0-.4-.37c-.06,0-.12,0-.18,0-.32,0-.32-.57,0-.59a.67.67,0,0,1,.48.1,1.75,1.75,0,0,0,.82,0c.61.06,1.18.27,1.79.32,1.7.12,3.41-.11,5.09.06,2.85.38,5.71,1,8.55.25a57,57,0,0,0,11.49-2.88,28.08,28.08,0,0,0,11.5-6.32c1-.86,2-1.74,3.11-2.56,2.13-1.48,3.85,1.83,2.48,3.47-4.06,5-9.22,9.43-15.51,11.22-3.6,1.16-7.26,2.44-11.07,2.44C59.3,108.79,56.86,109.27,54.5,108.62ZM4.12,59h0a41.94,41.94,0,0,1,.93-4.59c.42-2.29.9-4.56,1.35-6.86a45,45,0,0,1,2.46-9.43c2.5-5,4.82-10.25,7.81-15a87.8,87.8,0,0,1,8.88-10.21,51.62,51.62,0,0,1,8.34-6.88C41.8,1.18,49.08-.14,58.2.68A41.28,41.28,0,0,1,81,8.21c1.22.84,2.31,1.83,3.51,2.68a16.79,16.79,0,0,1,3.68,2.92A28.67,28.67,0,0,1,90.87,18c1.43,2.48,5.09,6.12,2.78,9-2.09,2.06-4.34-1.37-5.79-2.7-1.6-1.53-2.34-3.68-3.77-5.32-1.54-1.25-3.37-2.07-4.88-3.35a49.3,49.3,0,0,0-8.93-5,21.77,21.77,0,0,0-9.2-2.78c-6-.48-12.23-.31-18,1.5a43.91,43.91,0,0,0-7.47,2.48A34.2,34.2,0,0,0,28,17a92.55,92.55,0,0,0-7.81,7.91A71.94,71.94,0,0,0,15,33.07,63.81,63.81,0,0,0,8.33,45.85C7.11,50,5.68,54.2,4.86,58.5,5.15,59,4.4,59.68,4.12,59Zm60.07,49.69c-1.56-.08-3.09-.25-4.63-.4-2.78-.17-5.62,0-8.31-.73-2.51-.82-5-1.77-7.41-2.8a51.38,51.38,0,0,1-4.93-1.86c-1.07-.48-2.34-.86-3-1.91-.21-.13-.17-.57.11-.57s.31.23.4.38a4.24,4.24,0,0,0,1.43.36,51.43,51.43,0,0,0,8.42-.11c4.4.25,8.8.65,13.19,0,5.06-.27,10.34.36,15.08-1.74,3.15-1.54,5.74-4,8.42-6.28a76.76,76.76,0,0,0,10.31-12c1.81-2.11,2.57-4.84,3.81-7.31,1.75-2.9,5-.42,4.25,2.4a18.64,18.64,0,0,1-1.79,4.13,63.21,63.21,0,0,0-2.88,7,33.59,33.59,0,0,1-8,10.33A70.22,70.22,0,0,1,78.08,106C73.92,108.34,69,108.84,64.19,108.65ZM97.33,77.76c-2.76-2.19,1-8.68,1.22-11.67.92-3.74.4-7.57.33-11.38A38.34,38.34,0,0,0,94.32,38a41.11,41.11,0,0,0-3.83-6.49c-1-1.49-1.75-3.11-2.85-4.52a42.61,42.61,0,0,1-2.9-3.54c-1.85-1.81-3.41-3.85-5.09-5.79-1.52-1.32-3.25-2.42-4.78-3.74a116.23,116.23,0,0,0-9.64-8c-.47.48-.68-.61-.15-.68,1.33-.46,2.67,0,4,.3A112.84,112.84,0,0,1,80.36,9a20,20,0,0,1,6.19,3.09A22.14,22.14,0,0,1,92.76,17a21,21,0,0,1,2.8,3.09c1.56,2.4,3.09,4.8,4.59,7.24a62.65,62.65,0,0,1,4.92,13,50.45,50.45,0,0,1,1.27,13.52c.19,5.47.14,11.07-2.07,16.16-.48,1.25-1.13,2.4-1.7,3.6C101.79,75.76,99.89,79.4,97.33,77.76ZM62,106.11c-.35-.25-.59-.84-.19-1.15a.44.44,0,0,1,.66.19,3.71,3.71,0,0,0,1.37-.66c2.46-1.6,5.3-2.5,7.8-4,2.61-2.12,5.18-4.29,8-6.21C84.73,89.76,90.75,86,94.43,80.16c.55-1.37,1.26-2.67,1.85-4,.84-2.8,1.48-5.64,2.42-8.4.74-2.65.89-5.62,2.38-8a2.07,2.07,0,0,1,1.47-.67c3.29.27,2.26,5.62,2.49,7.91,0,3-1.16,5.94-2.09,8.78-.4.84-.77,1.71-1.09,2.59-.69,1.64-1.89,3-2.61,4.65-1.22,3.18-3.62,5.66-5.77,8.25a30.55,30.55,0,0,1-7.79,7.08,34.92,34.92,0,0,1-5.59,3.22c-2.87,1.45-5.81,3.07-9.1,3.26a29.67,29.67,0,0,0-5.7.74C64.24,105.84,63.09,106.6,62,106.11ZM.89,83.35a22.83,22.83,0,0,1,14.27.37c2.27,1,4.12,2.74,6.29,4a56.18,56.18,0,0,0,5.73,4.59,74.66,74.66,0,0,0,6.46,4.44,20.17,20.17,0,0,0,4.25,2.68,76.68,76.68,0,0,0,11.94,2.9c2.18.23,4.37.42,6.54.76a1.92,1.92,0,0,1,1.54,2.38c-.55,2-2.61,2.31-4.44,2.21a46.53,46.53,0,0,1-5.41-.38,35.38,35.38,0,0,1-6.36-1.64c-1.75-.47-3.49-.91-5.2-1.48-3-.82-5.32-2.8-8.1-4-2.68-1.36-5.2-3-7.79-4.54a45,45,0,0,1-3.92-3.08c-1.79-.94-3.32-2.25-5-3.15M1.48,75.31A40.26,40.26,0,0,0,4,65.92C4.22,63.63,5,61.44,5.4,59.17c.17-1.67.23-3.35.48-5s.57-3.52.91-5.27a1.5,1.5,0,0,1,1.77-1.28,2.2,2.2,0,0,1,1.53,2.32C9.57,54,9.63,58,9.29,62c-.67,3.7-.82,7.47-1.77,11.11A31.74,31.74,0,0,1,1.67,83M1.4,80.36a15,15,0,0,0,1.58-6c.54-4.65.27-9.38,1.43-13.95.67-2.61,3.7-1.16,3.49,1.07-.46,5.73-.43,11.54-2,17.07-1.07,3.78.51,2-3.33,3.43M.38,80.48c.81-1.57,2.59,1,4.25.3,4.79-2,9.58-2,13.89,1.11.76.51,1.73,1.71,2.36,2.24a43.41,43.41,0,0,1,3.73,3.7c2.88,4.25,7.58,6.67,12,9,3.47,1.79,7.05,3.26,10.65,4.73,2.8,1.29.8,4.74-1.71,4.61-7.53-.23-14.37-4.12-20.08-8.78-3.26-3-6.1-6.56-9.78-9.15A11.72,11.72,0,0,0,8.21,85c-2.69-.17-5.31.22-7.32-1.6A3.37,3.37,0,0,1,.38,80.48Z"/><path id="africa" class="cls-2" d="M55.62,83.87a18.36,18.36,0,0,0-1.79-4.41A23.5,23.5,0,0,1,52,75.1a3.91,3.91,0,0,0-.77-1.79c-.9-1.19-1-3.4-.18-4.17,1.31-1.32-.18-6.86-2.33-8.65a1.92,1.92,0,0,1-.48-2.09c.48-2.09-.12-3.46-1.55-3.46a2,2,0,0,1-1.67-.84c-.36-.66-1-.77-2.92-.54-6.81.84-8.42.72-10.15-.59-.89-.66-1.61-1.55-1.61-1.91a2.38,2.38,0,0,0-1.07-1.43c-1-.72-1.08-1-.54-4.12a15.91,15.91,0,0,0,.36-3.7c-.18-.3,2.15-2.86,5.61-6.21.48-.47,1.61-1.55,2.44-2.38a4.67,4.67,0,0,1,2.75-1.49c.72,0,3.16-.12,5.43-.3l4.18-.36-.3,1.25c-.3,1.14-.06,1.38,2.5,2.57,3.28,1.55,4.06,1.61,4.72.48.41-.72.77-.78,2.74-.24a24,24,0,0,0,4.6.59c2.14,0,2.26.06,2,1.2a4.25,4.25,0,0,0,.72,2.92c.54,1,1.49,2.69,2.15,3.94a23.1,23.1,0,0,0,3.58,4.71c2.44,2.51,2.44,2.51,5,2.21l2.51-.3L79,52.25a17.56,17.56,0,0,1-3.4,4.36c-5.07,4.83-5.55,6-4.3,10.56l.6,2.27-2.62,2.38c-2,1.85-2.57,2.63-2.33,3.46a2.65,2.65,0,0,1-.78,2.27c-.59.66-2,2.27-3.1,3.52-1.49,1.73-2.51,2.45-3.88,2.69-1,.17-2.27.47-2.74.59s-.78.06-.78-.48Z"/><path id="madagascar" class="cls-2" d="M74.54,77.67a8.44,8.44,0,0,1,.06-3c.23-2,.53-2.63,1.31-2.93A7,7,0,0,0,78.18,70l1.25-1.31L79.07,70c-.48,1.79-3.28,7.46-3.82,7.82A.49.49,0,0,1,74.54,77.67Z"/></svg>