<?xml version="1.0" encoding="utf-8"?>
<!-- Generator: Adobe Illustrator 26.0.2, SVG Export Plug-In . SVG Version: 6.00 Build 0)  -->
<svg version="1.1"
	 id="svg5" xmlns:inkscape="http://www.inkscape.org/namespaces/inkscape" xmlns:sodipodi="http://sodipodi.sourceforge.net/DTD/sodipodi-0.dtd" xmlns:svg="http://www.w3.org/2000/svg"
	 xmlns="http://www.w3.org/2000/svg" xmlns:xlink="http://www.w3.org/1999/xlink" x="0px" y="0px" viewBox="0 0 596.5 263.9"
	 style="enable-background:new 0 0 596.5 263.9;" xml:space="preserve">
<style type="text/css">
	.st0{clip-path:url(#SVGID_00000054242219396978066160000014642640664119737505_);}
	.st1{fill:none;stroke:#000000;stroke-width:4.5;stroke-linecap:square;stroke-miterlimit:12.4134;}
	.st2{stroke:#000000;stroke-width:1.0953;stroke-linejoin:round;stroke-miterlimit:1.1592;}
	.st3{stroke:#000000;stroke-width:0.9764;stroke-linejoin:round;stroke-miterlimit:11.3386;}
</style>
<sodipodi:namedview  bordercolor="#666666" borderopacity="1.0" id="namedview7" inkscape:current-layer="layer1" inkscape:cx="274.05843" inkscape:cy="191.43186" inkscape:deskcolor="#d1d1d1" inkscape:document-units="mm" inkscape:pagecheckerboard="0" inkscape:pageopacity="0.0" inkscape:pageshadow="2" inkscape:showpageshadow="2" inkscape:window-height="1377" inkscape:window-maximized="1" inkscape:window-width="2560" inkscape:window-x="1432" inkscape:window-y="597" inkscape:zoom="0.61118353" pagecolor="#ffffff" showgrid="false">
	</sodipodi:namedview>
<g id="layer1" transform="translate(0,-103.46388)" inkscape:groupmode="layer" inkscape:label="Layer 1">
	<g>
		<defs>
			<path id="SVGID_1_" d="M-371.6,266.3c-0.2-0.1-1.2-1.5-2.3-3c-2.3-3.2-2.6-4.3-1.6-5.5c1-1.1,0.9-2.2-0.1-4.1
				c-1.3-2.4-3.3-7.4-3.5-8.6c-0.1-0.6-0.6-1.6-1.2-2.3c-0.6-0.7-1.3-1.8-1.5-2.4c-0.2-0.6-0.5-1.3-0.7-1.5
				c-0.5-0.8-0.9-3.2-0.9-6.1c0-2.5-0.3-4.4-1.1-6.6c-0.1-0.4-0.1-1,0.1-1.5c0.2-0.5,0.3-1.6,0.4-2.5c0.1-1.5,0-1.7-0.9-2.6
				c-0.8-0.8-1.1-1.4-1.5-3.6c-0.6-3.3-1.6-5.6-3.4-7.6l-1.4-1.6l0.2-2.6c0.2-2.7,0.8-5,1.5-5.7c0.9-1,1.5-2.6,1.7-4.9l0.2-2.4
				l2.3-2.2c1.9-1.8,2.3-2.4,2.5-3.4c0.2-1.1,0.1-1.4-0.6-2.3c-0.5-0.6-0.8-1.4-0.8-1.8c0-0.4-0.3-1.1-0.8-1.6
				c-0.5-0.5-0.8-1-0.8-1.2c0-0.2,0.6-0.7,1.2-1.1l1.2-0.8l-0.7-2c-0.4-1.1-1-2.4-1.4-2.9c-1.2-1.5-1.4-2.4-1.3-4.5
				c0.1-2,0.1-2-1.1-3.3c-0.7-0.7-1.3-1.6-1.3-2.1c-0.1-0.6-0.5-1.1-1.5-1.6c-0.7-0.4-2.1-1.6-3.1-2.7l-1.7-1.9l0.3-2.9
				c0.2-1.8,0.5-3.1,0.8-3.5c0.2-0.3,0.6-1.8,0.8-3.4c0.3-2,0.6-3.1,1-3.7c0.5-0.8,0.6-1.1,0.4-2.6c-0.1-0.9-0.4-1.9-0.6-2
				c-2.3-2.2-1.7-2-6.9-2.4c-4.7-0.4-4.8-0.4-5.4-1.2c-0.4-0.5-0.8-1.4-0.9-2.1c-0.4-1.9-1.2-2.6-3.4-3.1c-1-0.2-2.2-0.5-2.7-0.7
				c-0.6-0.2-1-0.1-1.4,0.1c-0.5,0.4-2.1,0.6-3.6,0.5c-0.4,0-0.7,0.1-0.7,0.4c0,0.5-0.5,0.7-2.5,0.8c-1.1,0.1-1.8,0.3-2.4,0.8
				c-0.8,0.7-1.2,0.8-3.5,0.8c-3,0-3.9-0.2-4.1-1.1c-0.2-0.9-4-1.2-7-0.4c-1.3,0.3-2.7,0.7-3.3,0.8c-0.6,0.1-1.5,0.5-2.2,0.8
				c-1.2,0.6-2.9,0.4-3.8-0.5c-0.3-0.3-1.2-0.9-2-1.4c-2.8-1.7-9.2-7-10.9-9c-0.9-1.1-2-2.8-2.4-3.8c-0.4-1-1-2.1-1.3-2.4
				c-0.3-0.4-0.9-1.3-1.2-2c-0.3-0.8-1.1-1.9-1.7-2.6c-0.6-0.7-1.4-1.8-1.7-2.5c-0.4-0.8-0.8-1.3-1.3-1.5c-1.2-0.4-1.5-0.6-1.9-2.2
				c-0.3-1.1-0.3-1.7-0.1-2.5c0.4-1.1,0.2-1.7-0.7-2.7c-0.3-0.3-0.6-0.8-0.5-1c0-0.2-0.5-0.6-1.1-0.8c-1.7-0.6-1.4-1.6,0.5-1.9
				c0.5-0.1,1.3-0.4,1.9-0.7c0.8-0.4,1.1-0.7,1.1-1.3c0-0.4,0.2-1.3,0.4-2s0.7-2.2,1-3.4c0.4-1.3,0.7-2.4,0.8-2.5
				c0.1-0.1,0-0.6-0.2-1.1c-0.3-0.6-0.4-1.5-0.3-3.1c0.1-2.4-0.1-3.3-1.1-3.4c-0.6,0-0.7-0.5-0.6-2.7c0.1-2.1,0.3-2.6,1.3-2.9
				c0.9-0.3,2.7-2.8,2.8-3.9c0.1-1.2,0.8-2.2,2.2-3.3c0.8-0.6,1.5-1.5,1.7-2c0.4-1.3,1.8-3.2,2.5-3.4c0.3-0.1,1.2-1.1,2-2.4
				c1.7-2.7,2.6-3.4,4.2-3.3c1,0.1,1.4-0.1,3.6-1.9c5.1-4.1,5.3-4.4,4.5-6c-0.7-1.4-0.6-2.4,0.4-3.9c0.4-0.6,0.9-1.5,1.1-1.9
				c0.5-1.2,3.2-4.3,4.2-4.8c0.5-0.3,1.3-0.5,1.7-0.4c0.7,0.1,2.8-1,3.6-1.8c0.4-0.4,1-2.1,1.5-3.9c0.5-1.8,1.9-2,3.6-0.4
				c1.4,1.3,2.3,1.8,2.9,1.3c0.3-0.2,1.5-0.2,4,0.2l3.5,0.5l0.4-0.7c0.5-0.8,2.6-1.7,3.8-1.6c0.5,0,1.2-0.2,1.8-0.6
				c1-0.7,2.6-1.1,4.1-1c1.8,0.1,5.6-0.4,6.2-0.9c0.7-0.6,3.8-0.4,4.8,0.3c0.8,0.5,1.9,0.5,3.2-0.2c0.8-0.4,1.2-0.5,1.7-0.1
				c0.5,0.3,0.9,0.3,1.5,0.1c0.6-0.2,1-0.2,1.6,0.1c0.6,0.3,1.1,0.3,1.6,0.2c0.4-0.1,1.4-0.3,2.1-0.5c0.8-0.1,1.6-0.4,1.9-0.5
				c1.4-0.6,2.6,0.2,2.5,1.7c-0.1,0.7,0.5,0.8,1.4,0.3c1.8-1.1,2.1,0.9,0.3,2.2c-0.9,0.7-1.1,1-1,1.6c0.1,0.4,0.5,0.9,0.9,1.2
				c0.6,0.3,0.7,0.6,0.6,1.5c-0.1,0.9-0.2,1.2-0.9,1.5c-0.9,0.4-2.1,2-2.2,2.8c-0.1,0.6,1,1.8,1.9,2.1c1,0.4,1.4,0.8,1.4,1.5
				c0,0.3,0.2,0.6,0.5,0.6c0.3,0,0.9,0.3,1.3,0.7c0.8,0.8,1.9,0.9,2.7,0.4c1-0.6,1.7-0.4,4.6,1.3c2.3,1.3,2.8,1.7,2.9,2.4
				c0.1,0.5,0.5,1.3,0.9,1.8c0.7,0.8,1.1,1,3.1,1.3c2.1,0.3,2.5,0.5,4.7,2c2.9,2,3.8,2.1,5.2,0.4l0.9-1.1l-0.4-1.5
				c-0.6-2.1-0.3-2.8,1.7-3.8c1.5-0.8,1.9-0.8,4.1-0.7c2.2,0.2,2.5,0.3,3.5,1.1c0.6,0.5,1.4,1.1,1.8,1.2c1.5,0.6,3.9,2.1,4.2,2.6
				c0.4,0.6,1.5,0.9,2,0.4c0.5-0.4,2-0.3,2.8,0.3c0.4,0.3,1.4,0.7,2.2,0.8c0.8,0.2,2,0.6,2.8,1c2.3,1.3,2.8,1.4,3.6,0.7
				c0.4-0.3,1.1-0.7,1.6-0.8c0.5-0.1,1.2-0.4,1.7-0.7c1.4-0.9,4.1-0.3,5.4,1.4c0.4,0.5,0.8,0.6,3.3,0.7c3.2,0.1,2.9-0.1,3,3.2
				c0,1,0.1,2.9,0.1,4c0.1,1.2,0.1,2.9,0,3.7c-0.1,1.5-0.1,1.6-0.9,1.5c-0.7-0.1-1-0.3-1.5-1.3c-0.3-0.7-0.9-1.7-1.2-2.2
				c-0.3-0.5-0.6-1.1-0.6-1.4c0-0.6-1.3-3.3-1.6-3.3c-0.1,0-0.3,0.5-0.3,1c-0.1,1.1,0.8,3.8,1.2,3.8c0.1,0,0.6,0.5,0.9,1.2
				c0.4,0.6,1,1.7,1.3,2.2c0.4,0.6,0.6,1.5,0.6,1.9c-0.1,1,0.2,1.8,1.3,3.4c0.4,0.6,1.1,2,1.6,3.1c0.4,1.1,1,2.3,1.3,2.7
				c0.5,0.8,0.5,2.3,0,2.6c-0.2,0.1-0.3,0.6-0.4,1c-0.1,0.7,0.1,1,0.7,1.2c0.4,0.2,0.8,0.7,1,1.1c0.1,0.4,0.7,0.9,1.2,1.1
				c0.8,0.3,0.9,0.5,1,1.7c0.1,1.3,0.7,2.2,1.5,2.2c0.5,0,0.5,0.4-0.2,1.7c-0.7,1.4-0.7,1.9-0.1,2.9c0.3,0.4,0.4,1,0.3,1.2
				c-0.4,0.9,0.3,2.5,1.6,3.6c0.7,0.6,1.2,1.2,1.2,1.5c0,0.2,0.1,0.4,0.3,0.4c0.6,0,1.1,1.5,1.1,3.2c0.1,2.6,0.2,2.9,1.5,4.5
				c0.7,0.8,1.5,1.8,1.8,2.2s0.9,0.7,1.3,0.7c0.5,0,1.2,0.6,2.2,1.9c0.8,1,1.4,1.9,1.4,2.1c0,0.1,0.4,0.3,0.9,0.3
				c0.6,0.1,0.9,0.2,1,0.8c0.1,0.4,0.6,1.2,1.1,1.8c1.1,1.4,1.5,2.7,1.1,3.3c-0.2,0.4-0.1,0.7,0.6,1.5c0.5,0.6,1.1,1.4,1.5,2
				c0.5,0.8,0.8,1,1.8,1.1c0.7,0.1,1.3-0.1,1.4-0.3c0.2-0.3,1-0.4,2.6-0.3c1.7,0,2.4-0.1,3-0.5c0.6-0.4,1.3-0.5,4.4-0.4
				c2.2,0.1,3.8,0,4-0.2c0.3-0.4,3-1.3,3.7-1.3c0.6,0,0.7,0.5,0.8,2.8c0,0.7,0.1,1.7,0.1,2.1c0,0.5-0.2,0.8-0.7,1
				c-0.5,0.2-0.7,0.5-0.8,1.2c-0.1,1.3-0.9,2.8-2,3.9c-0.5,0.5-1.1,1.3-1.4,1.9c-0.3,0.5-0.9,1.3-1.4,1.6c-0.6,0.5-0.9,0.9-1,1.6
				c-0.1,1.3-0.6,2.4-1.7,3.5c-0.5,0.5-1.5,1.6-2.2,2.5c-1.7,2.2-8.2,7.6-10.4,8.6c-2,0.9-8,5.9-8.9,7.3c-0.7,1.2-2.6,2.9-3.3,3.1
				c-0.3,0.1-0.5,0.3-0.5,0.5c0,0.2-0.5,0.6-1.1,0.8c-0.6,0.3-1.2,0.6-1.3,0.8c-0.3,0.7-0.6,1.2-1.1,1.9c-2.2,2.7-2.7,3.6-2.8,4.2
				c0,0.4-0.4,1.3-0.9,1.9l-0.9,1.2l1.3,1.3c1.4,1.5,1.5,2.5,0.6,4c-0.6,0.9-0.5,2.6,0.2,4.3c0.2,0.5,0.4,1.3,0.3,1.7
				c0,0.6,0.2,1,0.8,1.4c0.8,0.6,0.8,0.7,0.8,3.1c0,1.4,0.1,3,0.2,3.6c0.2,0.7,0.1,1.6-0.3,3.2c-0.4,1.7-0.5,2.3-0.2,2.7
				c0.7,1.1,0.6,1.5-0.1,3.2c-0.4,1-0.8,2-0.8,2.3c0,0.3-0.5,0.9-1,1.4s-1,1.1-1,1.3c-0.1,0.7-2.6,1.9-4.1,1.9
				c-1.4,0-1.7,0.2-3.6,1.7c-1.1,0.9-3.6,2.9-5.5,4.3c-2.3,1.8-3.4,2.9-3.5,3.3c0,0.3,0.4,1.1,0.9,1.8l0.9,1.1l-0.1,5.2
				c-0.1,4-0.2,5.3-0.5,5.6c-0.7,0.7-2.7,1.6-3.4,1.6c-0.9-0.1-4,0.9-5,1.6l-0.9,0.6l0.8,0.8c0.7,0.7,0.8,0.9,0.5,2.2
				c-0.2,0.8-0.4,1.5-0.5,1.6c-0.1,0.1-0.4,1.1-0.7,2.3c-0.6,2.2-1.3,3.8-1.9,3.8c-0.6,0-3.1,1.6-3.9,2.6c-0.5,0.6-0.9,1.5-1,2.1
				c-0.3,1.6-1.6,3.1-7.2,7.8c-4.1,3.5-5.2,4.3-5.9,4.2c-0.8-0.1-2.9,0.3-5,0.9c-1.7,0.5-2.3,0.4-3.9,0c-1.1-0.4-1.7-0.4-2.1-0.2
				c-0.4,0.2-1,0.1-1.8-0.2c-1.1-0.4-1.3-0.4-1.9,0.1c-0.5,0.4-1.3,0.6-2.5,0.6c-1,0-2.3,0.2-2.8,0.4
				C-369.4,266.7-371.1,266.7-371.6,266.3L-371.6,266.3z M-291.8,238.8c-1.6-1.9-2.1-3.8-1.7-5.5c0.3-1,0.3-1.4-0.1-2.3
				c-0.3-0.6-0.5-2-0.5-3.2c0-2,0-2.1,0.7-2.5c1.5-0.8,2.6-2.8,3-5.5c0.2-1.6,0.2-2.5,0-2.7c-0.8-0.6,0.5-7.5,1.6-8.6
				c0.4-0.4,2.8-1.4,3.3-1.3c0.1,0,1.2-0.2,2.3-0.5c1.5-0.3,2.1-0.6,2.4-1.1c0.2-0.4,0.6-0.7,0.9-0.8c0.3-0.1,0.7-0.4,0.8-0.6
				c0.1-0.3,0.4-0.8,0.5-1c0.2-0.3,0.3-0.8,0.4-1.1c0.1-1,0.6-1.6,1.8-2.2c0.9-0.5,1.1-0.7,1.1-1.4c0-0.6,0.2-1,0.6-1.3
				c1.1-0.7,1.6-0.4,2.7,1.6c1.1,2,1.2,2.9,0.6,3.9c-0.3,0.4-0.2,0.6,0.2,1c0.5,0.4,0.5,0.7,0.4,2.5c-0.1,1.4-0.3,2.3-0.6,2.6
				c-0.4,0.5-0.5,0.5-0.6,0c-0.1-0.3-0.4-0.6-0.7-0.6c-0.4,0-0.6,0.2-0.6,0.8c-0.1,1.5-1.5,6.6-1.9,7c-0.6,0.6-1.2,2.4-1.7,4.8
				c-0.2,1.1-0.8,2.9-1.2,3.9c-1.4,3.3-1.5,3.7-1.8,5.5c-0.3,2-1.3,4.7-1.7,4.9c-0.2,0.1-0.3,0.5-0.4,1c-0.1,1.1-3.4,3.7-4.7,3.6
				c-0.5,0-1.1,0.1-1.3,0.3c-0.2,0.2-0.9,0.4-1.5,0.3C-290.5,240.2-290.9,239.9-291.8,238.8L-291.8,238.8z"/>
		</defs>
		<clipPath id="SVGID_00000065796645451825039950000015057670865487791745_">
			<use xlink:href="#SVGID_1_"  style="overflow:visible;"/>
		</clipPath>
		
			<g id="patch_107" transform="matrix(-1.0255736,-0.38309884,-0.38309884,1.0255736,371.25522,106.60339)" style="clip-path:url(#SVGID_00000065796645451825039950000015057670865487791745_);">
			<path id="path36612" class="st1" d="M441.1,420.7V131"/>
		</g>
	</g>
	<g id="g12676" transform="matrix(0.38640814,0,0,0.38640814,238.72953,40.836223)">
		<g id="g11196" transform="matrix(0.35277777,0,0,0.35277777,-675.99707,-58.494593)">
			<g id="g11198">
				<g>
					<g id="g11200">
						<g id="g11206" transform="translate(459.9663,925.1355)">
							<path id="path11208" d="M541.3,550.2c0-1.4,1.1-3.3,2.7-3.3c1.6,0,2.6,1.4,2.6,2.9c0,1.4-1.1,3.3-2.7,3.3
								C542.2,553.1,541.2,551.8,541.3,550.2z"/>
						</g>
						<g id="g11210" transform="translate(427.5091,931.7616)">
							<path id="path11212" d="M481.8,562.4c-4.9-1.9-1.3-8.5,0.2-11.8c7.3-14.6,15.9-28.5,24.4-42.4c9.2-14.4,18-29.2,28.4-42.8
								c6.4-8.9,12.8,2.2,15.8,8.1c9.6,18,17.4,37,27.9,54.6c3.5,9.1,19.5-5.1,24.8-7.8c11.8-8.2,22-18.5,33.1-27.7
								c6.6-5.6,15.2-8.3,23.9-7.4c15.8,1.8,25.4,17,36.9,26.3c21.3-16.9,41.6-49.6,72.5-32.3c12.5,6.6,23.3,16.1,36.1,22.3
								c9.9-3.6,16.3-12.7,25.1-18c12.8-6.9,28,0.4,37,10.2c9.2-4.5,17.9-12.9,28.9-11.3c15.9,3.3,25.4,18.9,34.5,31.1
								c7.9-4.9,14.9-15.6,25.2-13.6c6.6,1.8,9.5,9.5,8.4,15.7c-1.2,9.3-9.8,14.2-17.6,17.8c-21.5,12.2-27.2,4.9-40.3-12.6
								c-3-3.3-6.1-6.5-9.4-9.5c-1.9-1.1-4.2-3.9-6.5-2.6c-8.4,6-16.8,14.6-27.8,14.8c-10,0-15-11.1-24.2-12.9
								c-36.7,36.9-43.6,22.2-80.6-1.7c-9.8-6.4-15.2-2.7-23,4.4c-8.2,7.1-15.7,15.1-24.4,21.7c-31.9,24.5-33.8-23.5-57.3-27.9
								c-3.2-0.4-6.2,1-8.7,2.9c-7.9,5.9-14.9,12.9-22.9,18.7c-5.9,4.3-11.9,8.6-18.3,12.1c-8.4,4.8-18.8,10.9-28.7,6.8
								c-4.5-1.8-6.6-7.1-8.2-11.2c-1.7-4.2-3.3-8.4-4.9-12.7c-7.3-17.9-13.2-36.7-22.8-53.5c-21.4,26.2-39.3,55.4-55.8,84.6
								c-0.6,1.6-1.7,3.1-1.3,4.6c0.6,0.2,1.2,0.4,1.6,1C484.1,561.4,482.8,563.1,481.8,562.4z"/>
						</g>
						<g id="g11214" transform="translate(690.0355,979.4417)">
							<path id="path11216" d="M963.4,649.8c-52.1-74.3-68.5-165.8-79.8-254.1c-4.7-35-9.4-70-11.9-105.3
								c-3.1-41.7-3.5-83.5-8.1-125.1c-1.8-19.1-5.3-38.1-10.4-56.6c-2.3-6.5-4-13.6-8.4-19c-18.8,23.2-28,51.7-35.3,80.2
								c-15.4,54.3-27.4,110.7-46.5,163.5c0.3-0.8,0.5-1.4,0.7-2.1c-9.7,28.3-18.6,53.5-30.5,80.4c-7,15.8-15.2,31.4-27.2,44.1
								c-4,3.8-7.8,7.8-12.5,10.8c-4.6,2-8.9,4.6-13.2,7.3c-2,1.2-4.1,2.7-6.2,3.6c-1.6,0.7-3,1.3-4.4-0.1c-0.7-0.4-1.5-0.5-2.3-0.7
								c-1.6-0.2-1.1-3,0.4-2.8c1.2,0,2.5,1.2,3.6,0.3c5.2-5.3,7.5-12.3,11.3-18.5c21.3-27,32.2-59.8,43.8-91.8
								c21.7-61.1,35.9-124.2,52.2-186.8c10.5-40.8,21.7-84.3,53-114.5c67-45.5,61.9,192.8,67.8,227.1c6,62.1,15.2,123.6,27.2,184
								c5.6,24.5,12.3,48.8,21.2,72.3c11.2,28.1,23.8,55.7,39.1,81.8C995.6,642.2,976.7,665.7,963.4,649.8z"/>
						</g>
						<g id="g11218" transform="translate(655.339,729.1758)">
							<path id="path11220" d="M899.7,190.7c-28.8-14.1-27.9-51.3-29-79c-0.6-19.9,4.1-40.1,17.2-55.5c17.2-23,46-30,65.4-5.4
								c14.4,15.8,14.7,38.1,16,58.1c-2.6,25.3-8.9,54.5-28.4,72.3C930.1,191,913.6,196.6,899.7,190.7z M914.9,153.6
								c0.5,0,0.9-0.1,1.4-0.1c0.9-0.2,1.7-0.4,2.5-0.6c11.4-18.6,20.5-42.5,13.3-64.1c-1.4-3.4-3.8-6.1-6.6-8.4
								c-1.8-1.1-3.5-3.5-5.8-2.9c-8.4,3.8-13.5,13.4-14,22.4c-0.8,13.8,0.2,27.6,2,41.3C908.6,145.8,910.2,151.3,914.9,153.6z"/>
						</g>
						<g id="g11222" transform="translate(708.2404,994.8605)">
							<path id="path11224" d="M996.8,678.1c-17.5-4.1-24.5-22.4-32.7-36.5c-6.8-12.3-14.7-24-19.9-37.2
								c-10.9-29.1-25.3-57-32.9-87.2c-4-18.9-5.3-38.1-11-56.4c-2.5-7.7-5.2-15.4-7.7-23.2c-2.1-6.8-6-13.9-3.5-21.2
								c0.5-1.7,2.7-1.1,2.2,0.6c-2.2,6.4,1.4,12.7,3.3,18.7c4.5,9.9,9.6,19.8,12.8,30.3c5.4,17,8.5,34.8,15.4,51.3
								c5.9,12.3,12.8,24.2,19.5,36.1c11.1,19.1,21.6,39.1,36.5,55.4c6.5,7.6,13,15.4,20.3,22.2c7.4,7.6,14.8,1.5,20.2-5
								c26.8-35,40.3-78.4,55.2-119.4c24.9-72.7,45.7-147.7,62-222.6c6-27.5,13.2-54.7,21.1-81.6c6.4-20.7,12.1-42.2,23.8-60.6
								c5.5-9.4,18.8-14.2,27.1-5.3c11.8,12.5,14,30.3,16.8,46.6c4.5,29.1,6.3,58.7,11.8,87.6c8.2,38.3,20.5,75.6,27.9,114.1
								c16.4-28.9,24.4-61.5,36.2-92.3c10-27.1,21.1-53.8,32.5-80.3c4.1-9.7,8.4-19.3,13.1-28.7c3.4-7.4,8.6-15.9,17.5-16.9
								c30.9,0.5,25.9,74.7,27.8,96.8c2.4,50.5,0.6,102.1,14.6,151.2c4.8,13.7,13.7,48.8,28.2,53.2c9.1-0.1,17.2-6.2,25.5-9.4
								c7.7-5.3,17.6-7.3,22.8,2.3c4,7.5,1.8,18.7-5.2,23.7c-58.2,42.8-79.2,13.4-96.3-45.5c-22.9-75.4-11.1-155.2-18.9-232.4
								c-14,32.3-26.8,65.1-38.6,98.2c-12.3,34.3-20.6,70.6-39.4,102.2c-7.1,13.2-24.5,33.4-39,17.6c-4.9-5.5-6.2-13-7.9-19.9
								c-3.2-12.6-5.7-25.2-8.8-37.8c-6.6-28.1-15.5-55.6-21.1-83.9c-6.5-32.7-7.1-66.3-12.8-99.2c-19.2,69.2-27.1,140.1-45.3,209.4
								c-13.3,54.6-29.9,108.4-49.1,161.2C1085.8,593.5,1050,690.5,996.8,678.1z"/>
						</g>
						<g id="g11226" transform="translate(684.5731,957.4628)">
							<path id="path11228" d="M953.4,609.5c0-1.4,1.1-3.3,2.8-3.3c1.6,0,2.6,1.4,2.6,2.9c0,1.4-1.1,3.3-2.8,3.3
								C954.3,612.4,953.3,611.1,953.4,609.5z"/>
						</g>
						<g id="g11230" transform="translate(707.4276,996.3656)">
							<path id="path11232" d="M995.3,680.9c-33.7-2.5-54.9-32.7-70.3-59.6c-12-21.3-24.6-48.5-31.4-71.1
								c-8.1-21.9-19-43.3-20.9-66.9c-0.7-17.4-1.3-36.7,1.6-53.9c2.5-8.3,0.6-17.3,3.6-25.3c4.6-6.1,8.2,5.8,10.1,8.9
								c4.9,9.8,10.9,19,15.3,29c2.1,3.5,4.1,7.1,5.2,11.1c3.4,16.1,10,31.1,16.8,46.1c8.6,15.8,14,32.7,20.6,49.3
								c11.9,23.7,22.1,49.4,41.2,68.5c6.3,5.5,15.2,10.1,23.5,7.7c9.6-8.5,15.8-19.8,22.2-30.7c9.4-15.4,18.4-22.2,25.3-37.2
								c4.9-11.5,9-23.4,13.8-35c3.4-11.7,10.1-31.6,25.5-28.7c14.1,4.5,9.2,26,9.1,37.4c-2.1,13-6,25.6-9.2,38.3
								c-6.9,19.6-15.1,31.1-24.5,48c-6,12.8-12.6,25.4-21.9,36.2C1037.4,670.7,1018.8,684.7,995.3,680.9z"/>
						</g>
						<g id="g11234" transform="translate(869.9451,927.5072)">
							<path id="path11236" d="M1293.5,554.6c-16.5-6.4-6.3-27.2,1.1-37c12.1-18.2,22.8-37.4,32.6-56.9
								c6.8-13.4,13.5-30.2,29.2-34.9c34.3-6.6,40.7,40.9,54.7,62.5c9,12.3,22.1,20.1,14.7,37.6c-7.8,18.6-26.9,14.7-39.9,4.1
								c-11.5-9.6-18.1-23.7-25.3-36.6C1348.3,513.1,1321.2,562.5,1293.5,554.6z"/>
						</g>
						<g id="g11238" transform="translate(948.2548,933.014)">
							<path id="path11240" d="M1437.1,564.7c-10.5-1.7-19.8-6.4-28.9-11.4c-18.1-9.9-37.6-19.7-48.4-38.1c-2.5-0.6-4.8-1.7-6.8-3.2
								c-5.9,6-15.9,8.3-23.5,4.5c-2.5-1.5-5.6-4.8-3.9-7.9c2.3-4,6.3-6.5,8.7-10.4c6.5-12,8.5-26,11.5-39.2c1-14.5,0.2-29,1-43.5
								c2.6-36.5,8.1-73,3.8-109.6c-0.4-24.6-2.4-49.2-3.5-73.8c0.7-30.7-0.7-61.3-0.8-92c0.2-20.2,0.4-40.4-2-60.5
								c-5.5-18.1,4.6-43.5,26.1-42.4c16.9,1.8,20.2,20.6,21.6,34.5c2.2,20.3,5.2,40.6,6.2,61c2.2,29,2.8,58.1,2.5,87.1
								c1.8,28.9,4.5,57.9,3.8,86.9c22.4-25.6,56.5-26.7,81.5-4.1c15.2,13.7,24.8,32.4,32,51.3c14.4,44.1,6.8,111.2-14.7,152.1
								c10.1-4.2,20.3-8.4,30.5-12.5c4.4-1.8,9.3-1.9,13.7,0.2c13.7,7.1,13.1,27.7,3.1,37.8c-8,7-18.7,10.3-28.1,15.1
								C1496.1,559.3,1466.5,568.9,1437.1,564.7z M1431,513.1c39.7-2.1,44.5-51,49.6-81.8c3.7-30.9,0.7-65.8-22.9-88.5
								c-5.7-4.6-14.9-10-21.3-4c-9.3,9.7-14.3,22.7-19.2,35.1c-12.3,37.7-18.1,77.1-27.5,115.6C1401.8,499.6,1415,510.4,1431,513.1
								z"/>
						</g>
						<g id="g11242" transform="translate(961.0449,927.8284)">
							<path id="path11244" d="M1460.6,555.1c-2.1-0.6-2.3-3.1-1.7-4.8c3.8-7.9,14-9.6,20.4-14.9c5.6-4.4,11.2-8.7,15.9-14.1
								c12.1-16.1,26.2-30.5,39.4-45.7c11.2-11.4,21.9-28.4,40-26.9c18.2,2.1,27.6,20.1,36.2,34.1c3.3,5,6.3,10.3,10.5,14.5
								c7.2,5,16.7,5.6,25.2,6.9c9.2,0.9,15,9.4,15.8,18c1,10.2-4.5,22.3-14.5,26.2c-9.2,3.8-18.9,6.3-28.9,5.6
								c-27.6-0.9-41.7-27-53.7-48.2c-9.4,7.7-19.1,14.9-29.2,21.7c-8.1,5.5-15.7,12.3-25.3,15c-15.1,4.6-31.2,5.8-46.3,9.9
								C1463.8,554.2,1462.3,555.7,1460.6,555.1z"/>
						</g>
						<g id="g11246" transform="translate(1090.8693,978.7978)">
							<path id="path11248" d="M1698.8,648.7c-12-5.9-16.9-33.8-20-46.4c-8.3-37.8-11-76.4-13.1-114.9c-2.4-33.3-6-66.5-7.7-99.8
								c-8.3,28.8-17,57.5-27.5,85.6c-5.3,14.2-11,29-21.4,40.3c-14.5,16.3-38.3,13-50.6-4.3c-10.5-14-11.9-32.4-18.9-48.1
								c-5.9,6.9-12.3,13.4-20,18.2c-6,3.5-24.8,16.9-27,4.1c0-4.7,4.1-8.1,6.5-11.8c5.7-7.6,9.7-16.2,13.6-24.8
								c6.4-14.2,10.5-33.4,28-37.4c27.2-4.4,38.6,28.3,46.1,48.7c9.7-25.5,17.5-51.7,25.6-77.7c10.6-34,18.7-69.2,35.4-100.8
								c9.8-21.3,32.7-25.5,42.5-1.7c8.7,25,4.9,52.3,6.2,78.3c0.8,40.5,6.1,80.8,9.5,121.1c1.9,22.9,3.3,45.9,6.4,68.7
								c2.7,27,12.5,52.8,13.3,80C1726.7,639.9,1712.9,655.7,1698.8,648.7z"/>
						</g>
						<g id="g11250" transform="translate(1081.5996,807.0396)">
							<path id="path11252" d="M1681.8,333.5c-29.8-2.3-41.3-34.6-36.6-60.6c4.4-29.6,18.8-77,56.9-70.7c9.7-2.5,19.7,3.8,25.1,11.6
								c10.1,13.6,11.9,31.2,10.3,47.6C1734.4,292.5,1719.4,335.2,1681.8,333.5z M1695,278.5c4.3-9.5,6.3-20.4,6.1-30.8
								c-5.3-1-7.2,1.4-9.1,6c-2.3,5.7-4,11.7-4.9,17.7C1689,274.4,1691.8,276.8,1695,278.5z"/>
						</g>
						<g id="g11254" transform="translate(1092.7471,975.2198)">
							<path id="path11256" d="M1702.2,642.1c-2.2-5.9,1.1-12.4,1.7-18.5c3.7-25.3,11.9-49.7,19.4-74.1
								c7.1-24.8,15.5-49.2,24.2-73.5c2.2-6.2,4.5-12.4,6.8-18.6c3.8-9.2,6.3-19.7,14-26.5c6.4-5.7,17-6.2,22.7,0.7
								c12.5,16.8,13.6,39.3,22.7,58c8.7-11,14-31.6,31.1-30.6c11.2,1.6,24.6,19.6,27.5,30c5.7,20.6-16.6,39.7-31.4,19.5
								c-28.8,50.2-52.3,18-62.8-22.1c-14.2,38.5-29.9,76.4-46.4,114c-5.3,13.5-12.5,25.9-20.1,38.2c-1.2,2-2.8,5.1-5.3,5.5
								c0,0,0,0,0,0C1704.8,644.4,1703.1,643.7,1702.2,642.1z"/>
						</g>
						<g id="g11258" transform="translate(426.5313,929.1945)">
							<path id="path11260" d="M480,557.6c0-1.4,1-3.3,2.6-3.3c1.6,0,2.6,1.5,2.6,3c0,1.4-1,3.3-2.6,3.3S480,559.2,480,557.6z"/>
						</g>
						<g id="g11262" transform="translate(426.8291,931.5801)">
							<path id="path11264" d="M480.5,562c-0.4-1.1-0.5-2.4-0.5-3.5c-7.2-11.8,11.3-44,16.4-56.5c5.6-11.4,9.9-23.8,17.3-34.2
								c17.7-24.8,39.9-27,55.9,0.8c7.9,14.1,8.1,31,14.8,45.6c11.4-3.4,20-12,30.1-17.9c16.2-10.3,37.5-14.7,55.7-7.2
								c13.6,5.5,20,20.3,33.1,26.1c6.3-4.5,10.3-11.4,15.6-16.9c7-8.2,15.6-15,25.8-18.5c6.6-2.8,15.3-5,21.1,0.6
								c7.3,7.4,4.9,21.5-4.5,25.9c-5,2.2-10.8,2.1-15.7,4.9c-9.3,5.4-14.1,15.7-21.1,23.5c-15.6,17.4-28.5,15.2-44.8,0.2
								c-8.5-7.2-12.9-20.4-25.2-22c-17.9-4.4-29.2,13.9-41.1,23.9c-44.4,42.8-65,5.2-75.1-39.7c-12.9,14-20.8,32-34.2,45.6
								c-6.3,5.7-11.7,18.4-21.5,17.2c0,0.2,0.1,0.6,0.1,0.8C483.2,562.2,481.2,563.7,480.5,562z"/>
						</g>
						<g id="g11266" transform="translate(671.1113,938.4399)">
							<path id="path11268" d="M928.7,574.6c-12.2-19.2-22.8-39.9-30-61.6c-5.4-22.7-9.5-46.1-11.1-69.4c-0.6-29-2.7-57.8-4.5-86.8
								c-2.2-28.6-4.3-57.3-4.5-86c0.3-30.1,2.4-60.4-3.5-90.1c-2.4-12.8-2.5-25.4-7.8-37c-3.8,8.1-8.4,15.7-12.3,23.7
								c-6,14.3-9.5,29.4-15.4,43.7c-8.4,21-16.7,42.1-21.2,64.3c-4.7,25.2-18.5,47.5-22.7,72.8c-4.1,30.8-11.4,61.2-21,90.8
								c-6.6,22-15.8,43.3-30,61.5c-11.8,16.9-20.9,23.8-41.6,27.1c-6.8,1.3-14.7,2.3-20.4-2.6c-0.8-0.6-1.4-1.3-2.1-2
								c-0.8-0.9,0-2.9,1.3-2.4c9.2-2.5,15.2-9.6,21.3-16.4c13.7-16.7,17.7-38.2,24.6-58.1c8-29.8,15.7-59.7,22.1-89.9
								c2-14.7,4.1-29.5,8.7-43.7c6-18.8,13.8-37,17.1-56.5c5.7-29.1,18.5-56.1,28.5-83.8c6-22.2,15.7-43.5,29.6-61.9
								c25.6-28.9,57.4-16.7,67,18.9c4.2,16.9,5.7,34.4,9.1,51.4c1.8,7.7,3.4,15.4,4,23.3c2.1,29.5,3.7,59,7,88.4
								c6,50,11.3,100.3,12.2,150.6c2.3,16.1,4.5,32.2,5.2,48.4c3,24.7,21.9,45.6,18.8,71.4C956.4,576.7,938.9,587.8,928.7,574.6z"
								/>
						</g>
						<g id="g11270" transform="translate(707.6539,984.3718)">
							<path id="path11272" d="M995.7,658.9c0.1-1.1,1-1.4,1.7-1.1c4.5-1.5,8.1-4.7,12-7.3c9.8-7.1,20.4-13.8,26.3-24.7
								c4.9-9.2,7.4-19.5,10.6-29.4c5.2-15.5,9.9-31.2,14.1-47c7.5-23.1,18.6-44.8,25.2-68.3c4.1-16.5,7.7-33,12.6-49.3
								c5.1-18.1,10.7-35.9,16-53.9c6.4-22.8,9.8-46.4,18.1-68.8c7.7-22.4,17.2-44.1,24.2-66.7c3.6-13.3,7.4-26.6,12-39.6
								c4.7-18.2,6.5-37.9,17.1-54c9.7-15.9,26.9-23,40.5-6.7c15.4,19.5,9.3,46.4,11.7,69.4c3.3,33.7,11.8,66.6,16.7,100
								c4.6,15.3,8.1,30.9,9.3,46.9c10.8-26.7,22.8-52.9,33.9-79.4c8-20.5,14.8-41.6,25.9-60.8c8.5-15.5,30.1-57.3,47.7-59.8
								c8.4-0.5,14.3,5.5,19.2,11.6c7.2,8.8,9,20.1,10.3,31.1c2.1,26.9,4.9,53.7,10.1,80.2c3.1,18.4,2.4,37.1,3,55.7
								c2.9,20.1,7.9,39.8,10.6,60c4.2,16.1,10.1,31.7,16.4,47c10.7-6.2,21.7-12,32.5-18.1c6.6-5,13-10.1,19.6-15
								c3.4-2.6,5.9-6.5,10.3-7.5c11.8-2.8,18.1,11.8,14.3,21.4c-6,21.7-24.3,37.5-42,50.2c-8.5,7.3-17,15-27.6,19.1
								c-14.5,5.8-32.8,1.5-41.6-11.8c-7.4-10.9-11.4-23.7-15.2-36.2c-7.2-21.2-10.7-43.3-12.3-65.6c-1.9-14.3-4.7-28.6-4-43.2
								c0.4-12.8,2-25.7,0.6-38.5c-2.3-16.7-6-33.1-7-50c-0.8-14.8,0.3-29.7-0.7-44.5c-11.6,18.5-20.5,38.6-30.4,58
								c-6.1,16.1-11,32.7-18.2,48.5c-10.8,26.6-22.3,52.9-32.8,79.7c-6.4,17.7-25.8,36.4-43.8,20.6c-16.4-16.2-15.9-41-20.2-62.2
								c-4-14-7.6-28.1-9.1-42.6c-5.4-34.4-13.1-68.9-12.3-103.9c-4.8,19.9-12.3,39.1-18,58.8c-7.2,20.3-15.8,40-22.9,60.3
								c-5.8,15.1-8.6,31.1-12.6,46.8c-8.7,32-20.6,62.9-29.6,94.8c-6.3,26-15.5,51.1-27.2,75.1c-7.8,14.5-14.3,29.5-20.4,44.8
								c-5.1,11.5-10.5,22.9-15.4,34.5c-4.6,11.2-13,20.4-23.1,26.9c-4.9,3.4-10.6,5.8-15.9,8.4
								C1012.6,654.9,995.3,664.2,995.7,658.9z"/>
						</g>
						<g id="g11274" transform="translate(1092.3203,973.6299)">
							<path id="path11276" d="M1701.4,639.2c-1.4-2-0.8-3.6,1.7-3.7c7.7-3,6.6-13.1,8.8-19.8c3.7-15.2,4.6-31,8.3-46.2
								c10.3-39.6,20.9-75,33.3-113.3c3.3-8.6,6.3-19,16-22.3c12.5-4,22.7,9.4,21.1,21.1c-1.6,8.7-6.2,16.6-8.3,25.3
								c-9.2,31.2-19.1,61.7-33,91.1c-6.4,14.2-9.5,29.9-19.1,42.6c-5.5,8.3-10.7,23.9-21.5,25.7c-1.7-0.2-3.3-0.9-5-1.2
								C1704.2,640,1701.9,640.9,1701.4,639.2z"/>
						</g>
						<g id="g11278" transform="translate(1096.1228,978.1776)">
							<path id="path11280" d="M1708.4,647.5c-10.6-0.5-13.9-13.6-12-22.4c0.2-2.2,3-1.4,2.8,0.6c-0.1,2.6-1.5,7.5,2.8,6.5
								c2.8-3.7,5.6-7.6,7.1-12c0.7-15.8,6.1-30.7,8.9-46.1c1.6-9.4,3.5-18.7,6-27.8c2.5-9.8,7-18.9,10.2-28.5
								c3.2-10.6,6.1-21.3,8.5-32.1c2.7-10.8,6-21.4,9.2-32c1.8-7,3.8-14.1,8.9-19.4c10.5-11.8,23.1-3.4,27.8,9
								c4.7,10.6,7.7,21.9,13,32.3c3.2,5.6,4.1,14.9,11.9,15.6c0,0,0,0,0,0c4.6-4.7,9.8-11,16.6-5.7c7.1,5.7,4.2,15.3,0.8,22.3
								c-6.1,14.5-26.1,15.7-37.1,6.2c-8.7-6.8-12.5-17.4-17.1-27.1c-3.9,24.4-8.2,48.9-17.3,72.1c-7.6,26.9-10.7,56.9-30.1,78.4
								C1724.2,643.5,1716.6,647.8,1708.4,647.5z"/>
						</g>
						<g id="g11282" transform="translate(1151.5903,927.6151)">
							<path id="path11284" d="M1810.2,554.7c-3.1-1.2-18.2-10.8-12.4-14.2c4.1-0.9,10,1.3,11.8-4.2c5.5-13.7,6.8-28.5,9.3-42.9
								c3.6-19.5,7.5-39,10.2-58.7c3-26.2,7-52.3,12.2-78.2c3.7-15.5,5.3-33.1,15.6-45.8c10.3-10.9,25.1-1.5,26.3,11.8
								c1.6,13.3-3.1,26.6-5.1,39.6c-4.7,24-8.8,48.1-12.9,72.3C1860.9,457.1,1840.5,561.2,1810.2,554.7z"/>
						</g>
						<g id="g11286" transform="translate(1238.8374,947.7144)">
							<path id="path11288" d="M1970.3,591.6c-26.5-1-53.2-7-76.6-19.5c-20.7-11.9-41.3-25.6-65.3-29.1
								c-18.8,14.6-37.8-5.5-28.2-25.1c1.4-2.8,3.4-4.9,5.7-6.5c8.8-9.5,16.8-19.6,25.6-29.1c43.1-48.4,87.4-96.2,123.9-149.9
								c-27.2,5-56.3,1.2-82-9c-16.9-6.2-31.3-17.5-48.3-23.1c-20.2-5.4-39.9-1.5-47.3,20.2c1.7,1.6-1.8,9.1-3.9,5.5
								c-0.5-6.8,1.1-14,1.8-20.9c2.1-8,7.7-14.6,13.8-19.9c37.5-30,66.7,1.6,105.5,4.5c20.1,1.5,40.4,1.2,60-4
								c11-3.1,21.6-7.1,32.2-11.3c5.5-2.2,11-4.3,16.5-6.2c6.3-3.7,14.2-3.8,19.9,0.9c9.9,7.5,11.2,24.2,3.9,33.8
								c-2.3,3.1-5.2,5.4-8.4,7.3c-3.5,3.6-6.1,7.8-8.9,12c-20.7,37-45,71.8-72.4,104.1c-25.2,29.9-50.7,59.6-78,87.7
								c21.4,7,40.1,20.5,61.7,26.9c54,13.8,90-0.5,135.1-29.3c7.6-4.6,15.2-9.1,22.8-13.6c8.6-5.2,19.8-0.3,24,8.4
								c5.4,10.1,3.7,24.7-5.6,31.9C2060.5,565.7,2018.4,593.4,1970.3,591.6z"/>
						</g>
					</g>
				</g>
			</g>
		</g>
		<g id="g11290" transform="matrix(0.35277777,0,0,0.35277777,-675.99707,-58.494593)">
			<g id="g11292">
				<g>
					<g id="g11294">
						<g id="g11300" transform="translate(1294.2114,937.7685)">
							<path id="path11302" d="M2071.8,573.4c-7.7-9.5-15-19.2-22.2-29.1c-18-27.5-29-60.8-26.5-93.8c1-7.6,9.9-5.1,10,1.6
								c-0.2,22.3,5.9,43.7,14.5,64.1c3.1,9.7,7.7,18.7,12.4,27.6c3.5,7.3,5.9,14.9,10.5,21.5c0.9,1.4,1.8,2.8,2.5,4.2
								c0.6,1.1,1.8,3.2,0.4,4.2C2072.9,574,2072.3,573.8,2071.8,573.4z"/>
						</g>
						<g id="g11304" transform="translate(1285.6694,926.4011)">
							<path id="path11306" d="M2056.2,552.5c-10.3-9.6-16.9-22.6-21.7-35.7c-2.3-6.4-14.7-39.7-3.8-40.6c2.5,0.2,4.5,2.9,4.4,5.3
								c-1.4,20.2,6.7,56.7,23.3,69.2c1.5-0.3,2.2,2.3,0.7,2.7C2058,553.8,2057,553.1,2056.2,552.5z"/>
						</g>
						<g id="g11308" transform="translate(1281.3457,924.5466)">
							<path id="path11310" d="M2048.2,549.1c-3.9-4.4-5.5-10.5-7.9-15.8c-4.8-11.8-8.8-23.2-10.2-35.6c0.2-4.2,5.3-5.6,7.6-2.1
								c1.6,2.5,3.3,6.1,1.3,8.9c0.4,13.8,3.6,27.3,9.1,40c0.7-1.5,2.6-0.2,2.3,1.1C2050.4,546.9,2050.4,550.3,2048.2,549.1z"/>
						</g>
						<g id="g11312" transform="translate(1278.9731,920.3098)">
							<path id="path11314" d="M2043.9,541.3c-1-0.3-1.3-1.4-1.7-2.2c-1.4-3.6-2.4-7.4-3.3-11.1c-2.2-9.2-3.5-18.7-4.5-28.2
								c-0.3-2.5-0.6-4.9-0.9-7.4c-0.1-0.8,0.3-1.7,1.1-1.8c1-0.1,1.6,0.9,1.7,1.8c0,2.3,0.2,4.5,0.4,6.8c1,10,2.4,19.9,4.7,29.6
								c0,0,0-0.1,0-0.1c0,0,0,0,0,0c0.7,2.8,1.5,5.5,2.3,8c0.2,0.5,0.4,1,0.6,1.5C2046.7,537.9,2046,542,2043.9,541.3z"/>
						</g>
						<g id="g11316" transform="translate(1275.2667,923.0247)">
							<path id="path11318" d="M2037.1,546.3c-3.7-6.6-8.3-34.6-0.7-38.7c5.2-1.4,7.3,5,7.9,9c2.5,0.7,4.2,3.5,4.2,6
								c0.1,6.2,0.1,12.5-0.1,18.7c-0.1,7.8-9.1,7-10.2,0.1c-0.5-6.1-1.8-12-2.8-18c-0.3,7.1,0.7,14.5,3.4,20.9
								C2040,545.8,2038.6,548.3,2037.1,546.3z"/>
						</g>
						<g id="g11320" transform="translate(1301.4424,943.6352)">
							<path id="path11322" d="M2085.1,584.1c-8.6-4.7-14.5-12.8-20.5-20.3c-16.3-20.7-31.4-43.2-39.5-68.5
								c-11-30.9-9.2-64.2-6.2-96.3c0.1-1.3,0.3-2.6,0.4-3.9c0-1.5-0.2-4.4,1.7-4.9c1.5-0.3,2.2,2.3,0.8,2.8
								c-0.3,1.2-0.1,2.4,0.1,3.6c5,23.5,7.9,47.4,15.7,70.2c4.2,12.1,10.4,23.3,16,34.8c11.1,24.4,28.3,44.9,42.8,67.2
								C2101.7,576.4,2094.9,589.8,2085.1,584.1z"/>
						</g>
						<g id="g11324" transform="translate(1354.1191,970.3999)">
							<path id="path11326" d="M2181.8,633.2c-9.5-0.9-19.1-1.1-28.6-2.7c-9.6-1.6-18.2-6.4-27.1-10.2
								c-17.4-6.1-34.8-12.8-49.9-23.7c-11.6-7.9-24.6-13.7-34.3-23.9c-8.5-7.6-18.4-13.3-27.9-19.5c-11.2-7.5-19.2-18.9-30.6-26.2
								c-14.5-7.2-31-9.7-47.1-7.9c-3.6,0.7-7.6,0.6-10.6,2.7c0.2,1.6-2.7,1.8-2.8,0.2c-0.1-1.8,2.2-2.9,3.5-3.4
								c9-3.3,18.5-4.5,27.9-6.5c9.1-1.4,18.3,0.9,27.2,2.8c14.3,2.6,24.4,13.6,35.8,21.8c17.4,10.3,35,20.2,52,31.1
								c16.4,7.4,31.3,17.8,48,24.7c23,9.7,47.8,11.8,72.4,13c10,1.4,26,0.2,27.6,13.5C2216.3,636.1,2193.9,634,2181.8,633.2z"/>
						</g>
					</g>
				</g>
			</g>
		</g>
		<g id="g12022" transform="translate(1.5875,3.1750001)">
			<g id="g11338" transform="matrix(0.35277777,0,0,0.35277777,-212.68369,247.74156)">
				<path id="path11340" d="M2115.2,462c-2-0.1-4-1.7-4.8-3.4c-0.6-1.2-1.2-2.4-1.4-3.7c-0.5-3.1-0.5-4.4-2.5-7.1
					c-1.9-0.7-3.7-1.6-5.3-2.8c-1.7-1.4-2.9-3.5-2.8-5.7c0-0.6,0.2-1.3,0.3-1.9c0-0.6-0.1-1.2-0.3-1.8c-0.5-1.4-1-2.7-1.4-4.2
					c-0.3-1.2-0.7-2.5,0-3.6c0.5-0.8,1.2-1.3,1.9-2c0.7-0.9,1.2-1.9,1.5-2.9c0.4-1.1,0.6-2.1,0.8-3.3c0.1-1.5-0.3-3.1-0.2-4.6
					c0-1.4,0.6-2.7,1-4.1c0.1-0.4,0.2-0.8,0.2-1.2c-0.1-0.5-0.2-1.1-0.3-1.6c-0.3-0.7-0.6-1.4-0.7-2.1c-0.1-1.1,0.1-2.1,0.4-3.1
					c0.3-0.9,0.6-1.9,1.2-2.7c0.4-0.5,1-0.8,1.6-1.2c0.6-0.5,1.1-0.9,1.6-1.5c0.9-1,1.8-2,2.8-2.8c0.7-0.6,1.7-0.4,2.3,0.1
					c0.7,0.5,1,1.5,0.6,2.3c-0.6,1.3-1.4,2.4-2.3,3.4c-0.9,1.1-2.1,1.9-3.2,2.7c-0.7,0.8-0.9,1.9-1.1,2.9c0.8,1.2,1.2,2.5,1.4,3.9
					c0.2,1.8-0.6,3.5-1.1,5.1c-0.1,0.5-0.1,1.1-0.1,1.6c0.1,1.5,0.3,3,0.1,4.5c-0.2,1.4-0.6,2.8-1.1,4.2c-0.3,1-0.8,1.9-1.4,2.8
					c-0.5,0.8-1.4,1.4-2.1,2.1c0.5,2.3,1.7,4.4,2,6.8c0.2,1,0,2-0.2,3c-0.1,0.7,0.3,1.5,0.9,1.9c0.8,0.6,1.7,1.1,2.6,1.5
					c0.9,0.4,1.9,0.6,2.7,1.3c1.1,1,1.9,2.3,2.7,3.6c1.2,2,1.4,4.4,1.7,6.7c0.1,0.5,0.3,1,0.5,1.5c0.2,0.6,0.4,1.2,1,1.6
					c0.9,0.6,1.9,1.2,2.2,2.3c0.2,0.2,0.3,0.5,0.1,0.7c-0.3,0.2-0.5,0.5-0.8,0.7C2115.9,462,2115.5,462,2115.2,462z"/>
			</g>
			<g id="g11342" transform="matrix(0.35277777,0,0,0.35277777,-214.14168,241.34965)">
				<path id="path11344" d="M2107.6,428.8c-0.6-0.2-0.6-0.9-0.7-1.4c-0.2-0.8-0.3-1.5-0.3-2.3c0.1-0.8,0.3-1.5,0.4-2.3
					c0.1-0.5,0.2-1,0.3-1.5c0.4-1,0.9-2,1.4-3c0.8-1.2,1.9-2.2,2.8-3.3c0.7-0.8,1.1-1.8,1.5-2.8c0.5-1.2,1.3-2.4,2.4-3.2
					c0.7-0.5,1.3-1.1,1.9-1.7c0.6-1.2,1.3-2.3,1.9-3.4c0.3-0.6,0.6-1.1,0.9-1.6c0.8-1,1.8-1.9,2.9-2.5c0.5-0.6,0.8-1.2,1.2-1.8
					c0.7-1,1.8-1.4,2.9-1.9c1-0.5,2.1-0.9,3.2-1.2c1.6-0.5,2.9-1.5,4.2-2.5c0.4-0.4,0.8-0.7,1.1-1.1c0.4-0.8,0.8-1.6,1.2-2.3
					c0.4-0.7,0.9-1.4,1.3-2.2c0.3-1.4,0.8-2.9,1.8-4.1c0.7-0.8,1.5-1.5,2.3-2.2c0.8-0.7,1.6-1.4,2.6-2c1-0.6,2.3-0.8,3.3-1.5
					c1.3-1,2.4-2.3,3.5-3.5c0.9-1.1,2.1-2.1,3.5-2.6c1.2-0.5,2.7-0.3,3,1.2c0.3,1.3-0.3,2.2-1.5,2.7c-1.6,0.6-1.9,1.5-2.9,2.7
					c-1.3,1.4-2.6,2.9-4.4,3.9c-1.1,0.5-2.3,0.8-3.3,1.4c-0.9,0.6-1.9,1.5-2.7,2.2c-0.4,0.3-0.8,0.7-1,1.1c-0.2,0.4-0.4,0.9-0.5,1.4
					c-0.3,1.8-1.6,3.3-2.3,5c-0.3,0.7-0.7,1.5-1.2,2.1c-0.5,0.5-1,1-1.5,1.5c-1.1,0.9-2.3,1.8-3.6,2.5c-0.9,0.4-1.9,0.8-2.8,1
					c-1.1,0.4-2.1,0.8-3.1,1.4c-0.6,0.8-1,1.7-1.8,2.4c-0.3,0.3-0.7,0.5-1.1,0.8c-0.4,0.3-0.8,0.6-1.1,1c-0.5,0.6-0.8,1.4-1.2,2
					c-0.4,0.7-0.8,1.3-1.2,2c-0.3,0.5-0.6,1.1-1,1.5c-0.9,1-2.1,1.7-3,2.6c-0.5,0.6-0.7,1.2-1.1,1.9c-0.4,0.8-0.9,1.6-1.6,2.2
					c-0.5,0.6-1.2,1-1.7,1.5c-0.7,0.5-1.5,0.9-2.1,1.5c-0.3,0.3-0.6,0.7-0.9,1c-0.7,0.8-1.2,1.6-1.6,2.6c-0.2,0.5-0.4,0.9-0.5,1.4
					c-0.1,0.6-0.1,1.1-0.1,1.7c0,0.4,0.1,0.8,0.2,1.2c0,0,0,0.1,0.1,0.1C2107.9,428.4,2107.8,428.8,2107.6,428.8z"/>
			</g>
			<g id="g11346" transform="matrix(0.35277777,0,0,0.35277777,-207.23997,234.83808)">
				<path id="path11348" d="M2143.5,394.9c-1-0.1-2-0.5-3-0.9c-1.3-0.6-2.6-1.2-4-1.5c-1.2,0-2.3,0.2-3.3,0.8
					c-0.4,0.2-0.9,0.4-1.2,0.8c0.4,0.1,0.7,0.1,1.1,0.1c0.1,0,0.1,0.2-0.1,0.2c-0.4,0-0.7,0-1.1-0.1c-0.1,0-0.2,0-0.2-0.1
					c0-0.1,0.1-0.2,0.1-0.3c0.4-0.6,0.8-1.1,1.2-1.6c0.4-0.5,0.9-1,1.4-1.4c0.6-0.5,1.4-0.8,2.2-1.1c1.2-0.5,2.5-0.2,3.6,0.1
					c1.2,0.3,2.4,0.7,3.6,1.3c0.5,0.2,1,0.2,1.5,0.2c1.4,0,2.8-0.2,4.3-0.3c1.7-0.3,3.4-0.9,5.2-0.6c3.9,0.5,2.3-0.9,5.8-1.6
					c1.6-0.4,3.3-0.6,5-0.5c1.3-0.1,2.6-0.2,3.9-0.2c0.9,0,1.9,0,2.8,0c0.9,0,2.3-0.2,2.3,1c-0.2,2.1-3.2,1.8-4.7,1.8
					c-1.5,0-3.1,0.1-4.6,0.2c-1.8,0-3.7,0-5.4,0.7c-0.5,0.3-0.8,0.8-1.4,1.1c-0.8,0.5-1.8,0.7-2.7,0.8c-0.9,0.1-1.9-0.1-2.8-0.1
					c-1.2,0.2-2.4,0.7-3.6,0.9C2147.5,394.8,2145.5,395,2143.5,394.9z"/>
			</g>
			<g id="g11350" transform="matrix(0.35277777,0,0,0.35277777,-198.27289,237.36883)">
				<path id="path11352" d="M2190.1,408.1c-1.9,0-3.6-0.9-5.1-1.9c-0.6-0.4-1.1-0.8-1.8-1.1c-3.2-0.6-5.5-1.4-7.4-4.1
					c-0.5-0.5-1.1-0.8-1.8-1c-0.4,0-0.8,0.1-1.1,0.1c-1.2,0.2-2.5,0.2-3.7-0.1c-1-0.3-2-1-2.6-1.9c-0.2-0.4-0.4-0.8-0.8-1
					c-0.7-0.2-1.5-0.2-2.2-0.5c-1.7-0.6-2.9-2-2.2-3.8c0.3-0.8,1-1.4,1.6-2c0.4-0.4,0.7-0.8,1.1-1.1c0.1-0.6-0.2-1.1-0.4-1.6
					c-0.1-0.3-0.2-0.6-0.3-0.8c-0.6-1.5,0.4-2.6,1.9-3c0,0,0-0.1,0-0.1c-0.1-0.2-0.2-0.3-0.2-0.5c-0.2-0.1-0.5-0.2-0.7-0.2
					c-0.5,0.2-1.1,0.3-1.7,0.3c-1.7,0.1-3.2-0.3-4.9-0.6c-1.3,0.8-2.9,1.4-4.5,1.6c-1.2,0.1-2.3-0.4-3.4-0.4
					c-2.8,0.3-5.8,0.6-8.6-0.1c-0.9-0.2-1.7-0.2-2.6-0.2c-0.8,0.1-1.6,0.3-2.4,0.5c-1.2,0.6-2.4,1.3-3.7,1.5
					c-0.8,0.2-1.7,0.1-2.6,0.3c-0.8,0.1-1.7,0.3-2.2,0.3c-3.3,0.6-6.6,1.7-10,0.9c-0.9-0.2-1.8-0.4-2.7-0.7
					c-0.5-0.2-0.9-0.4-1.3-0.6c-0.2-0.1-0.4-0.3-0.7-0.4c-0.2-0.1-0.5-0.1-0.7-0.1c-1.5-0.2-3,0.4-4.3,1c-1.4,0.9-2.8,1.9-4.4,2.5
					c-0.3,0.1-0.5,0.2-0.7,0.3c-0.1,0.1-0.2,0.1-0.2,0.3c0.1,0.2-0.3,0.3-0.4,0.1c-0.3-0.6,1.3-1.3,1.7-1.7c0.6-0.4,1.1-0.8,1.5-1.3
					c0.4-0.6,0.7-1.2,1.3-1.7c0.9-0.8,2-1.5,3.1-2c1.7-0.7,3.6-0.9,5.4-0.4c0.4,0.1,0.9,0.3,1.3,0.5c1.1,0.3,2.3,0.5,3.4,0.7
					c2.2,0.1,4.4-0.6,6.6-1c1.4-0.2,2.8-0.5,4.2-0.6c0.5-0.1,1,0,1.5-0.2c0.7-0.3,1.3-0.7,2-1c1.3-0.5,2.6-0.8,4-1
					c1.2-0.1,2.4,0,3.6,0.1c1.3,0.2,2.6,0.5,3.9,0.5c1.2,0,2.4-0.2,3.5-0.2c1.5-0.1,2.9,0.2,4.3,0.6c0.5-0.1,1-0.2,1.5-0.3
					c0.6-0.2,1.2-0.5,1.9-0.6c1.4-0.3,2.7,0.4,4.1,0.7c0.6,0.1,1.2,0.1,1.9,0.1c0.6,0,1.1-0.3,1.7-0.2c0.9,0.1,1.8,0.4,2.5,0.9
					c1.3,1.4,1.8,3.4,0,4.7c0.6,1.2,1,2.2,0.7,3.6c-0.1,0.8-0.7,1.6-1.2,2.1c-0.4,0.4-0.8,0.8-1.2,1.2c1,0.4,2.3,0.4,3.2,1.1
					c0.6,0.4,1.1,1,1.6,1.6c1,1,2.4,0.2,3.6,0.1c1.6-0.2,3.1,0.4,4.4,1.2c0.9,0.5,1.5,1.3,2,2.1c1,1.2,2.6,1.5,4.1,1.7
					c2.3,0.4,3.8,2.5,6.1,3c0,0,0.1-0.1,0.1-0.1c0.1-0.4,0.1-0.7,0.2-1.1c0.2-0.9,0.8-1.8,1.3-2.6c1.1-1.5,2.9-2.1,4.7-2.4
					c1.6-0.6,3.3-1,5-0.5c0.9,0.1,1.9,0,2.8,0.2c1.3,0.4,1.4,1.8,0.6,2.7c-0.8,0.9-2.2,1.1-3.4,1.1c-0.8,0-1.7-0.2-2.5-0.2
					c-1.1,0.2-2,0.6-3.1,0.8c-0.2,0-0.4,0.2-0.5,0.4c-0.1,0.3-0.3,0.5-0.4,0.8c-0.1,0.4-0.1,0.8-0.2,1.2c-0.2,1.1-0.9,1.9-1.7,2.5
					C2192.7,407.7,2191.4,408.2,2190.1,408.1z"/>
			</g>
			<g id="g11354" transform="matrix(0.35277777,0,0,0.35277777,-191.77878,239.00879)">
				<path id="path11356" d="M2223.9,416.6c-1.7-2.4-2.5-4.2-0.8-6.9c0.5-0.9,0.9-1.8,1.6-2.6c0.1-1-0.1-2.3-0.3-3.1
					c-0.2-0.9-0.4-1.8-0.9-2.6c-0.5-0.7-1.2-1.5-2.1-1.2c-0.4,0.1-0.9,0.1-1.3,0c-1-0.1-2-0.1-3.1-0.1c-1.1,0.1-2.2,0.2-3.3-0.1
					c-0.8-0.2-1.7-0.5-2.5-0.7c-0.6-0.1-1.3,0.3-1.9,0.4c-0.8,0.3-1.5,0.5-2.3,0.7c-0.9,0.2-1.8,0.2-2.6,0.2c-1.4,0-2.8,0-4.2-0.4
					c-1.1-0.4-2.1-0.9-3.2-1.5c-0.6-0.3-1.1-0.6-1.7-0.8c-0.5-0.1-1.1-0.1-1.6-0.2c-1.4-0.1-2.8-0.1-4.1-0.2
					c-0.7-0.1-1.4-0.2-2.1-0.5c-1.4-0.5-2.8-1.1-4.2-1.7c-0.9-0.4-1.9-0.5-2.8-0.4c-0.8,0-1.5,0.3-2.1,0.8c-1.1,1-2.6,1.5-3.8,2.4
					c0.1,0.3-0.2,0.5-0.5,0.6c-0.2,0.1-0.7,0-0.6-0.3c0.3-0.4,0.7-0.8,1-1.2c0.6-0.7,1.2-1.3,1.7-2c0.5-0.7,0.9-1.3,1.5-1.8
					c1.5-1.2,3.5-1.7,5.4-1.6c2.4,0.2,4.6,1.2,6.9,1.9c1,0.2,2.1,0.1,3.2,0.1c1.2,0.1,2.5,0.2,3.7,0.3c1.9,0.4,3.4,1.6,5.2,2.3
					c1.2,0.4,2.5,0.2,3.7,0.3c0.8,0,1.6-0.3,2.4-0.6c3.1-1.2,4.1-0.9,7.1,0c0.6,0.2,1.2,0,1.9,0c0.5,0,1.1,0,1.6,0
					c0.8,0,1.6,0,2.3,0.1c0.6-0.2,1.3-0.2,1.9-0.1c1.7,0.3,3.2,1.1,4.2,2.5c1.1,1.5,1.4,3.3,1.8,5.1c0.2,0.9,0.2,1.9,0.1,2.8
					c0,1-0.6,1.9-1.2,2.7c-0.2,0.3-0.4,0.7-0.5,1c-0.2,0.6-1,1.2-0.6,1.9c0.4,1.1,1.4,2.5,0.8,3.7
					C2226.9,417.2,2224.9,417.8,2223.9,416.6z"/>
			</g>
			<g id="g11358" transform="matrix(0.35277777,0,0,0.35277777,-186.62622,246.07574)">
				<path id="path11360" d="M2250.7,453.4c-2.1-0.2-3.6-1.7-4.9-3.1c-0.8-1-1.2-2.2-1.8-3.3c-0.3-0.7-0.8-1.4-1.2-2.1
					c-0.6-1.1-1.3-2.1-2-3.2c-0.4-0.4-0.9-0.6-1.3-1c-0.8-0.7-1.8-1.2-2.8-1.9c-0.7-0.5-1.4-0.9-2.1-1.4c-1.6-0.8-3.2-1.9-4.3-3.4
					c-1.1-1.5-2.2-3.1-2.6-4.9c-0.1-0.5-0.1-1.1-0.2-1.6c-0.1-1.1-0.9-2-1.7-2.7c-2.5-2-4-4.6-5.1-7.5c-0.4-0.8-0.7-1.6-1-2.4
					c-0.4-1.2-0.6-2.4-1.1-3.6c-1-1.3-2.1-2.6-3.4-3.7c-1.2-1.2-1.6-2.8-2.1-4.4c-0.4-1-1-1.8-1.2-2.9c-0.3-0.9-0.3-1.9-0.6-2.7
					c-0.2-0.4-0.5-0.8-0.7-1.2c-0.5-0.7-1.1-1.3-1.3-2.1c-0.3-1,0-2,0.3-2.9c0.2-0.7,0.1-1.4,0.3-2.2c0.3-1.1,0.9-2.2,1.3-3.2
					c0.2-0.5,0.4-1,0.4-1.6c0-0.6-0.2-1.1-0.5-1.6c-0.2-0.2-0.4-0.5-0.3-0.8c0.1-0.3,0.7,0,0.4,0.3c1.2,1.3,1.1,3.1,0.7,4.7
					c-0.2,1.1-0.6,2.3-0.4,3.5c0.1,0.9,0.3,1.8,0.3,2.6c0,0.2,0.1,0.4,0.3,0.6c0.8,0.7,1.5,1.4,2.1,2.2c0.9,1,1.2,2.3,1.5,3.6
					c0.2,0.6,0.5,1.2,0.9,1.8c0.7,1.1,0.9,2.4,1.4,3.6c0.2,0.5,0.8,0.9,1.2,1.3c1,1,1.9,2.1,2.8,3.2c1,1.3,1.3,3,1.7,4.6
					c0.2,0.7,0.5,1.5,0.8,2.2c0.5,1.3,1.1,2.7,1.9,3.9c0.3,0.4,0.6,0.9,1,1.2c0.4,0.3,0.8,0.7,1.1,1c1.3,1.1,2.3,2.4,2.9,4
					c0.4,0.9,0.4,1.8,0.4,2.7c0,0.3,0.2,0.6,0.3,0.9c0.5,0.9,1,1.8,1.7,2.6c0.9,1.1,2.3,1.5,3.4,2.3c1.1,0.7,2.2,1.4,3.3,2.1
					c0.6,0.4,1.1,0.8,1.6,1.3c0.6,0.4,1.3,0.9,1.7,1.5c0.4,0.5,0.7,1.1,1.1,1.6c0.8,1.3,1.6,2.5,2.4,3.8c0.5,1,0.9,2.1,1.5,3
					c0.4,0.4,0.8,0.7,1.2,1.1c1.2,0,2.4-0.1,3.6-0.2c0.5,0,1.1,0,1.6,0c0.7-0.1,1.4-0.5,2.1-0.8c0.8-0.3,1.6-0.3,2.4-0.3
					c0.8,0.1,1.6,0.1,2.4-0.1c1-0.3,2-0.6,3-0.7c0.6-0.1,1.2-0.4,1.8-0.6c2.2-0.7,2.8-1.4,5.4-1c1.1,0.2,2.4,0.7,2.7,1.9
					c0.1,0.6-0.2,1.4-0.8,1.6c-0.9,0.4-1.8,0.3-2.7,0.3c-0.4,0.2-0.9,0.4-1.3,0.5c-1.5,0.5-3,1.1-4.6,1.3c-0.9,0.2-1.7,0.5-2.6,0.6
					c-0.8,0.1-1.6,0.1-2.4,0.1c-0.3,0-0.6-0.1-0.9,0c-0.6,0.2-1.2,0.5-1.8,0.7c-1,0.4-2,0.4-3,0.3
					C2253.8,453.2,2252.3,453.5,2250.7,453.4z"/>
			</g>
			<g id="g11362" transform="matrix(0.35277777,0,0,0.35277777,-184.39634,248.251)">
				<path id="path11364" d="M2262.3,464.7c-1.6-1.1-0.8-2.8-0.1-4.2c0.9-1.8,1.9-3.5,3.1-5.1c0.4-0.6,0.4-1.4,0.5-2.2
					c0.2-1.8,0.4-3.6,1.2-5.2c0.6-1.4,1.9-3.7,1.4-5.2c-1.5,0-2.1-0.1-3.3-1.1c-0.1,0.3-0.5,0.2-0.6-0.1c0-0.2-0.1-0.5,0.1-0.7
					c0.3-0.2,0.6-0.4,0.8-0.7c0.3-0.4,0.7-0.7,1.2-0.9c2.2-0.9,4-0.2,5.1,1.8c1.9,3.1,0.4,6.7-1.1,9.6c-0.9,2.2-0.5,4.9-1.8,7
					c-1,1.3-1.9,2.7-2.7,4.1c-0.5,0.9-1,1.9-1.7,2.7C2263.9,465.2,2262.9,465.2,2262.3,464.7z"/>
			</g>
			<g id="g11366" transform="matrix(0.35277777,0,0,0.35277777,-188.90625,254.22794)">
				<path id="path11368" d="M2238.8,495.8c-1.1-1.2-1.3-2.7-0.9-4.2c0.1-0.7,0.1-1.4,0.2-2.1c0.5-3,0.4-4.8,2.4-7.3
					c0.6-0.8,1.1-1.7,1.8-2.4c0.9-1,1.9-1.9,2.9-2.8c0.4-0.4,0.8-0.9,1-1.4c1.1-2.7,1.6-4.9,4.4-6.4c0.9-0.5,1.7-1,2.6-1.5
					c1.5-0.8,3.1-1.4,4.3-2.6c1.8-2,3.2-4.2,4.8-6.3c0.9-1.1,2.1-2.1,3.1-3.2c0.7-0.7,1.3-1.5,2-2.2c1.1-1.3,2.6-2,3.9-3.2
					c0.9-1,1.8-2,2.5-3c0.4-0.7,0.6-1.5,0.9-2.2c0.6-1.4,1.6-2.6,2.7-3.6c0.7-0.7,1.8-1,2.5-1.7c1.1-1.1,1.5-3.2,1.5-4.7
					c-0.5-0.3,0-1.4,0.5-0.8c0.2,0.3,0.2,0.7,0.2,1c0.1,1.2-0.1,2.5-0.3,3.7c-0.2,1.5-1.2,2.9-2.2,4c-0.6,0.8-1.2,1.6-1.5,2.5
					c-0.3,1-0.5,2.1-0.9,3.1c-0.5,1.2-1.3,2.3-2.2,3.3c-0.9,1.1-1.8,2.1-3,2.9c-0.5,0.4-1.1,0.7-1.5,1.2c-1.3,1.4-2.6,2.9-4,4.3
					c-0.7,0.7-1.5,1.4-2,2.3c-0.8,1.2-1.6,2.3-2.5,3.4c-0.9,1.1-1.7,2.3-2.9,3.2c-1.1,0.8-2.3,1.4-3.5,2.1c-0.7,0.3-1.3,0.7-2,1
					c-0.9,0.6-1.9,1-2.6,1.8c-0.7,1.3-1.1,2.8-1.9,4.1c-0.4,0.7-1,1.4-1.6,2c-1,1-2.1,1.9-3,2.9c-0.7,1-1.5,1.9-2,3
					c-0.3,1.3-0.5,2.6-0.6,3.9c0,0.8-0.1,1.7-0.3,2.5c0.3,0.6,0.6,1.1,0.5,1.8C2242.1,495.7,2240.1,497.1,2238.8,495.8z"/>
			</g>
			<g id="g11370" transform="matrix(0.35277777,0,0,0.35277777,-192.16571,262.71881)">
				<path id="path11372" d="M2221.9,539.9c-0.4-0.3-0.6-0.9-0.4-1.4c0.3-0.9,0.7-1.7,1.4-2.4c0.7-0.8,1.5-1.4,2.4-1.9
					c0.7-0.4,1.4-0.7,2.1-1.1c1.1-1,2.3-2,3.3-3.1c0.4-0.5,0.3-1.2,0.3-1.8c0-0.4,0.1-0.8,0.1-1.1c-0.1-0.7-0.3-1.5-0.4-1.9
					c-0.3-0.9-0.5-1.9-0.8-2.8c-1.2-3.6,0.3-6.8,3.3-9.1c0.9-0.8,1.8-1.7,2.8-2.5c1-0.8,2.2-1.4,3.3-2.1c0.5-0.4,1-0.9,1.5-1.3
					c0.6-0.5,1.3-0.9,2-1.2c0.9-0.5,1.7-1,2.5-1.5c0.9-0.8,1.8-1.6,2.8-2.4c1.7-1.1,3.1-2.7,4.1-4.4c0.4-0.9,0.6-1.9,0.7-2.9
					c0-0.7,0.1-1.5-0.1-2.2c-0.3-1.1-0.7-2.3-0.8-3.4c-0.1-0.5-0.1-1.1-0.1-1.6c0-0.8,0.3-1.6,0.1-2.4c-0.4-0.6-0.9-1.2-1.2-1.8
					c-0.5-0.8-1-1.6-1.1-2.5c-0.1-0.6-0.2-1.2-0.3-1.8c-0.2-0.5-0.5-1-0.7-1.5c-0.2-0.5-0.3-1-0.4-1.5c-0.3-1.1-0.2-2.3-0.2-3.5
					c0-0.5-0.1-0.9-0.1-1.4c0.1-1.6,0.5-3.2,0.9-4.7c0.1-1,0.4-2,0.7-3c0.3-0.9,0.7-1.7,1.3-2.4c0.7-0.7,1.4-1.5,2-2.2
					c0.9-1.1,1.7-2.4,2.1-3.8c0-0.2-0.1-0.3-0.1-0.4c0-0.1,0.2-0.2,0.2,0c0.1,0.2,0.2,0.4,0.2,0.7c0,0.7-0.3,1.3-0.4,1.9
					c-0.2,0.7-0.4,1.4-0.7,2c-0.4,1-0.5,2.1-0.9,3.1c-0.2,0.5-0.4,0.9-0.6,1.4c-0.5,1.5-0.1,3-0.4,4.5c-0.2,1-0.4,1.9-0.5,2.9
					c-0.1,0.8,0.1,1.5,0.1,2.3c0,0.6,0,1.2,0,1.7c0.1,0.8,0.5,1.6,0.8,2.3c0.5,1,0.5,2.1,0.8,3.1c0.5,0.9,1.3,1.8,1.8,2.7
					c0.5,1,0.7,2.2,0.7,3.3c0,0.6-0.1,1.2-0.1,1.8c0.1,0.7,0.2,1.4,0.4,2c0.7,1.8,0.8,3.7,0.6,5.5c-0.2,2.8-1,4.7-2.8,6.9
					c-1,1.2-2,2.3-3.3,3.1c-1,0.8-1.9,1.7-2.9,2.5c-1.1,0.8-2.4,1.5-3.6,2.2c-0.7,0.4-1.3,0.9-1.9,1.4c-0.8,0.7-1.7,1.3-2.7,1.8
					c-1.1,0.7-2,1.5-2.9,2.4c-0.7,0.6-1.3,1.2-2,1.8c-0.7,0.7-1.3,1.5-1.2,2.5c0.1,0.6,0.3,1.2,0.4,1.8c0.5,2.2,1.4,4.3,1,6.6
					c0.1,2.9-1.1,4.4-3.2,6.3c-1,0.8-1.9,1.7-3.1,2.1c-0.5,0.2-1.1,0.4-1.6,0.5c-0.7,0.3-1.5,0.5-2.2,0.8
					C2223.6,539,2223.1,540.8,2221.9,539.9z"/>
			</g>
			<g id="g11374" transform="matrix(0.35277777,0,0,0.35277777,-197.84949,266.73039)">
				<path id="path11376" d="M2192.3,560.8c-1.5-0.1-3-0.3-4.3-0.9c-0.8-0.5-1.5-1.2-2.1-1.8c-1.7-1.6-2.5-4.1-1.9-6.3
					c0.2-0.7,0.6-1.4,0.8-2.1c0-0.4-0.1-0.8-0.2-1.1c-0.5-1.5-1.1-3.8,0.7-4.6c1.4-0.6,2,0.8,2.5,1.8c0.6,1,0.9,2.2,0.9,3.4
					c0,0.8-0.2,1.7-0.5,2.4c-0.2,0.5-0.6,1.1-0.5,1.7c0.2,0.7,0.7,1.3,1.2,1.8c0.3,0.3,0.6,0.5,0.9,0.8c0.5,0.2,1,0.3,1.5,0.4
					c2,0.4,3.9-0.5,5.8-1c0.9-0.2,1.8-0.4,2.7-0.3c1,0.1,2.1,0.2,3.1,0.1c1.8-0.4,3.5-1,5.2-1.5c1.8-0.5,3.7-0.7,5.5-1.2
					c0.7-0.2,1.4-0.4,2.1-0.5c0.9-0.3,1.9-0.4,2.7-0.9c1.6-1.3,3.2-2.7,4.6-4.2c0.9-1.1,1.7-2.1,2.4-2.9c0.7-0.8,1.4-1.7,2-2.6
					c0.4-0.6,0.7-1.2,1.2-1.7c1-1.1,2.3-1.9,3.3-3c1.2-1.5,1.8-3.4,2.6-5.1c0.7-1.2,1.3-2.4,2-3.6c1.1-1.6,2.2-3.4,4.1-4.3
					c1.8-1,3.5-1.9,5.3-2.7c0.7-0.4,1.4-0.9,1.9-1.5c0.5-0.7,0.9-1.2,1.2-1.9c0.2-0.4,0.3-0.9,0.2-1.3c-0.1-0.5-0.4-1-0.7-1.4
					c-0.2-0.2-0.3-0.6,0.1-0.6c0.1,0,0.2,0.2,0.1,0.3c0.6,0.8,1.4,1.6,1.3,2.6c0,0.5-0.2,0.9-0.4,1.4c-0.4,0.9-0.9,1.8-1.5,2.7
					c-1,1.4-2.6,2.1-3.9,3.1c-0.7,0.4-1.3,0.9-2,1.4c-0.7,0.5-1.4,0.9-1.9,1.6c-0.6,1.1-1.1,2.3-1.5,3.4c-0.3,1-0.8,1.9-1.2,2.8
					c-0.7,2.1-1.6,4.2-3,6c-1.1,1.3-2.5,2.2-3.7,3.4c-0.9,1.5-2.1,2.9-3.3,4.3c-1.2,1.4-2.3,3-3.8,4.3c-1.5,1.4-2.9,2.9-4.8,3.9
					c-1.3,0.6-2.7,0.8-4.1,1.2c-1.8,0.5-3.7,0.8-5.5,1.2c-2.2,0.5-4.4,1.4-6.6,1.8c-1.4,0.3-2.9,0.2-4.3,0c-1.1,0.1-2.1,0.5-3.1,0.8
					C2194.7,560.5,2193.5,560.8,2192.3,560.8z"/>
			</g>
			<g id="g11378" transform="matrix(0.35277777,0,0,0.35277777,-210.69917,249.06589)">
				<path id="path11380" d="M2125.5,468.9c-1.3-0.3-2.4-1-3.6-1.6c-1.7-1-3.1-2.3-4.7-3.4c-0.7-0.5-1.3-0.9-2-1.3
					c-0.8-0.4-1.6-0.9-2.3-1.5c-0.7-0.7-1.3-1.5-1.8-2.3c-0.7-0.6-1.6-0.9-2.3-1.6c-0.6-0.3-1-0.7-1.4-1.1c-0.4-0.4-0.8-0.7-1.1-1.2
					c-0.1-0.2-0.3-0.4-0.1-0.6c0.1-0.1,0.3,0,0.3,0.1c0.5,0.6,1.2,1,2,1c0.1,0,0.2,0,0.3-0.1c0.6-0.5,1.4-0.5,2.1-0.2
					c1.1,0.4,2.3,0.8,3.3,1.5c0.6,0.5,1,1.3,1.6,1.9c0.7,0.5,1.5,0.8,2.2,1.3c1.1,0.7,2.2,1.4,3.2,2.1c0.9,0.7,1.8,1.4,2.8,2
					c0.7,0.4,1.4,0.8,2.1,1.1c0.5,0.1,1.1,0.1,1.6,0c0.8-0.3,1.6-0.8,2.3-1.2c1.3-0.7,2.6-1.4,4-2c2.1-0.7,4.5-0.5,6.6,0.1
					c1.8,0.4,3.6,1,5.4,1.2c0.7,0,1.4-0.1,2.1-0.2c1.2-0.2,2.5-0.4,3.6-0.9c1.4-0.7,2.9-1.3,4.3-1.9c1.6-0.6,3-1,4.5-1.5
					c1.5-0.3,3.2-1,4.6-0.1c1.2,0.7,1.5,2.5,0,3.1c-0.8,0.3-1.6,0.4-2.5,0.7c-1.3,0.3-2.5,0.7-3.8,1.2c-1.2,0.4-2.3,1-3.5,1.5
					c-0.4,0.2-0.8,0.4-1.2,0.6c-1.9,0.9-3.9,1.1-5.9,1.4c-2.5,0.3-5-0.5-7.5-1c-1.4-0.4-2.8-0.8-4.3-0.5c-0.6,0.1-1.1,0.4-1.6,0.7
					c-1.5,0.7-2.9,1.6-4.5,2.3C2128.9,469.2,2127.1,469.2,2125.5,468.9z"/>
			</g>
			<g id="g11382" transform="matrix(0.35277777,0,0,0.35277777,-204.07605,249.25928)">
				<path id="path11384" d="M2159.9,469.9c-1.4-0.4-2.9-1.1-4-2.1c-1-1.2-1.8-2.6-2.2-4.1c-0.3-1.4-0.1-1.5-1.6-1.9
					c-0.9-0.2-1.7-0.4-2.6-0.4c-0.9,0-1.7,0-2.6,0.1c-1,0.1-1.9,0.4-2.9,0.6c-0.7,0.1-1.4,0.2-2.1,0.2c-0.6,0-1.3,0-1.9,0
					c-1.1,0-2.1-0.2-3.2,0c-0.1,0.4-0.8,0.1-0.7-0.2c0-0.2,0.3-0.2,0.4-0.3c0.6-0.2,1.2-0.7,1.8-0.9c0.5-0.3,1-0.7,1.5-1
					c1.3-0.6,2.6-1.2,3.9-1.6c1-0.4,2.1-0.5,3.2-0.6c1.1-0.1,2.3-0.1,3.4,0.1c2.3,0.4,4.8,0.8,6.5,2.5c1,0.9,1.2,2.2,1.5,3.5
					c0.2,0.8,0.7,1.4,1.1,2.1c0.5,0.3,1,0.7,1.6,0.6c1.8-0.1,3.5-0.9,5.3-0.9c2.1,0,5.1,0.8,5.3,3.3c0,1-1,1.6-1.9,1.5
					c-0.9-0.1-1.5-0.7-2.3-0.8c-0.8-0.1-1.5,0.2-2.2,0.3C2163.5,469.9,2161.7,470.4,2159.9,469.9z"/>
			</g>
			<g id="g11386" transform="matrix(0.35277777,0,0,0.35277777,-200.82584,256.13566)">
				<path id="path11388" d="M2176.8,505.7c-0.8-1.4-1.1-3-1.7-4.4c-0.7-1.2-1.2-2.4-1.4-3.7c-0.2-1.2,0-2.4,0.1-3.6
					c0.1-1.2,0-2.4-0.6-3.5c-1.4-2.6-2.7-5.3-4.1-8c-0.8-1.7-2.1-3.2-3.5-4.5c-1.4-1.2-2.8-2.4-4-3.7c-2.1-2.5-3.9-5.4-4.1-8.6
					c0-1.1,0.1-2.2,0.6-3.1c0.7-1.6,1.5-3.2,2.1-4.8c0.3-0.9,0.5-1.8,0.5-2.7c-0.3-1.5-0.8-3-1.5-4.4c-0.2-0.4-0.4-0.7-0.6-1.1
					c-0.2-0.4-0.6-1-0.2-1.4c0,0,0,0,0,0c-0.1,0-0.1-0.1-0.1-0.2c0-0.1,0.1-0.1,0.1-0.1c0.1,0,0.1,0.1,0.2,0.2
					c0.8-0.3,1.8,0.5,2.5,0.9c1,0.6,1.7,1.5,2.2,2.5c0.8,1.5,1.5,3.1,1.3,4.9c-0.2,2.6-1.3,5-2.3,7.3c-0.3,0.7-0.8,1.4-0.8,2.2
					c0,0.5,0.1,0.9,0.2,1.4c0.3,0.7,0.5,1.4,0.9,2c0.5,0.7,0.9,1.4,1.5,2.1c1.1,1.2,2.3,2.2,3.5,3.3c1.2,1.1,2.2,2.2,3.2,3.4
					c0.9,1.1,1.5,2.4,2.2,3.7c0.8,1.5,1.5,3,2.3,4.5c0.8,1.7,1.9,3.3,2.3,5.1c0.4,1.5,0.3,3,0.2,4.5c-0.1,0.5-0.2,1-0.1,1.5
					c0,0.9,0.6,1.7,1,2.6c0.5,1.2,1,2.4,1.2,3.7c0.1,0.8,0.1,1.7-0.2,2.5C2179.1,507,2177.4,506.8,2176.8,505.7z"/>
			</g>
			<g id="g11390" transform="matrix(0.35277777,0,0,0.35277777,-198.85025,265.07431)">
				<path id="path11392" d="M2187.1,552.2c-0.3-0.5-0.4-1-0.5-1.5c-0.2-0.6-0.6-1.2-0.8-1.8c-0.5-1.4-1.4-2.7-2.1-4.1
					c-0.8-1.1-1.8-2.1-2.5-3.3c-0.7-1.2-0.9-2.6-1.4-3.8c-1-2.1-2.6-3.8-3.6-5.9c-0.7-1.3-1.5-2.6-1.9-4c-0.4-1.4-0.6-2.9-0.8-4.4
					c-0.2-1.3-0.5-2.6-0.7-3.9c-0.3-1.1-0.6-2.2-0.8-3.4c-0.1-0.7-0.4-1.4-0.8-2c-1.1-1.5-2.3-2.8-3.4-4.3c-1.2-1.6-2.3-3.2-3-5.1
					c-0.7-2-1.2-4.2-1.2-6.3c0-1.9-0.2-3.8,0.1-5.7c0.5-3,1.8-5.9,3.6-8.4c1-1.3,2.1-2.6,2.7-4.2c0.3-1.3,0.2-2.6,0-3.9
					c-0.1-0.5-0.1-1.1-0.1-1.6c0-0.7,0-1.3,0.2-2c0.2-0.5,0.4-0.9,0.6-1.3c0-0.1,0.2-0.3,0.3-0.1c0.1,0.1,0.1,0.2,0,0.4
					c-0.2,0.5-0.4,1-0.2,1.5c0.4,0.5,0.9,0.8,1.4,1.3c0.8,1,1.2,2.2,1.5,3.4c0.4,2.2,0.1,4.4-1.2,6.3c-1.5,2.4-3.5,4.6-4.3,7.3
					c-0.3,0.9-0.6,1.9-0.7,2.9c0,0.7,0,1.5,0,2.2c0,1.4,0,2.9,0.3,4.3c0.8,4.4,4.2,7.2,6.7,10.8c0.6,0.9,1.1,2,1.3,3.1
					c0.1,0.7,0.2,1.3,0.4,2c0.6,2.1,0.8,4.3,1.3,6.5c0.3,1.4,0.3,2.9,0.9,4.2c0.8,1.4,1.4,2.8,2.3,4.2c1.1,1.8,2.5,3.6,3.1,5.7
					c0.2,0.6,0.3,1.2,0.6,1.8c0.2,0.4,0.5,0.8,0.8,1.2c1.1,1.1,1.9,2.3,2.6,3.6c0.8,1.2,1.3,2.5,1.9,3.8c0.6,1.1,1,2.2,1,3.4
					c0,1-0.5,2.1-1.6,2.3C2188.2,553.2,2187.5,552.8,2187.1,552.2z"/>
			</g>
			<g id="g11394" transform="matrix(0.35277777,0,0,0.35277777,-186.89256,262.8795)">
				<path id="path11396" d="M2249.3,540.7c-1.1-0.1-1.9-0.7-2.8-1.3c-0.6-0.4-1.3-0.8-1.8-1.4c-1.5-1.9-1.4-4.4-1.3-6.6
					c0-1.3-0.7-2.5-0.9-3.7c-0.5-2.8,0.8-5.4,2.1-7.8c0.4-0.8,1.1-1.4,1.5-2.2c0.5-1.3-0.1-2.6-0.5-3.9c-0.7-2.6-0.3-5.8,0.8-8.2
					c0.2-0.5,0.5-0.9,0.8-1.4c0.9-1.3,1.9-2.6,3.4-3.3c0.6-0.3,1.3-0.6,2-0.8c0.8-0.4,1.7-0.8,2.5-1.2c0.9-0.4,2-0.6,2.8-1
					c1.7-1.2,3.4-2.4,4.9-3.9c0.4-0.4,0.7-0.8,1-1.3c0.3-0.6,0.5-1.3,0.9-1.8c0.4-0.5,0.9-1,1.4-1.4c0.4-1.3,1.5-2.4,2.8-2.8
					c1.7-0.6,2.8-0.3,4.3,0.6c1.4,0.8,2.5,2.2,3.1,3.7c1,2.6,1,5.6,0.1,8.2c-0.4,1.2-1.2,2.3-2,3.2c-0.3,0.3-0.6,0.5-0.8,0.8
					c-0.1,0.2-0.1,0.5-0.2,0.8c-0.1,1.3,0.1,2.6-0.1,3.8c-0.2,1-0.7,2-1.2,2.9c-0.8,1.5-1.6,2.9-2.6,4.3c0,0,0.1-0.1,0.1-0.1
					c0,0,0,0,0,0c-1,1.3-1.9,2.7-2.8,4.1c-1.1,1.8-2.2,3.6-3,5.6c-1.1,3.3-1,6.1-3.5,9c-0.9,1-1.9,1.8-3,2.6
					c-0.2,0.1-0.3,0.3-0.5,0.4C2254.8,538.9,2252.8,541.2,2249.3,540.7z M2251.1,536.3c0.7,0,1.2-0.3,1.7-0.7c1.1-0.9,2.1-2,3.3-2.8
					c1.7-1,3-2.6,3.4-4.4c0.4-2.1,0.8-4.3,1.7-6.2c0.5-1.2,1.1-2.4,1.7-3.5c0.8-1.5,1.6-3,2.6-4.4c0.5-0.7,1-1.4,1.5-2.1
					c1-1.4,1.8-3,2.6-4.6c0.1-2.9-0.4-5.7,2.1-7.9c0.5-0.5,1-1,1.3-1.6c0.2-0.7,0.4-1.3,0.4-2c0.1-2.1-0.5-4-2.7-4.9
					c-0.2-0.1-0.4,0-0.6,0c-0.3,0.1-0.7,0.2-1,0.3c-0.3,0.2-0.6,0.5-1,0.6c-0.4,0.7-0.4,1.4-0.7,2.2c-0.2,0.6-0.5,1.1-0.8,1.7
					c-1.1,1.8-2.7,3.1-4.4,4.4c-0.8,0.6-1.5,1.2-2.3,1.7c-0.7,0.5-1.5,0.8-2.2,1c-1.1,0.3-2.2,0.8-3.2,1.3c-0.9,0.5-1.9,0.7-2.7,1.2
					c-0.4,0.3-0.6,0.7-0.9,1c-0.4,0.5-0.8,1-1,1.6c-0.5,1.6-0.8,3.3-0.1,4.9c0.6,2,0.9,4.2,0.2,6.3c-0.4,1.3-1.4,2.3-2.1,3.4
					c-0.5,0.9-0.9,1.9-1.2,2.9c-0.1,0.4-0.1,0.8,0,1.2c0.3,1,0.7,2,0.8,3.1c0.1,0.7,0.1,1.4,0.1,2.1c0,1-0.4,2.6,0.7,3.3
					c0.6,0.4,1.2,0.8,1.8,1.1C2250.2,536.4,2250.7,536.4,2251.1,536.3z"/>
			</g>
		</g>
		<g id="g11398" transform="matrix(0.35277777,0,0,0.35277777,-231.0959,271.02327)">
			<path id="path11400" d="M2011.2,566.6c0.1-0.9,0.9-1.2,1.6-1.6c8-6,11.9-15.6,13.4-25.2c2.1-14,4.8-27.6,6.6-41
				c3.2-29.4,9.8-58.2,15.2-87.2c3.4-26,7.4-51.9,17.5-76.3c9.2-27.8,22.2-54.2,38.4-78.7c17-23.9,38-45.9,63.3-61
				c9.4-5,18.1-11.3,27.5-16.1c6.7-3.2,14-4.9,20.7-8c10.7-4.2,21.8-7.2,33.2-8.8c8.8-1.2,13.5,9.7,10.4,16.9
				c-0.9,2.3-2.5,4.8-4.8,5.8c-6.3,3.1-13,5-19.8,6.7c-10.2,2.6-19.2,8.1-29.1,11.7c-7.2,3.7-13.5,8.9-20.4,13
				c-21.9,13.1-42.1,29.4-59,48.6c-25.2,31.9-41.8,70-51.1,109.4c-2.9,16.2-3.5,32.8-5.7,49.1c-1.7,12.5-3.7,25-5.9,37.5
				c-0.5,0.5-0.9,1.1-1.3,1.7c-2.8,4.3-5.4,9.1-6.8,14c-0.9,3.1-1.7,6.2-2.4,9.4c-2.2,3.8-2.9,8.3-1.4,12.7c0.6,1.9,1.7,3.6,3,5.1
				c-0.3,0.9-0.6,1.8-0.8,2.7c-3.2,10.6-7.2,20.8-12.6,30.5c-6.3,12.8-12.8,26.9-28.1,30.4c-0.2,0.1-0.4,0.2-0.6,0.2
				C2011.7,568.1,2011.1,567.5,2011.2,566.6z"/>
		</g>
		<g id="g11402" transform="matrix(0.35277777,0,0,0.35277777,-225.64637,254.93403)">
			<path id="path11404" d="M2039.5,482.9c3.5,0,3.5,6.4,0,6.4S2036.1,482.9,2039.5,482.9z"/>
		</g>
		<g id="g11406" transform="matrix(0.35277777,0,0,0.35277777,-202.25314,282.5312)">
			<path id="path11408" d="M2161.2,626.4c-18-3.8-35.4-9.9-52.4-16.9c-13.9-5.8-28.7-10-40.4-19.8c-12.4-8.9-20.1-22.3-29.2-34.2
				c-5.4-7.4-11.1-14.6-16.6-22c-5.2-7.5-10.3-15.1-15.3-22.8c0.6,0.1,1.3,0.2,1.9,0.2c3.7,0.4,7.4,0.6,11.1,0.7c0.2,0,0.4,0,0.6,0
				c3.5,0,6.7-0.9,9.4-3.1c7.7,10,16.3,19.4,25.6,28c10.2,9.6,19.1,20.8,31,28.4c8.5,5.5,17.8,9.5,26.9,13.9
				c13.4,6.1,26.8,12.4,41,16.5c12.1,3.1,24.4,4.9,36.7,7c12.6,2.5,12.7,24.4,0,26.9c-2.5,0.4-4.9,0.6-7.4,0.6
				C2176.3,629.9,2168.7,628.1,2161.2,626.4z"/>
		</g>
		<g id="g11410" transform="matrix(0.35277777,0,0,0.35277777,-225.85472,256.5598)">
			<path id="path11412" d="M2038.4,491.4c-1.2-3.6-5.3-10.8,0.1-12.2c2,0,2.8,2.1,2.7,3.8c0,0.8-0.5,1.7-0.2,2.5
				c2.8,5.4,5.6,10.7,8.3,16.2c-0.8,0.7-1.5,1.6-2.1,2.5c-1.1,1.6-2.1,3.4-3.1,5.1C2042.4,503.3,2040.6,497.3,2038.4,491.4z"/>
		</g>
		<g id="g11414" transform="matrix(0.35277777,0,0,0.35277777,-197.1512,283.4675)">
			<path id="path11416" d="M2187.7,631.3c-6.7-1.6-12.6-5.2-19-7.8c-8.6-3.7-17.5-4.3-25.9-8.2c-3.3-1.6-6-4.1-7.1-7.6
				c-0.6-0.6-1.2-1.3-1.9-1.8c-0.3-0.1-0.6,0-0.9,0c-1.5,0.1-1.5-2.7,0-2.8c0.9-0.1,1.6,0,2.3,0.5c1.4,0.5,2.5,0,3.9-0.1
				c2.9,0.3,5.6,1.3,8.5,1.5c8.1,0.6,16.2-0.5,24.2,0.3c13.5,1.8,27.1,4.7,40.6,1.2c18.8-2.2,36.7-7.7,54.6-13.7
				c20.4-5.5,39-15.9,54.6-30c4.9-4.1,9.7-8.3,14.8-12.2c10.1-7,18.3,8.7,11.8,16.5c-19.3,23.8-43.8,44.8-73.7,53.3
				c-17.1,5.5-34.5,11.6-52.6,11.6C2210.5,632.1,2198.9,634.4,2187.7,631.3z"/>
		</g>
		<g id="g11418" transform="matrix(0.35277777,0,0,0.35277777,-226.93602,254.10729)">
			<path id="path11420" d="M2032.8,478.6C2032.8,478.6,2032.8,478.6,2032.8,478.6c0.2-7.3,3.3-14.5,4.4-21.8
				c2-10.9,4.3-21.7,6.4-32.6c2.6-15.2,5.9-30.5,11.7-44.8c11.9-24,22.9-48.7,37.1-71.5c12.2-17.6,27.4-33,42.2-48.5
				c12.5-12.2,25-23.4,39.6-32.7c37.6-22.6,72.2-28.9,115.5-25c38.7,0.9,76.9,13.4,108.4,35.8c5.8,4,11,8.7,16.7,12.7
				c6.2,4.1,12.6,8.2,17.5,13.9c5.1,6,8.6,13,12.6,19.7c6.8,11.8,24.2,29.1,13.2,42.7c-9.9,9.8-20.6-6.5-27.5-12.8
				c-7.6-7.3-11.1-17.5-17.9-25.3c-7.3-5.9-16-9.8-23.2-15.9c-13-9.5-27.7-17-42.4-23.6c-13.4-7.8-28.2-11.9-43.7-13.2
				c-28.7-2.3-58.1-1.5-85.7,7.1c-12,3.5-24.2,6.2-35.5,11.8c-13.2,6.2-25.2,15-36.2,24.5c-12.9,12-25.7,24.1-37.1,37.6
				c-9.6,12.1-16.8,25.7-24.6,38.9c-12.1,19.2-24.1,39.3-31.5,60.7c-5.8,19.9-12.6,39.7-16.5,60.1
				C2037.7,478.6,2034.1,482,2032.8,478.6z"/>
		</g>
		<g id="g11422" transform="matrix(0.35277777,0,0,0.35277777,-191.42364,283.48363)">
			<path id="path11424" d="M2217.5,631.4c-7.4-0.4-14.7-1.2-22-1.9c-13.2-0.8-26.7-0.1-39.5-3.5c-11.9-3.9-23.6-8.4-35.2-13.3
				c-7.7-3.2-16-4.8-23.4-8.8c-5.1-2.3-11.1-4.1-14.3-9.1c-1-0.6-0.8-2.7,0.5-2.7c0.9,0,1.5,1.1,1.9,1.8c2.2,1,4.5,1.5,6.8,1.7
				c13.7,1.3,26.5,0.4,40-0.5c20.9,1.2,41.8,3.1,62.7,0.2c24-1.3,49.1,1.7,71.6-8.3c15-7.3,27.3-19.1,40-29.8
				c18.3-17.2,34.6-36.2,49-56.8c8.6-10,12.2-23,18.1-34.7c8.3-13.8,23.9-2,20.2,11.4c-1.6,7-5.3,13.2-8.5,19.6
				c-5.6,11-9.5,21.8-13.7,33.1c-8.8,19.1-22.8,34.9-38.1,49.1c-15.4,14.7-32.2,28.2-50.1,39.7
				C2263.7,629.9,2240.1,632.3,2217.5,631.4z"/>
		</g>
		<g id="g11426" transform="matrix(0.35277777,0,0,0.35277777,-171.83622,265.21376)">
			<path id="path11428" d="M2319.4,536.4c-13.1-10.4,4.6-41.2,5.8-55.4c4.4-17.8,1.9-36,1.6-54.1c-1.3-27.6-8.4-55-21.7-79.2
				c-4.9-10.9-11.4-21-18.2-30.8c-4.7-7.1-8.3-14.8-13.5-21.5c-4.9-5.3-9.5-11-13.8-16.8c-8.8-8.6-16.2-18.3-24.2-27.5
				c-7.2-6.3-15.4-11.5-22.7-17.8c-15-13-29.5-26.6-45.8-37.9c-2.2,2.3-3.2-2.9-0.7-3.2c6.3-2.2,12.7,0,18.9,1.4
				c18.3,4,35.9,10.3,53.7,16.2c10.4,3.8,20.8,7.5,29.4,14.7c11.1,6.2,21.2,13.6,29.5,23.4c4.8,4.6,9.5,9.2,13.3,14.7
				c7.4,11.4,14.7,22.8,21.8,34.4c9.6,19.8,18.4,40.4,23.4,62c4.9,21.1,6.9,42.6,6,64.2c0.9,26,0.7,52.6-9.8,76.8
				c-2.3,5.9-5.4,11.4-8.1,17.1C2340.6,526.9,2331.6,544.2,2319.4,536.4z"/>
		</g>
		<g id="g11430" transform="matrix(0.35277777,0,0,0.35277777,-192.70789,281.97878)">
			<path id="path11432" d="M2210.8,623.6c-1.7-1.2-2.8-4-0.9-5.5c1.1-0.9,2.5-0.2,3.1,0.9c2.6-0.4,4.4-1.8,6.5-3.1
				c11.7-7.6,25.2-11.9,37.1-19.2c12.4-10.1,24.6-20.4,37.8-29.5c24.3-21.3,52.9-39.3,70.4-66.9c2.6-6.5,6-12.7,8.8-19.1
				c4-13.3,7-26.8,11.5-39.9c3.5-12.6,4.2-26.7,11.3-37.9c1.8-1.9,4.3-3.2,7-3.2c15.6,1.3,10.7,26.7,11.8,37.6
				c-0.1,14.4-5.5,28.2-9.9,41.7c-1.9,4-3.7,8.1-5.2,12.3c-3.3,7.8-9,14.3-12.4,22.1c-5.8,15.1-17.2,26.9-27.4,39.2
				c-10.9,12.7-22.3,25.2-37,33.6c-8.5,5.7-17.2,11.3-26.6,15.3c-13.6,6.9-27.6,14.6-43.2,15.5c-9.2-0.5-18.1,2.3-27.1,3.5
				C2221.4,622.3,2215.9,625.9,2210.8,623.6z"/>
		</g>
		<g id="g11434" transform="matrix(0.35277777,0,0,0.35277777,-200.96483,282.66215)">
			<path id="path11436" d="M2167.9,627.1c-10.4-1.1-20.2-4.8-30.2-7.8c-8.3-2.2-16.6-4.3-24.7-7c-14-3.9-25.3-13.3-38.5-19
				c-12.7-6.5-24.7-14.3-37-21.6c-6.8-4.1-12.4-9.8-18.6-14.6c-8.5-4.5-15.8-10.7-23.8-15c-28.9-10.4-60.6-4.6-89.6,2.5
				c-16.5,2.6-31.6,5.3-47.3,10.4c-0.9,1.9-3.9,1.1-2.5-0.9c0,0,0,0,0-0.1c0-0.1,0.1-0.1,0.1-0.2c0,0-0.1,0.1-0.1,0.1c0,0,0,0,0,0
				c0,0,0,0,0,0c0,0,0,0,0,0c0.3-1.1,1.2-1.7,2.1-2.3c5.7-3.9,12.2-6.5,18.5-9.4c8.8-4.2,17.2-9.2,26.5-12.2
				c8.3-3.4,15.6-9,24.2-11.7c6.2-2,12.5-3.7,16.8-4.8c22.1-7.4,46-6.1,67.8,1.8c10.8,4.8,19.6,13,29.9,18.8
				c8.8,7.7,17.5,15.3,27.2,21.8c9.9,7.6,20.1,14.6,30.7,21.1c6.4,4.7,12.7,9.7,20.2,12.7c18.6,6.6,37.4,10.3,56.7,13.8
				c10.4,1.1,20.8,2,31.1,3.6c5.4,0.8,8.5,6.2,7.3,11.3c-2.6,9.7-12.4,11-21.1,10.5C2185,628.8,2176.4,628.2,2167.9,627.1z"/>
		</g>
		<g id="g11438" transform="matrix(0.35277777,0,0,0.35277777,-235.38187,273.46453)">
			<path id="path11440" d="M1988.9,579.3c-0.9-0.7-1.1-2.3-1.4-3.4c-0.5-1.7,1.7-3,2.8-1.5c12-13.1,22.4-26.8,32.9-40.9
				c8.1-9.8,15.5-20.9,21-32.1c5.5-14.5,9.8-29.2,11.7-44.6c1.3-10.9,5.2-21.3,6.9-32.1c0.8-7.9,1.1-15.9,2.3-23.8
				c1.2-8.4,2.7-16.7,4.3-25c0.8-4,4.3-7.1,8.4-6.1c4.8,1.1,7.6,6.3,7.3,11c-2.5,19.1-2.2,38.4-3.8,57.5
				c-3.2,17.6-3.9,35.5-8.4,52.8c-6.7,16.8-15.3,33.4-27.8,46.7c-10.7,12-23.2,24.2-37.8,31c-4.9,3.6-10.6,6-15.7,9.3
				c-0.6,0.6-1.1,1.6-1.9,1.5C1989.5,579.6,1989.2,579.5,1988.9,579.3z"/>
		</g>
		<g id="g11442" transform="matrix(0.35277777,0,0,0.35277777,-232.31535,272.12739)">
			<path id="path11444" d="M2004.8,572.3c-2-0.3-1.6-4.1,0.5-2.7c6.1,0.6,9.7-5.4,13.4-9.3c5.8-5.4,10.3-12.5,13.2-19.7
				c5.3-13,9.5-26.1,10.7-40.1c2.6-22.1,1.3-44.6,6.8-66.3c3.2-12.4,17.6-5.5,16.6,5.1c-2.2,27.2-2.8,54.6-9.5,81.1
				c-5.6,17.8-15.3,37.3-33.7,43.6C2016.6,566.4,2012,573.7,2004.8,572.3z"/>
		</g>
		<g id="g11446" transform="matrix(0.35277777,0,0,0.35277777,-202.41186,281.99279)">
			<path id="path11448" d="M2160.3,623.6c-35.8-1.1-68.3-19.6-95.4-41.7c-15.5-14.5-29-31.2-46.5-43.5c-9-9.3-23.1-14.7-35.7-15.4
				c-12.8-0.8-25.1,4.5-38,3.8c-4.2-0.4-29.2,8.8-28.2,3.2c0.3-2.2,3.7-3.2,5.3-4.1c2.8-1.4,5.5-2.8,7.5-4.1c4.3-3,8.4-6.1,13-8.6
				c7.8-3.2,15.7-6.2,23.4-10c23.3-8.1,45.5-9.7,66,5.3c3.6,2.4,8.2,8.1,11.2,10.6c6.1,5.7,12.3,11.2,17.7,17.6
				c13.7,20.2,36,31.7,57.2,42.5c16.5,8.5,33.5,15.5,50.6,22.5C2181.7,607.8,2172.2,624.2,2160.3,623.6z"/>
		</g>
		<path id="path12169" class="st2" d="M576.5,464.7c0-0.8-1.3-4.1-3-7.4c-1.6-3.3-3-6.6-3-7.3c0-0.7-0.6-2.1-1.3-3
			c-1.5-2-1.6-5.7-0.3-7c2.2-2.2-0.3-11.5-3.9-14.5c-0.9-0.8-1.2-1.9-0.8-3.5c0.8-3.5-0.2-5.8-2.6-5.8c-1.1,0-2.4-0.6-2.8-1.4
			c-0.6-1.1-1.6-1.3-4.9-0.9c-11.4,1.4-14.1,1.2-17-1c-1.5-1.1-2.7-2.6-2.7-3.2c0-0.6-0.8-1.7-1.8-2.4c-1.7-1.2-1.8-1.6-0.9-6.9
			c0.5-3.1,0.8-5.9,0.6-6.2c-0.3-0.5,3.6-4.8,9.4-10.4c0.8-0.8,2.7-2.6,4.1-4c1.5-1.5,3.4-2.5,4.6-2.5c1.2,0,5.3-0.2,9.1-0.5l7-0.6
			l-0.5,2.1c-0.5,1.9-0.1,2.3,4.2,4.3c5.5,2.6,6.8,2.7,7.9,0.8c0.7-1.2,1.3-1.3,4.6-0.4c2.1,0.5,5.6,1,7.7,1c3.6,0,3.8,0.1,3.4,2
			c-0.3,1.2,0.1,3.1,1.2,4.9c0.9,1.6,2.5,4.5,3.6,6.6c1,2,3.7,5.6,6,7.9c4.1,4.2,4.1,4.2,8.3,3.7l4.2-0.5l-1.3,3.1
			c-0.7,1.7-3.3,5-5.7,7.3c-8.5,8.1-9.3,10-7.2,17.7l1,3.8l-4.4,4c-3.3,3.1-4.3,4.4-3.9,5.8c0.3,1.1-0.2,2.5-1.3,3.8
			c-1,1.1-3.3,3.8-5.2,5.9c-2.5,2.9-4.2,4.1-6.5,4.5c-1.7,0.3-3.8,0.8-4.6,1C577,465.9,576.5,465.6,576.5,464.7L576.5,464.7z"/>
		<path id="path12356" class="st2" d="M608.2,454.3c-0.3-0.4-0.2-2.7,0.1-5.1c0.4-3.3,0.9-4.4,2.2-4.9c0.9-0.3,2.6-1.5,3.8-2.8
			l2.1-2.2l-0.6,2.1c-0.8,3-5.5,12.5-6.4,13.1C609,454.8,608.5,454.7,608.2,454.3z"/>
	</g>
	<g id="text13912">
		<path id="path20088" class="st3" d="M38.1,284.1H40v14.5h-1.9V284.1z M39,278c0.4,0,0.7,0.1,0.9,0.4c0.3,0.3,0.4,0.6,0.4,1.1
			s-0.1,0.8-0.4,1.1c-0.2,0.3-0.6,0.4-1,0.4s-0.7-0.1-1-0.4c-0.2-0.3-0.3-0.6-0.3-1c0-0.6,0.1-1,0.4-1.2C38.4,278.1,38.7,278,39,278
			L39,278z"/>
		<path id="path20090" class="st3" d="M65,289.3v9.3h-2v-9.7c0-1-0.4-1.9-1.1-2.5c-0.6-0.5-1.3-0.8-2.1-0.8c-1.2,0-2.3,0.6-3.2,1.7
			c-0.9,1.1-1.4,2.5-1.4,4.1v7.3h-2v-9.7c0-1-0.3-1.8-1-2.4c-0.6-0.6-1.4-0.9-2.2-0.9c-1.2,0-2.2,0.5-3.1,1.6
			c-1,1.2-1.5,2.6-1.5,4.3v7.2h-2v-14.5h1.8l0.1,2.3c0.5-0.8,1.3-1.5,2.2-2c0.9-0.4,1.7-0.6,2.6-0.6c1.4,0,2.5,0.4,3.5,1.2
			c0.7,0.6,1.1,1.2,1.3,1.8c0.4-0.7,0.9-1.3,1.5-1.8c1-0.8,2.2-1.2,3.5-1.2c1.5,0,2.7,0.5,3.6,1.4C64.5,286.2,65,287.6,65,289.3
			L65,289.3z"/>
		<path id="path20092" class="st3" d="M68.6,277.4h2v9.2c0.3-0.4,0.5-0.7,0.7-1c0.3-0.3,0.5-0.5,0.8-0.7c0.9-0.7,2-1.1,3.3-1.1
			c1.9,0,3.4,0.7,4.6,2.1c1.2,1.4,1.9,3.2,1.9,5.2c0,2.1-0.6,3.9-1.9,5.4c-1.3,1.6-3,2.4-5,2.4c-1.1,0-2.1-0.2-2.9-0.7
			c-0.5-0.3-1-0.7-1.5-1.2l-0.5,1.6h-1.5L68.6,277.4z M70.5,290.7v4.2c0.3,0.3,0.5,0.6,0.8,0.8c0.3,0.2,0.5,0.4,0.7,0.6
			c0.8,0.6,1.7,0.8,2.7,0.8c1.4,0,2.5-0.6,3.4-1.7c0.9-1.2,1.4-2.6,1.4-4.2c0-1.7-0.5-3.1-1.5-4.2c-0.9-0.9-1.9-1.4-3-1.4
			c-1.2,0-2.3,0.5-3.2,1.6C71,288.1,70.5,289.3,70.5,290.7z"/>
		<path id="path20094" class="st3" d="M84.6,284.1h1.9v14.5h-1.9V284.1z M85.5,278c0.4,0,0.7,0.1,0.9,0.4c0.3,0.3,0.4,0.6,0.4,1.1
			s-0.1,0.8-0.4,1.1c-0.2,0.3-0.6,0.4-1,0.4s-0.7-0.1-1-0.4c-0.2-0.3-0.3-0.6-0.3-1c0-0.6,0.1-1,0.4-1.2S85.2,278,85.5,278L85.5,278
			z"/>
		<path id="path20096" class="st3" d="M90.2,285.9v-1.8h11.5v1.6L92,297c0.4,0,0.9,0,1.8-0.1c0.4,0,0.7,0,1.1,0c0.3,0,0.6,0,0.9,0
			h6.4v1.7H89.7V297l9.6-11.2c-0.5,0-0.9,0.1-1.4,0.1c-0.5,0-1,0-1.5,0.1c-0.5,0-1,0-1.4,0.1c-0.4,0-0.7,0-1,0L90.2,285.9z"/>
		<path id="path20098" class="st3" d="M111.9,298.9c-1.9,0-3.5-0.7-4.9-2c-1.5-1.4-2.2-3.3-2.2-5.5c0-2.1,0.7-3.9,2-5.4
			c1.4-1.5,3-2.2,5-2.2c2,0,3.6,0.7,5,2.2c1.3,1.4,2,3.2,2,5.3c0,2.2-0.7,4.1-2.2,5.5C115.2,298.2,113.7,298.9,111.9,298.9
			L111.9,298.9z M111.7,297.1c1.3,0,2.4-0.5,3.5-1.6c1-1.1,1.5-2.5,1.5-4.2c0-1.7-0.5-3.2-1.6-4.3c-1-1-2.1-1.5-3.3-1.5
			c-1.3,0-2.4,0.5-3.3,1.6c-1,1.2-1.5,2.6-1.5,4.2c0,1.7,0.5,3.1,1.5,4.2C109.3,296.6,110.4,297.1,111.7,297.1L111.7,297.1z"/>
		<path id="path20100" d="M137.6,277.4h1.7l-7.9,24h-1.7L137.6,277.4z"/>
		<path id="path20102" d="M157.1,298.6h-3.7v-14h3.7V298.6z"/>
		<path id="path20104" d="M181.7,289.3v9.3h-2v-9.7c0-1-0.4-1.9-1.1-2.5c-0.6-0.5-1.3-0.8-2.1-0.8c-1.2,0-2.3,0.6-3.2,1.7
			c-0.9,1.1-1.4,2.5-1.4,4.1v7.3h-2v-9.7c0-1-0.3-1.8-1-2.4c-0.6-0.6-1.4-0.9-2.2-0.9c-1.2,0-2.2,0.5-3.1,1.6
			c-1,1.2-1.5,2.6-1.5,4.3v7.2h-2v-14.5h1.8l0.1,2.3c0.5-0.8,1.3-1.5,2.2-2c0.9-0.4,1.7-0.6,2.6-0.6c1.4,0,2.5,0.4,3.5,1.2
			c0.7,0.6,1.1,1.2,1.3,1.8c0.4-0.7,0.9-1.3,1.5-1.8c1-0.8,2.2-1.2,3.5-1.2c1.5,0,2.7,0.5,3.6,1.4
			C181.3,286.2,181.7,287.6,181.7,289.3L181.7,289.3z"/>
		<path id="path20106" d="M188.3,283.6h-1.4v-4.4h1.4V283.6z"/>
		<path id="path20108" d="M193.3,277.4h2v9.2c0.3-0.4,0.5-0.7,0.7-1c0.3-0.3,0.5-0.5,0.8-0.7c0.9-0.7,2-1.1,3.3-1.1
			c1.9,0,3.4,0.7,4.6,2.1c1.2,1.4,1.9,3.2,1.9,5.2c0,2.1-0.6,3.9-1.9,5.4c-1.3,1.6-3,2.4-5,2.4c-1.1,0-2.1-0.2-2.9-0.7
			c-0.5-0.3-1-0.7-1.5-1.2l-0.5,1.6h-1.5L193.3,277.4z M195.3,290.7v4.2c0.3,0.3,0.5,0.6,0.8,0.8c0.3,0.2,0.5,0.4,0.7,0.6
			c0.8,0.6,1.7,0.8,2.7,0.8c1.4,0,2.5-0.6,3.4-1.7c0.9-1.2,1.4-2.6,1.4-4.2c0-1.7-0.5-3.1-1.5-4.2c-0.9-0.9-1.9-1.4-3-1.4
			c-1.2,0-2.3,0.5-3.2,1.6C195.7,288.1,195.3,289.3,195.3,290.7L195.3,290.7z"/>
		<path id="path20110" d="M208.4,284.1h1.9v14.5h-1.9V284.1z M209.3,278c0.4,0,0.7,0.1,0.9,0.4c0.3,0.3,0.4,0.6,0.4,1.1
			s-0.1,0.8-0.4,1.1c-0.2,0.3-0.6,0.4-1,0.4c-0.4,0-0.7-0.1-1-0.4c-0.2-0.3-0.3-0.6-0.3-1c0-0.6,0.1-1,0.4-1.2
			C208.7,278.1,209,278,209.3,278L209.3,278z"/>
		<path id="path20112" d="M218.6,294.6h-5.4l2.7-2.8L218.6,294.6z M218.6,282.8l-2.7,2.8l-2.7-2.8H218.6z"/>
		<path id="path20114" d="M221.9,285.9v-1.8h11.5v1.6l-9.7,11.2c0.4,0,0.9,0,1.8-0.1c0.4,0,0.7,0,1.1,0c0.3,0,0.6,0,0.9,0h6.4v1.7
			h-12.4V297l9.6-11.2c-0.5,0-0.9,0.1-1.4,0.1c-0.5,0-1,0-1.5,0.1c-0.5,0-1,0-1.4,0.1c-0.4,0-0.7,0-1,0L221.9,285.9z"/>
		<path id="path20116" d="M250.1,291.5c0,2-0.5,3.7-1.4,5c-1.1,1.6-2.6,2.3-4.4,2.3c-1.8,0-3.2-0.8-4.4-2.4v2.1h-3.4v-14h3.7v1.6
			c1.1-1.3,2.5-2,4.1-2c2,0,3.5,0.7,4.5,2.2C249.7,287.8,250.1,289.4,250.1,291.5L250.1,291.5z M246.3,291.3c0-1.2-0.2-2.1-0.7-2.8
			c-0.5-0.9-1.4-1.3-2.4-1.3c-2.1,0-3.1,1.5-3.1,4.5c0,1.1,0.2,2.1,0.7,2.9c0.5,1,1.3,1.5,2.4,1.5c1.1,0,1.9-0.5,2.5-1.5
			C246.1,293.8,246.3,292.7,246.3,291.3L246.3,291.3z"/>
		<path id="path20118" d="M268.2,277.4h1.7l-7.9,24h-1.7L268.2,277.4z"/>
		<path id="path20120" d="M282.8,276.4h1.8c-0.9,1.4-1.5,2.5-2,3.3s-0.8,1.4-0.9,1.6c-1,2.3-1.5,4.8-1.5,7.6c0,1.9,0.2,3.7,0.6,5.3
			c0.4,1.3,0.9,2.5,1.6,3.9c0,0.1,0.2,0.4,0.6,1c0.4,0.6,0.9,1.4,1.5,2.5h-1.7c-0.4-0.5-0.7-1-1.1-1.5c-0.3-0.5-0.7-1-1-1.5
			c-0.4-0.7-0.8-1.4-1.1-2c-0.3-0.7-0.6-1.4-0.8-2c-0.6-1.8-0.9-3.6-0.9-5.6c0-1.9,0.3-3.8,0.8-5.4c0.2-0.6,0.5-1.3,0.8-1.9
			c0.3-0.7,0.7-1.3,1.1-2c0.4-0.5,0.7-1.1,1.1-1.6C282.1,277.4,282.4,276.9,282.8,276.4L282.8,276.4z"/>
		<path id="path20122" class="st3" d="M288.2,277.4h2.6l5.6,8.3l5.6-8.3h2.7l-7,9.8l8.1,11.3H303l-6.6-9.8l-6.6,9.8h-2.7l8.1-11.3
			L288.2,277.4z"/>
		<path id="path20124" class="st3" d="M308.1,277.4h1.9v9.3c0.5-0.7,1-1.3,1.6-1.8c1-0.7,2.1-1.1,3.3-1.1c0.8,0,1.4,0.1,2,0.3
			c0.6,0.2,1.2,0.5,1.7,0.9c1.1,0.9,1.6,2.3,1.6,3.9v9.6h-2v-9.3c0-1-0.3-1.9-1-2.6c-0.7-0.7-1.5-1.1-2.4-1.1
			c-1.4,0-2.5,0.5-3.5,1.6c-0.9,1.1-1.4,2.4-1.4,3.9v7.5h-1.9V277.4z"/>
		<path id="path20126" class="st3" d="M329.7,298.9c-1.9,0-3.5-0.7-4.9-2c-1.5-1.4-2.2-3.3-2.2-5.5c0-2.1,0.7-3.9,2-5.4
			c1.4-1.5,3-2.2,5-2.2c2,0,3.6,0.7,5,2.2c1.3,1.4,2,3.2,2,5.3c0,2.2-0.7,4.1-2.2,5.5C333,298.2,331.5,298.9,329.7,298.9
			L329.7,298.9z M329.5,297.1c1.3,0,2.4-0.5,3.5-1.6c1-1.1,1.5-2.5,1.5-4.2c0-1.7-0.5-3.2-1.6-4.3c-1-1-2.1-1.5-3.3-1.5
			c-1.3,0-2.4,0.5-3.3,1.6c-1,1.2-1.5,2.6-1.5,4.2c0,1.7,0.5,3.1,1.5,4.2C327.1,296.6,328.2,297.1,329.5,297.1z"/>
		<path id="path20128" class="st3" d="M339.2,297.3V295c1.1,0.9,2.3,1.5,3.4,1.9c0.3,0.1,0.7,0.2,1,0.2c0.3,0,0.7,0.1,1,0.1
			c1.1,0,2-0.3,2.7-0.8c0.7-0.5,1.1-1.1,1.1-1.8c0-0.4-0.1-0.7-0.4-1.1c-0.4-0.5-1.4-0.9-3-1.3c-1.9-0.5-3.2-0.9-3.9-1.2
			c-1.3-0.7-1.9-1.7-1.9-3c0-1.2,0.5-2.2,1.6-3c1.1-0.8,2.4-1.2,4-1.2c0.7,0,1.4,0.1,1.9,0.2c0.6,0.1,1.1,0.3,1.6,0.5
			c0.5,0.2,1,0.5,1.4,0.8v2.4c-0.8-0.6-1.5-1.1-2.4-1.5c-0.8-0.4-1.7-0.6-2.6-0.6s-1.7,0.2-2.4,0.6c-0.7,0.4-1,1-1,1.6
			c0,0.9,0.8,1.6,2.4,2.1c0.8,0.2,1.5,0.4,2.2,0.6c0.7,0.2,1.5,0.4,2.2,0.6c1.6,0.7,2.5,1.8,2.5,3.2c0,1.2-0.6,2.3-1.7,3.2
			c-1.2,0.9-2.6,1.4-4.3,1.4c-0.8,0-1.5-0.1-2.2-0.2C341.3,298.4,340.2,298,339.2,297.3L339.2,297.3z"/>
		<path id="path20130" class="st3" d="M364.9,289.2v6.8c0,0.3,0.1,0.6,0.2,0.8c0.1,0.2,0.4,0.3,0.8,0.3c0.1,0,0.2,0,0.3,0
			c0.1,0,0.1,0,0.2-0.1c0.1,0,0.2-0.1,0.3-0.1c0.1,0,0.2-0.1,0.2-0.1v1.5c-0.3,0.1-0.6,0.2-1,0.2c-0.3,0.1-0.6,0.1-0.8,0.1
			c-0.9,0-1.5-0.2-1.8-0.7c-0.2-0.3-0.4-1-0.4-2c-0.2,0.4-0.5,0.7-0.7,1.1c-0.2,0.3-0.5,0.5-0.7,0.7c-0.9,0.7-2,1.1-3.3,1.1
			c-1.3,0-2.5-0.4-3.4-1.2c-1-0.8-1.5-1.9-1.5-3.2c0-1.6,0.8-2.8,2.4-3.5c0.6-0.3,1.4-0.5,2.4-0.8c1-0.2,2.2-0.4,3.5-0.6l1.3-0.1
			c0-1.3-0.3-2.2-1-2.9c-0.6-0.7-1.6-1.1-2.8-1.1c-0.5,0-0.9,0.1-1.4,0.2c-0.5,0.1-0.9,0.3-1.4,0.5c-0.3,0.1-0.5,0.3-0.8,0.5
			c-0.3,0.2-0.6,0.5-1,0.8v-2.2c1.5-1,3.2-1.5,4.9-1.5c1.8,0,3.2,0.6,4.2,1.7C364.4,286.5,364.9,287.7,364.9,289.2L364.9,289.2z
			 M362.9,292v-0.9l-0.9,0.1c-2.3,0.2-3.8,0.5-4.8,0.9c-1.2,0.5-1.8,1.3-1.8,2.4c0,0.3,0.1,0.6,0.2,0.9c0.1,0.3,0.3,0.5,0.6,0.8
			c0.3,0.2,0.6,0.4,0.9,0.6c0.4,0.1,0.8,0.2,1.2,0.2c1.2,0,2.3-0.5,3.2-1.5C362.4,294.6,362.9,293.4,362.9,292L362.9,292z"/>
		<path id="path20132" d="M377.8,289c0,1.9-0.3,3.8-0.9,5.5c-0.4,1.3-1.1,2.6-1.9,4c-0.4,0.5-0.7,1-1.1,1.5c-0.3,0.5-0.7,1-1,1.5
			h-1.7c0.3-0.6,0.7-1.2,1-1.7c0.3-0.6,0.7-1.1,1.1-1.7c0.4-0.7,0.7-1.3,0.9-1.9c0.3-0.6,0.5-1.3,0.6-1.9c0.4-1.6,0.6-3.3,0.6-5.3
			c0-1.1-0.1-2-0.2-2.9c-0.1-0.9-0.3-1.8-0.5-2.6c-0.2-0.6-0.4-1.2-0.7-1.9c-0.3-0.6-0.6-1.3-1-2c-0.4-0.5-0.7-1.1-1.1-1.6
			c-0.3-0.5-0.6-1.1-1-1.6h1.8c0.4,0.5,0.7,1.1,1.1,1.6c0.4,0.5,0.7,1,1.1,1.6c0.4,0.7,0.8,1.4,1.1,2.1c0.3,0.6,0.6,1.3,0.8,1.9
			C377.5,285.2,377.8,287,377.8,289L377.8,289z"/>
		<path id="path20134" d="M388.6,287.8c-0.4,0-0.8-0.2-1-0.5c-0.2-0.4-0.3-0.8-0.3-1.3c0-0.5,0.1-1,0.3-1.4c0.2-0.4,0.6-0.6,1-0.6
			c0.4,0,0.7,0.2,0.9,0.5c0.2,0.3,0.4,0.8,0.4,1.4c0,0.5-0.1,1-0.3,1.4C389.4,287.6,389,287.8,388.6,287.8z M388.6,298.6
			c-0.4,0-0.8-0.2-1-0.5c-0.2-0.4-0.3-0.8-0.3-1.3c0-0.5,0.1-1,0.3-1.4c0.2-0.4,0.6-0.6,1-0.6c0.4,0,0.7,0.2,0.9,0.5
			c0.2,0.3,0.4,0.8,0.4,1.4c0,0.5-0.1,1-0.3,1.4C389.4,298.5,389,298.6,388.6,298.6z"/>
		<path id="path20136" class="st3" d="M149.5,312.6h2.1l7.9,21.2H157l-2.5-7.2h-8.1l-2.6,7.2h-2.4L149.5,312.6z M153.9,324.7
			l-3.3-9.5l-3.5,9.5H153.9z"/>
		<path id="path20138" class="st3" d="M182.8,321l0.5-1.6h1.4v13.1c0,2.3-0.5,4-1.6,5.1c-1.1,1.2-2.8,1.8-5.1,1.8
			c-0.9,0-1.8-0.2-2.7-0.5c-0.8-0.3-1.7-0.8-2.6-1.5v-2.4c0.6,0.5,1.1,1,1.7,1.4c0.6,0.4,1.1,0.7,1.6,0.9c0.6,0.2,1.3,0.4,1.9,0.4
			c1.4,0,2.5-0.3,3.3-1c1-0.8,1.5-2.1,1.5-3.8v-1.8c-0.7,1.1-1.5,1.9-2.5,2.4c-0.7,0.3-1.4,0.5-2.3,0.5c-1.8,0-3.3-0.7-4.5-2.1
			c-1.2-1.5-1.8-3.1-1.8-5.1s0.6-3.6,1.7-5.1c1.3-1.7,3-2.5,5-2.5c1,0,2,0.2,2.9,0.7c0.3,0.2,0.5,0.3,0.8,0.5
			C182.3,320.5,182.6,320.7,182.8,321L182.8,321z M182.8,326.8v-4c-0.3-0.3-0.6-0.6-0.9-0.9c-0.3-0.2-0.6-0.4-0.9-0.6
			c-0.4-0.2-0.7-0.3-1.1-0.4c-0.4-0.1-0.8-0.1-1.2-0.1c-1.4,0-2.5,0.5-3.3,1.4c-1,1.1-1.5,2.5-1.5,4.3c0,1.6,0.4,2.9,1.2,4
			c0.8,1,1.9,1.5,3.2,1.5c1.3,0,2.4-0.5,3.2-1.5C182.4,329.6,182.8,328.3,182.8,326.8L182.8,326.8z"/>
		<path id="path20140" class="st3" d="M199.5,324.5v6.8c0,0.3,0.1,0.6,0.2,0.8c0.1,0.2,0.4,0.3,0.8,0.3c0.1,0,0.2,0,0.3,0
			c0.1,0,0.1,0,0.2-0.1c0.1,0,0.2-0.1,0.3-0.1c0.1,0,0.2-0.1,0.2-0.1v1.5c-0.3,0.1-0.6,0.2-1,0.2c-0.3,0.1-0.6,0.1-0.8,0.1
			c-0.9,0-1.5-0.2-1.8-0.7c-0.2-0.3-0.4-1-0.4-2c-0.2,0.4-0.5,0.7-0.7,1.1c-0.2,0.3-0.5,0.5-0.7,0.7c-0.9,0.7-2,1.1-3.3,1.1
			c-1.3,0-2.5-0.4-3.4-1.2c-1-0.8-1.5-1.9-1.5-3.2c0-1.6,0.8-2.8,2.4-3.5c0.6-0.3,1.4-0.5,2.4-0.8c1-0.2,2.2-0.4,3.5-0.6l1.3-0.1
			c0-1.3-0.3-2.2-1-2.9c-0.6-0.7-1.6-1.1-2.8-1.1c-0.5,0-0.9,0.1-1.4,0.2c-0.5,0.1-0.9,0.3-1.4,0.5c-0.3,0.1-0.5,0.3-0.8,0.5
			c-0.3,0.2-0.6,0.5-1,0.8v-2.2c1.5-1,3.2-1.5,4.9-1.5c1.8,0,3.2,0.6,4.2,1.7C199.1,321.7,199.5,323,199.5,324.5L199.5,324.5z
			 M197.6,327.3v-0.9l-0.9,0.1c-2.3,0.2-3.8,0.5-4.8,0.9c-1.2,0.5-1.8,1.3-1.8,2.4c0,0.3,0.1,0.6,0.2,0.9c0.1,0.3,0.3,0.5,0.6,0.8
			c0.3,0.2,0.6,0.4,0.9,0.6c0.4,0.1,0.8,0.2,1.2,0.2c1.2,0,2.3-0.5,3.2-1.5C197.1,329.9,197.6,328.7,197.6,327.3L197.6,327.3z"/>
		<path id="path20142" class="st3" d="M206.2,315.1h1.8v4.2h3.8v1.8H208v9.2c0,0.8,0.1,1.3,0.4,1.6c0.3,0.3,0.8,0.5,1.5,0.5
			c0.4,0,0.7,0,1-0.1c0.3-0.1,0.6-0.2,0.9-0.4v1.8c-0.3,0.1-0.6,0.2-1.1,0.2c-0.4,0.1-0.8,0.1-1.2,0.1c-1.1,0-1.9-0.2-2.5-0.7
			c-0.7-0.5-1-1.3-1-2.4v-9.8h-2.4v-1.8h2.4L206.2,315.1z"/>
		<path id="path20144" class="st3" d="M214.7,312.6h1.9v9.3c0.5-0.7,1-1.3,1.6-1.8c1-0.7,2.1-1.1,3.3-1.1c0.8,0,1.4,0.1,2,0.3
			c0.6,0.2,1.2,0.5,1.7,0.9c1.1,0.9,1.6,2.3,1.6,3.9v9.6h-2v-9.3c0-1-0.3-1.9-1-2.6c-0.7-0.7-1.5-1.1-2.4-1.1
			c-1.4,0-2.5,0.5-3.5,1.6c-0.9,1.1-1.4,2.4-1.4,3.9v7.5h-1.9L214.7,312.6z"/>
		<path id="path20146" class="st3" d="M242.5,326h-11c0,2.1,0.5,3.7,1.4,4.8c1,1.1,2.2,1.6,3.8,1.6c1.2,0,2.3-0.4,3.4-1.1
			c0.3-0.2,0.6-0.4,1-0.7c0.3-0.3,0.7-0.7,1.1-1.1v2.4c-0.4,0.3-0.8,0.6-1.2,0.9c-0.4,0.2-0.7,0.4-1,0.6c-1.1,0.6-2.3,0.9-3.4,0.9
			c-2,0-3.6-0.7-5-2c-1.5-1.4-2.2-3.3-2.2-5.5c0-2.1,0.7-3.9,2-5.4c1.4-1.5,3-2.2,5-2.2c1.9,0,3.5,0.7,4.6,2.1
			C242,322.4,242.5,324,242.5,326L242.5,326z M231.8,324.3h8.5c-0.2-1.2-0.7-2.1-1.4-2.7c-0.7-0.6-1.6-0.9-2.6-0.9
			c-1.1,0-2.1,0.4-2.8,1.1C232.7,322.4,232.2,323.3,231.8,324.3L231.8,324.3z"/>
		<path id="path20148" class="st3" d="M253.4,319.3v1.9c-0.2-0.1-0.4-0.1-0.5-0.2c-0.1-0.1-0.2-0.1-0.3-0.1c-0.1,0-0.2,0-0.3,0
			c-0.1,0-0.2,0-0.4,0c-1.3,0-2.4,0.6-3.2,1.9c-0.7,1.2-1.1,2.5-1.1,3.9v7h-1.9v-14.5h1.8l0.1,2.5c0.5-0.8,0.9-1.3,1.3-1.6
			c0.8-0.7,1.8-1,2.9-1c0.3,0,0.6,0,0.8,0C252.8,319.3,253.1,319.3,253.4,319.3L253.4,319.3z"/>
		<path id="path20150" class="st3" d="M256,319.3h1.9v14.5H256V319.3z M256.9,313.2c0.4,0,0.7,0.1,0.9,0.4c0.3,0.3,0.4,0.6,0.4,1.1
			c0,0.5-0.1,0.8-0.4,1.1c-0.2,0.3-0.6,0.4-1,0.4c-0.4,0-0.7-0.1-1-0.4c-0.2-0.3-0.3-0.6-0.3-1c0-0.6,0.1-1,0.4-1.2
			C256.3,313.3,256.6,313.2,256.9,313.2L256.9,313.2z"/>
		<path id="path20152" class="st3" d="M273.9,324.1v9.7H272v-9.5c0-1-0.4-1.8-1.1-2.5c-0.7-0.7-1.6-1-2.6-1c-1.4,0-2.5,0.6-3.5,1.7
			c-1,1.2-1.5,2.4-1.5,3.9v7.4h-1.8v-14.5h1.7l0.1,2.7c0.5-0.7,1.1-1.4,1.7-1.8c1.1-0.8,2.3-1.2,3.6-1.2c1.5,0,2.8,0.5,3.9,1.4
			C273.4,321.3,273.9,322.6,273.9,324.1L273.9,324.1z"/>
		<path id="path20154" class="st3" d="M288.2,321l0.5-1.6h1.4v13.1c0,2.3-0.5,4-1.6,5.1c-1.1,1.2-2.8,1.8-5.1,1.8
			c-0.9,0-1.8-0.2-2.7-0.5c-0.8-0.3-1.7-0.8-2.6-1.5v-2.4c0.6,0.5,1.1,1,1.7,1.4c0.6,0.4,1.1,0.7,1.6,0.9c0.6,0.2,1.3,0.4,1.9,0.4
			c1.4,0,2.5-0.3,3.3-1c1-0.8,1.5-2.1,1.5-3.8v-1.8c-0.7,1.1-1.5,1.9-2.5,2.4c-0.7,0.3-1.4,0.5-2.3,0.5c-1.8,0-3.3-0.7-4.5-2.1
			c-1.2-1.5-1.8-3.1-1.8-5.1s0.6-3.6,1.7-5.1c1.3-1.7,3-2.5,5-2.5c1,0,2,0.2,2.9,0.7c0.3,0.2,0.5,0.3,0.8,0.5
			C287.6,320.5,287.9,320.7,288.2,321L288.2,321z M288.2,326.8v-4c-0.3-0.3-0.6-0.6-0.9-0.9c-0.3-0.2-0.6-0.4-0.9-0.6
			c-0.4-0.2-0.7-0.3-1.1-0.4c-0.4-0.1-0.8-0.1-1.2-0.1c-1.4,0-2.5,0.5-3.3,1.4c-1,1.1-1.5,2.5-1.5,4.3c0,1.6,0.4,2.9,1.2,4
			c0.8,1,1.9,1.5,3.2,1.5c1.3,0,2.4-0.5,3.2-1.5C287.7,329.6,288.2,328.3,288.2,326.8L288.2,326.8z"/>
		<path id="path20156" class="st3" d="M304.9,315.1h1.8v4.2h3.8v1.8h-3.8v9.2c0,0.8,0.1,1.3,0.4,1.6c0.3,0.3,0.8,0.5,1.5,0.5
			c0.4,0,0.7,0,1-0.1c0.3-0.1,0.6-0.2,0.9-0.4v1.8c-0.3,0.1-0.6,0.2-1.1,0.2c-0.4,0.1-0.8,0.1-1.2,0.1c-1.1,0-1.9-0.2-2.5-0.7
			c-0.7-0.5-1-1.3-1-2.4v-9.8h-2.4v-1.8h2.4L304.9,315.1z"/>
		<path id="path20158" class="st3" d="M320.2,334.2c-1.9,0-3.5-0.7-4.9-2c-1.5-1.4-2.2-3.3-2.2-5.5c0-2.1,0.7-3.9,2-5.4
			c1.4-1.5,3-2.2,5-2.2c2,0,3.6,0.7,5,2.2c1.3,1.4,2,3.2,2,5.3c0,2.2-0.7,4.1-2.2,5.5C323.5,333.5,322,334.2,320.2,334.2
			L320.2,334.2z M320,332.4c1.3,0,2.4-0.5,3.5-1.6c1-1.1,1.5-2.5,1.5-4.2c0-1.7-0.5-3.2-1.6-4.3c-1-1-2.1-1.5-3.3-1.5
			c-1.3,0-2.4,0.5-3.3,1.6c-1,1.2-1.5,2.6-1.5,4.2c0,1.7,0.5,3.1,1.5,4.2C317.6,331.9,318.7,332.4,320,332.4L320,332.4z"/>
		<path id="path20160" class="st3" d="M339.5,332.6v-2.4c1.1,0.9,2.3,1.5,3.4,1.9c0.3,0.1,0.7,0.2,1,0.2c0.3,0,0.7,0.1,1,0.1
			c1.1,0,2-0.3,2.7-0.8c0.7-0.5,1.1-1.1,1.1-1.8c0-0.4-0.1-0.7-0.4-1.1c-0.4-0.5-1.4-0.9-3-1.3c-1.9-0.5-3.2-0.9-3.9-1.2
			c-1.3-0.7-1.9-1.7-1.9-3c0-1.2,0.5-2.2,1.6-3c1.1-0.8,2.4-1.2,4-1.2c0.7,0,1.4,0.1,1.9,0.2c0.6,0.1,1.1,0.3,1.6,0.5
			c0.5,0.2,1,0.5,1.4,0.8v2.4c-0.8-0.6-1.5-1.1-2.4-1.5c-0.8-0.4-1.7-0.6-2.6-0.6c-0.9,0-1.7,0.2-2.4,0.6c-0.7,0.4-1,1-1,1.6
			c0,0.9,0.8,1.6,2.4,2.1c0.8,0.2,1.5,0.4,2.2,0.6c0.7,0.2,1.5,0.4,2.2,0.6c1.6,0.7,2.5,1.8,2.5,3.2c0,1.2-0.6,2.3-1.7,3.2
			c-1.2,0.9-2.6,1.4-4.3,1.4c-0.8,0-1.5-0.1-2.2-0.2C341.7,333.7,340.6,333.2,339.5,332.6L339.5,332.6z"/>
		<path id="path20162" class="st3" d="M354.2,312.6h1.9v9.3c0.5-0.7,1-1.3,1.6-1.8c1-0.7,2.1-1.1,3.3-1.1c0.8,0,1.4,0.1,2,0.3
			c0.6,0.2,1.2,0.5,1.7,0.9c1.1,0.9,1.6,2.3,1.6,3.9v9.6h-2v-9.3c0-1-0.3-1.9-1-2.6c-0.7-0.7-1.5-1.1-2.4-1.1
			c-1.4,0-2.5,0.5-3.5,1.6c-0.9,1.1-1.4,2.4-1.4,3.9v7.5h-1.9L354.2,312.6z"/>
		<path id="path20164" class="st3" d="M380.5,324.5v6.8c0,0.3,0.1,0.6,0.2,0.8c0.1,0.2,0.4,0.3,0.8,0.3c0.1,0,0.2,0,0.3,0
			c0.1,0,0.1,0,0.2-0.1c0.1,0,0.2-0.1,0.3-0.1c0.1,0,0.2-0.1,0.2-0.1v1.5c-0.3,0.1-0.6,0.2-1,0.2c-0.3,0.1-0.6,0.1-0.8,0.1
			c-0.9,0-1.5-0.2-1.8-0.7c-0.2-0.3-0.4-1-0.4-2c-0.2,0.4-0.5,0.7-0.7,1.1c-0.2,0.3-0.5,0.5-0.7,0.7c-0.9,0.7-2,1.1-3.3,1.1
			c-1.3,0-2.5-0.4-3.4-1.2c-1-0.8-1.5-1.9-1.5-3.2c0-1.6,0.8-2.8,2.4-3.5c0.6-0.3,1.4-0.5,2.4-0.8c1-0.2,2.2-0.4,3.5-0.6l1.3-0.1
			c0-1.3-0.3-2.2-1-2.9c-0.6-0.7-1.6-1.1-2.8-1.1c-0.5,0-0.9,0.1-1.4,0.2c-0.5,0.1-0.9,0.3-1.4,0.5c-0.3,0.1-0.5,0.3-0.8,0.5
			c-0.3,0.2-0.6,0.5-1,0.8v-2.2c1.5-1,3.2-1.5,4.9-1.5c1.8,0,3.2,0.6,4.2,1.7C380.1,321.7,380.5,323,380.5,324.5L380.5,324.5z
			 M378.5,327.3v-0.9l-0.9,0.1c-2.3,0.2-3.8,0.5-4.8,0.9c-1.2,0.5-1.8,1.3-1.8,2.4c0,0.3,0.1,0.6,0.2,0.9c0.1,0.3,0.3,0.5,0.6,0.8
			c0.3,0.2,0.6,0.4,0.9,0.6c0.4,0.1,0.8,0.2,1.2,0.2c1.2,0,2.3-0.5,3.2-1.5C378.1,329.9,378.5,328.7,378.5,327.3L378.5,327.3z"/>
		<path id="path20166" class="st3" d="M393.2,319.3v1.9c-0.2-0.1-0.4-0.1-0.5-0.2c-0.1-0.1-0.2-0.1-0.3-0.1c-0.1,0-0.2,0-0.3,0
			c-0.1,0-0.2,0-0.4,0c-1.3,0-2.4,0.6-3.2,1.9c-0.7,1.2-1.1,2.5-1.1,3.9v7h-1.9v-14.5h1.8l0.1,2.5c0.5-0.8,0.9-1.3,1.3-1.6
			c0.8-0.7,1.8-1,2.9-1c0.3,0,0.6,0,0.8,0C392.7,319.3,393,319.3,393.2,319.3L393.2,319.3z"/>
		<path id="path20168" class="st3" d="M408.7,326h-11c0,2.1,0.5,3.7,1.4,4.8c1,1.1,2.2,1.6,3.8,1.6c1.2,0,2.3-0.4,3.4-1.1
			c0.3-0.2,0.6-0.4,1-0.7c0.3-0.3,0.7-0.7,1.1-1.1v2.4c-0.4,0.3-0.8,0.6-1.2,0.9c-0.4,0.2-0.7,0.4-1,0.6c-1.1,0.6-2.3,0.9-3.4,0.9
			c-2,0-3.6-0.7-5-2c-1.5-1.4-2.2-3.3-2.2-5.5c0-2.1,0.7-3.9,2-5.4c1.4-1.5,3-2.2,5-2.2c1.9,0,3.5,0.7,4.6,2.1
			C408.2,322.4,408.7,324,408.7,326L408.7,326z M397.9,324.3h8.5c-0.2-1.2-0.7-2.1-1.4-2.7c-0.7-0.6-1.6-0.9-2.6-0.9
			c-1.1,0-2.1,0.4-2.8,1.1C398.9,322.4,398.3,323.3,397.9,324.3L397.9,324.3z"/>
		<path id="path20170" class="st3" d="M421.4,312.6h2v13.1l6.6-6.4h2.8l-6.1,5.6l6.9,8.8H431l-5.7-7.5l-1.9,1.7v5.8h-2L421.4,312.6z
			"/>
		<path id="path20172" class="st3" d="M448.8,324.1v9.7h-1.9v-9.5c0-1-0.4-1.8-1.1-2.5c-0.7-0.7-1.6-1-2.6-1c-1.4,0-2.5,0.6-3.5,1.7
			c-1,1.2-1.5,2.4-1.5,3.9v7.4h-1.8v-14.5h1.7l0.1,2.7c0.5-0.7,1.1-1.4,1.7-1.8c1.1-0.8,2.3-1.2,3.6-1.2c1.5,0,2.8,0.5,3.9,1.4
			C448.3,321.3,448.8,322.6,448.8,324.1L448.8,324.1z"/>
		<path id="path20174" class="st3" d="M459.1,334.2c-1.9,0-3.5-0.7-4.9-2c-1.5-1.4-2.2-3.3-2.2-5.5c0-2.1,0.7-3.9,2-5.4
			c1.4-1.5,3-2.2,5-2.2c2,0,3.6,0.7,5,2.2c1.3,1.4,2,3.2,2,5.3c0,2.2-0.7,4.1-2.2,5.5C462.4,333.5,460.8,334.2,459.1,334.2
			L459.1,334.2z M458.9,332.4c1.3,0,2.4-0.5,3.5-1.6c1-1.1,1.5-2.5,1.5-4.2c0-1.7-0.5-3.2-1.6-4.3c-1-1-2.1-1.5-3.3-1.5
			c-1.3,0-2.4,0.5-3.3,1.6c-1,1.2-1.5,2.6-1.5,4.2c0,1.7,0.5,3.1,1.5,4.2C456.5,331.9,457.6,332.4,458.9,332.4L458.9,332.4z"/>
		<path id="path20176" class="st3" d="M478.1,319.3h1.8l2.2,6.8c0.3,0.9,0.5,1.8,0.8,2.8c0.3,0.9,0.5,1.8,0.7,2.6
			c0.1-0.2,0.1-0.3,0.1-0.5c0.1-0.1,0.1-0.3,0.1-0.4c0.2-0.7,0.4-1.4,0.6-2.1c0.2-0.7,0.4-1.4,0.6-2.2l2.2-7.1h2l-4.8,14.5h-1.8
			l-2.6-8c-0.3-0.9-0.5-1.5-0.7-2c-0.2-0.5-0.3-0.8-0.3-1c-0.1-0.3-0.1-0.6-0.2-0.8c0-0.2-0.1-0.4-0.1-0.6c-0.2,0.5-0.3,0.9-0.4,1.3
			c-0.1,0.4-0.2,0.7-0.3,1c-0.2,0.8-0.4,1.5-0.5,1.9c-0.1,0.5-0.2,0.8-0.2,1l-2.3,7.2h-1.8l-4.8-14.5h2.1l3.8,12.2
			c0.1-0.5,0.2-1,0.3-1.5c0.1-0.5,0.2-0.9,0.4-1.4c0.1-0.3,0.2-0.6,0.3-0.9c0.1-0.3,0.2-0.7,0.3-1L478.1,319.3z"/>
		<path id="path20178" class="st3" d="M492.6,312.6h1.9v21.2h-1.9V312.6z"/>
		<path id="path20180" class="st3" d="M510.8,326h-11c0,2.1,0.5,3.7,1.4,4.8c1,1.1,2.2,1.6,3.8,1.6c1.2,0,2.3-0.4,3.4-1.1
			c0.3-0.2,0.6-0.4,1-0.7c0.3-0.3,0.7-0.7,1.1-1.1v2.4c-0.4,0.3-0.8,0.6-1.2,0.9c-0.4,0.2-0.7,0.4-1,0.6c-1.1,0.6-2.3,0.9-3.4,0.9
			c-2,0-3.6-0.7-5-2c-1.5-1.4-2.2-3.3-2.2-5.5c0-2.1,0.7-3.9,2-5.4c1.4-1.5,3-2.2,5-2.2c1.9,0,3.5,0.7,4.6,2.1
			C510.3,322.4,510.8,324,510.8,326L510.8,326z M500,324.3h8.5c-0.2-1.2-0.7-2.1-1.4-2.7c-0.7-0.6-1.6-0.9-2.6-0.9
			c-1.1,0-2.1,0.4-2.8,1.1C501,322.4,500.4,323.3,500,324.3L500,324.3z"/>
		<path id="path20182" class="st3" d="M524,312.6h2.1v21.2h-1.9l-0.2-2.4c-0.3,0.4-0.5,0.7-0.8,1c-0.3,0.3-0.5,0.5-0.8,0.7
			c-0.9,0.7-1.9,1-3.1,1c-1.9,0-3.4-0.7-4.6-2.2c-1.2-1.4-1.8-3.2-1.8-5.2c0-2.1,0.6-3.9,1.9-5.4c1.3-1.5,2.9-2.3,4.9-2.3
			c0.8,0,1.6,0.1,2.3,0.4c0.3,0.1,0.5,0.3,0.9,0.4c0.3,0.2,0.7,0.4,1.1,0.6L524,312.6z M524,326.8v-4.2c-0.8-0.7-1.6-1.2-2.2-1.5
			c-0.6-0.3-1.2-0.4-1.8-0.4c-1.5,0-2.7,0.6-3.6,1.9c-0.9,1.2-1.3,2.5-1.3,4.1c0,1.7,0.5,3,1.4,4.1c0.9,1,1.9,1.5,3.1,1.5
			c1.2,0,2.2-0.5,3.1-1.6C523.6,329.8,524,328.4,524,326.8L524,326.8z"/>
		<path id="path20184" class="st3" d="M540.1,321l0.5-1.6h1.4v13.1c0,2.3-0.5,4-1.6,5.1c-1.1,1.2-2.8,1.8-5.1,1.8
			c-0.9,0-1.8-0.2-2.7-0.5c-0.8-0.3-1.7-0.8-2.6-1.5v-2.4c0.6,0.5,1.1,1,1.7,1.4c0.6,0.4,1.1,0.7,1.6,0.9c0.6,0.2,1.3,0.4,1.9,0.4
			c1.4,0,2.5-0.3,3.3-1c1-0.8,1.5-2.1,1.5-3.8v-1.8c-0.7,1.1-1.5,1.9-2.5,2.4c-0.7,0.3-1.4,0.5-2.3,0.5c-1.8,0-3.3-0.7-4.5-2.1
			c-1.2-1.5-1.8-3.1-1.8-5.1s0.6-3.6,1.7-5.1c1.3-1.7,3-2.5,5-2.5c1,0,2,0.2,2.9,0.7c0.3,0.2,0.5,0.3,0.8,0.5
			C539.6,320.5,539.9,320.7,540.1,321L540.1,321z M540.1,326.8v-4c-0.3-0.3-0.6-0.6-0.9-0.9c-0.3-0.2-0.6-0.4-0.9-0.6
			c-0.4-0.2-0.7-0.3-1.1-0.4c-0.4-0.1-0.8-0.1-1.2-0.1c-1.4,0-2.5,0.5-3.3,1.4c-1,1.1-1.5,2.5-1.5,4.3c0,1.6,0.4,2.9,1.2,4
			c0.8,1,1.9,1.5,3.2,1.5c1.3,0,2.4-0.5,3.2-1.5C539.7,329.6,540.1,328.3,540.1,326.8L540.1,326.8z"/>
		<path id="path20186" class="st3" d="M558.3,326h-11c0,2.1,0.5,3.7,1.4,4.8c1,1.1,2.2,1.6,3.8,1.6c1.2,0,2.3-0.4,3.4-1.1
			c0.3-0.2,0.6-0.4,1-0.7c0.3-0.3,0.7-0.7,1.1-1.1v2.4c-0.4,0.3-0.8,0.6-1.2,0.9c-0.4,0.2-0.7,0.4-1,0.6c-1.1,0.6-2.3,0.9-3.4,0.9
			c-2,0-3.6-0.7-5-2c-1.5-1.4-2.2-3.3-2.2-5.5c0-2.1,0.7-3.9,2-5.4c1.4-1.5,3-2.2,5-2.2c1.9,0,3.5,0.7,4.6,2.1
			C557.8,322.4,558.3,324,558.3,326L558.3,326z M547.6,324.3h8.5c-0.2-1.2-0.7-2.1-1.4-2.7c-0.7-0.6-1.6-0.9-2.6-0.9
			c-1.1,0-2.1,0.4-2.8,1.1C548.5,322.4,547.9,323.3,547.6,324.3L547.6,324.3z"/>
	</g>
</g>
</svg>
